<?xml version="1.0" encoding="UTF-8" standalone="no"?>
<!-- Created with Inkscape (http://www.inkscape.org/) -->

<svg
   xmlns:dc="http://purl.org/dc/elements/1.1/"
   xmlns:cc="http://creativecommons.org/ns#"
   xmlns:rdf="http://www.w3.org/1999/02/22-rdf-syntax-ns#"
   xmlns:svg="http://www.w3.org/2000/svg"
   xmlns="http://www.w3.org/2000/svg"
   xmlns:sodipodi="http://sodipodi.sourceforge.net/DTD/sodipodi-0.dtd"
   xmlns:inkscape="http://www.inkscape.org/namespaces/inkscape"
   width="116.63784mm"
   height="85.267799mm"
   version="1.1"
   viewBox="0 0 116.63784 85.267799"
   id="svg914"
   sodipodi:docname="arte.svg"
   inkscape:version="0.92.4 (f8dce91, 2019-08-02)">
  <defs
     id="defs918" />
  <sodipodi:namedview
     pagecolor="#ffffff"
     bordercolor="#666666"
     borderopacity="1"
     objecttolerance="10"
     gridtolerance="10"
     guidetolerance="10"
     inkscape:pageopacity="0"
     inkscape:pageshadow="2"
     inkscape:window-width="1360"
     inkscape:window-height="700"
     id="namedview916"
     showgrid="false"
     inkscape:zoom="0.46591611"
     inkscape:cx="233.67956"
     inkscape:cy="223.35956"
     inkscape:window-x="0"
     inkscape:window-y="36"
     inkscape:window-maximized="1"
     inkscape:current-layer="svg914" />
  <metadata
     id="metadata898">
    <rdf:RDF>
      <cc:Work
         rdf:about="">
        <dc:format>image/svg+xml</dc:format>
        <dc:type
           rdf:resource="http://purl.org/dc/dcmitype/StillImage" />
        <dc:title />
      </cc:Work>
    </rdf:RDF>
  </metadata>
  <g
     id="g912"
     style="fill:#5d5d5a;stroke:#5d5d5a"
     transform="translate(-43.172284,-122.32942)">
    <path
       transform="scale(0.26458)"
       d="m 339.77,489.17 c -15.909,-0.14038 -28.211,1.1859 -40.512,2.5117 -11.533,3.283 -23.064,6.5656 -38.637,13.342 -15.573,6.7762 -35.189,17.047 -50.635,28.158 -15.446,11.111 -26.727,23.066 -34.051,35.902 -7.3235,12.837 -10.692,26.558 -11.828,39.438 -1.1365,12.879 -0.0418,24.918 3.2832,36.029 3.325,11.112 8.8818,21.297 19.783,33.293 10.901,11.996 27.147,25.801 44.002,35.484 16.855,9.683 34.313,15.244 46.482,18.516 12.169,3.272 19.043,4.2541 24.371,5.2363 5.3279,0.98227 9.107,1.9651 12.887,2.9473 -10.487,11.384 -21.121,22.927 -26.293,28.576 -5.1722,5.6492 -5.1759,5.7244 -5.1797,5.7988 0.23809,3.5714 0.47585,7.1408 2.502,8.8457 2.0261,1.7049 5.8391,1.5402 15.301,-5.6973 9.4617,-7.2375 24.57,-21.546 32.125,-28.701 7.555,-7.155 7.5554,-7.1562 7.8926,-7.1562 0.3372,0 1.0099,10e-4 8.123,-0.125 7.1132,-0.12628 20.665,-0.38 34.303,-1.5586 13.638,-1.1786 27.359,-3.2819 41.123,-7.5332 13.764,-4.2513 27.567,-10.649 36.617,-16.795 9.0504,-6.146 13.342,-12.036 15.025,-17.34 1.6834,-5.3036 0.75746,-10.018 -2.0625,-14.984 -2.81996,-4.966 -7.572,-10.228 -16.139,-13.111 -8.567,-2.883 -20.941,-3.4678 -31.758,-5.5742 -10.817,-2.1064 -19.836,-5.6963 -25.303,-9.373 -5.4668,-3.6768 -7.2342,-7.3791 -7.6973,-11.084 -0.46303,-3.7049 0.36144,-7.3292 2.8965,-9.8106 2.53506,-2.4814 6.6648,-3.6374 14.406,-3.3535 7.7412,0.2839 18.937,2.0518 32.785,3.6934 13.848,1.6415 30.345,3.1556 43.646,1.4297 13.301,-1.7259 23.401,-6.6907 29.926,-12.584 6.525,-5.8933 9.4709,-12.71 10.312,-20.918 0.8411,-8.208 -0.42182,-17.804 -2.9473,-25.717 -2.5254,-7.9128 -6.3141,-14.142 -12.375,-21.887 -6.0609,-7.745 -14.393,-17.005 -26.557,-25.928 -12.164,-8.9228 -28.159,-17.51 -40.406,-23.023 -12.247,-5.5134 -20.751,-7.9538 -37.418,-10.605 -16.667,-2.6517 -41.503,-5.5141 -60.947,-6.1875 -2.4306,-0.0842 -4.7761,-0.13425 -7.0488,-0.1543 z m 45.283,22.979 c 1.2648,-0.007 2.6719,0.23994 4.6211,0.93946 3.8984,1.399 9.9702,4.6137 14.285,8.9883 4.315,4.3746 6.8746,9.9113 6.1309,15.148 -0.74378,5.2372 -4.7926,10.178 -11.965,13.393 -7.1724,3.215 -17.468,4.7021 -25.594,2.2617 -8.1256,-2.4404 -14.077,-8.8082 -16.459,-14.375 -2.3815,-5.5668 -1.1911,-10.327 1.875,-14.107 3.0661,-3.7801 8.0051,-6.5769 12.381,-8.3926 4.3758,-1.8157 8.1853,-2.6484 10.953,-3.2734 1.3839,-0.31251 2.5067,-0.57463 3.7715,-0.58204 z m -98.264,12.648 c 0.43539,-0.005 0.89227,0.006 1.3789,0.0293 3.8931,0.18966 9.7008,1.2014 14.162,2.9902 4.4613,1.7888 7.5774,4.3557 9.6816,9.5742 2.1042,5.2185 3.1986,13.089 -1.1992,19.402 -4.3978,6.3131 -14.29,11.071 -23.213,12.166 -8.923,1.095 -16.877,-1.4739 -21.402,-6.3359 -4.525,-4.862 -5.6191,-12.016 -2.6934,-18.52 2.9257,-6.5034 9.8664,-12.349 14.33,-15.592 3.9057,-2.8371 5.9073,-3.6767 8.9551,-3.7148 z m 176.7,15.582 c 6.2286,-0.042 11.279,1.8946 15.74,4.041 4.4612,2.1464 8.3345,4.5044 11.617,10.102 3.2825,5.5976 5.9768,14.435 4.4199,20.875 -1.5569,6.44 -7.3643,10.482 -14.857,11.197 -7.4931,0.71575 -16.668,-1.8942 -23.697,-6.1035 -7.029,-4.2093 -11.911,-10.017 -13.979,-15.826 -2.068,-5.809 -1.2998,-11.785 -0.87891,-15.152 0.42086,-3.3671 0.50485,-4.2086 0.54688,-4.6289 0.037,-0.37072 1.5462,-1.4273 2.6465,-1.4297 1.1003,-0.002 0.66219,0.117 1.0996,-0.002 0.89874,-0.24511 2.0162,-0.54979 3.2812,-0.8711 3.9493,-1.0031 9.3431,-2.1694 14.061,-2.2012 z m -237.03,37.5 c 2.4705,5e-5 5.5059,0.17837 8.4219,4.9102 2.916,4.7318 5.7148,14.019 5.209,22.352 -0.50577,8.3323 -4.3169,15.714 -9.8223,20.893 -5.5053,5.1783 -12.708,8.1543 -18.869,7.8867 -6.1611,-0.2676 -11.28,-3.7791 -13.988,-9.4941 -2.7088,-5.715 -3.0063,-13.63 0.86328,-21.547 3.8696,-7.9172 11.891,-15.819 16.244,-19.934 4.3527,-4.1142 5.0074,-4.4125 6.2871,-4.6504 1.2797,-0.2379 3.1838,-0.41607 5.6543,-0.41602 z m 149.78,86.664 c 6.9437,0.21052 15.11,2.3158 20.75,5.2617 5.6395,2.946 8.7543,6.7344 10.732,10.648 1.9782,3.9141 2.8192,7.9549 0.71484,12.922 -2.1044,4.967 -7.1528,10.858 -14.982,13.721 -7.8296,2.8626 -18.436,2.6937 -27.738,0.16797 -9.3026,-2.5255 -17.299,-7.4071 -21.129,-10.943 -3.8302,-3.5362 -3.4928,-5.7235 -3.2402,-7.4492 0.25251,-1.7257 0.42039,-2.9887 3.1543,-6.4375 2.7339,-3.4489 8.0414,-9.0946 13.555,-12.756 5.5133,-3.6613 11.24,-5.3453 18.184,-5.1348 z"
       id="path900"
       inkscape:connector-curvature="0"
       style="stroke-width:1px" />
    <g
       id="g910"
       style="stroke-width:0.26458001px">
      <path
         d="m 93.155,185.06 c 0.21174,-0.15602 0.63491,-0.46783 1.6316,-1.4862 0.99664,-1.0184 2.5892,-2.768 3.3909,-3.7145 0.8017,-0.94658 0.82398,-1.1025 1.7772,-0.78848 0.95318,0.31403 2.8444,1.1006 3.8799,1.6045 1.0356,0.50387 1.2194,0.72661 1.1638,0.98264 -0.0556,0.25604 -0.35062,0.54555 -1.3704,1.5152 -1.0198,0.9696 -2.761,2.6163 -3.6358,3.4431 -0.87481,0.82682 -0.88192,0.83251 -1.0348,0.81295 -0.15287,-0.0196 -0.42767,-0.0609 -0.8058,-0.13404 -0.37812,-0.0731 -0.84688,-0.17605 -1.3196,-0.30414 -0.47271,-0.12809 -0.94858,-0.28115 -1.3329,-0.42386 -0.38427,-0.1427 -0.6765,-0.2749 -1.0246,-0.43851 -0.34809,-0.1636 -0.75162,-0.3584 -1.0335,-0.50388 -0.28192,-0.14548 -0.44197,-0.24151 -0.52126,-0.29107 -0.07929,-0.0496 -0.07775,-0.0525 -0.06225,-0.0629 0.0155,-0.0104 0.0527,-0.0336 0.06925,-0.0439 0.01655,-0.0103 0.01652,-0.0107 0.22826,-0.16675 z"
         id="path902"
         inkscape:connector-curvature="0" />
      <path
         d="m 105.14,172.39 c 0.0224,-0.014 0.067,-0.0419 0.62007,-0.60599 0.55306,-0.56413 1.6296,-1.6799 2.2086,-2.231 0.579,-0.5511 0.66821,-0.54553 1.9843,-0.25955 1.3161,0.28599 3.8732,0.85547 6.4234,1.4234 v 0.0668 l -5.1115,4.6438 c -1.1804,-0.44545 -2.3607,-0.89084 -3.3102,-1.3252 -0.94944,-0.43434 -1.6676,-0.85746 -2.102,-1.1387 -0.43436,-0.28121 -0.58468,-0.42039 -0.65985,-0.49 -0.0752,-0.0696 -0.0752,-0.0696 -0.0528,-0.0836 z"
         id="path904"
         inkscape:connector-curvature="0" />
      <path
         d="m 137.94,150.07 c 0.0946,-0.0867 0.28362,-0.25998 1.7659,-1.6912 1.4823,-1.4312 4.2661,-4.1282 5.7109,-5.8527 1.4449,-1.7245 1.5551,-2.4805 1.3426,-3.3386 -0.2125,-0.8581 -0.74823,-1.8191 -1.4883,-2.575 -0.74007,-0.7559 -1.6851,-1.3071 -2.9417,-1.1515 -1.2566,0.1556 -2.838,1.0254 -4.4799,2.4949 -1.642,1.4695 -3.3348,3.5228 -4.1729,4.5799 -0.8381,1.0571 -0.81528,1.1035 -0.54939,1.3762 0.26588,0.27268 0.77144,0.76713 1.4647,1.5828 0.69321,0.8157 1.573,1.9516 2.1463,2.7819 0.57333,0.83032 0.84023,1.3551 0.97372,1.6175 0.13348,0.26244 0.13347,0.26244 0.2281,0.17569 z"
         id="path906"
         inkscape:connector-curvature="0" />
      <path
         d="m 145.6,128.07 c -0.063,0.13783 -0.11805,0.20868 -0.34333,0.67503 -0.22528,0.46636 -0.61738,1.3211 -0.76706,2.1993 -0.14969,0.87822 -0.0552,1.7756 0.25589,2.5002 0.31113,0.72464 0.83858,1.2757 1.3347,1.7876 0.49612,0.5119 0.96069,0.98431 1.441,1.4647 0.48031,0.48039 0.97644,0.96857 1.6026,1.2481 0.62613,0.27955 1.3821,0.35042 2.1852,0.22047 0.8031,-0.12994 1.6538,-0.46078 2.4726,-0.99617 0.81878,-0.53539 1.6065,-1.2759 2.2403,-2.3584 0.6338,-1.0825 1.1142,-2.5083 1.4607,-4.087 0.34642,-1.5786 0.55908,-3.3114 0.83078,-4.524 0.27169,-1.2126 0.60248,-1.9057 0.91348,-2.4765 0.311,-0.5708 0.60249,-1.0198 0.36263,-1.1851 -0.23986,-0.16527 -1.0121,-0.0471 -2.7529,0.39009 -1.7408,0.43716 -4.4486,1.1928 -6.4488,2.0118 -2.0002,0.819 -3.2915,1.7008 -3.9727,2.2441 -0.68125,0.54331 -0.75211,0.74801 -0.81505,0.88584 z"
         id="path908"
         inkscape:connector-curvature="0" />
    </g>
  </g>
</svg>
