<?xml version="1.0" encoding="UTF-8" standalone="no"?>
<!-- Created with Inkscape (http://www.inkscape.org/) -->

<svg
   xmlns:dc="http://purl.org/dc/elements/1.1/"
   xmlns:cc="http://creativecommons.org/ns#"
   xmlns:rdf="http://www.w3.org/1999/02/22-rdf-syntax-ns#"
   xmlns:svg="http://www.w3.org/2000/svg"
   xmlns="http://www.w3.org/2000/svg"
   xmlns:sodipodi="http://sodipodi.sourceforge.net/DTD/sodipodi-0.dtd"
   xmlns:inkscape="http://www.inkscape.org/namespaces/inkscape"
   width="207.88068mm"
   height="235.3299mm"
   viewBox="0 0 207.88068 235.3299"
   version="1.1"
   id="svg8"
   inkscape:version="0.92.4 (f8dce91, 2019-08-02)"
   sodipodi:docname="asdda.svg">
  <defs
     id="defs2">
    <inkscape:path-effect
       effect="bspline"
       id="path-effect828"
       is_visible="true"
       weight="33.333333"
       steps="2"
       helper_size="0"
       apply_no_weight="true"
       apply_with_weight="true"
       only_selected="false" />
  </defs>
  <sodipodi:namedview
     id="base"
     pagecolor="#ffffff"
     bordercolor="#666666"
     borderopacity="1.0"
     inkscape:pageopacity="0.0"
     inkscape:pageshadow="2"
     inkscape:zoom="0.24748737"
     inkscape:cx="-8.7499806"
     inkscape:cy="321.76934"
     inkscape:document-units="mm"
     inkscape:current-layer="layer1"
     showgrid="false"
     inkscape:window-width="1360"
     inkscape:window-height="700"
     inkscape:window-x="0"
     inkscape:window-y="36"
     inkscape:window-maximized="1" />
  <metadata
     id="metadata5">
    <rdf:RDF>
      <cc:Work
         rdf:about="">
        <dc:format>image/svg+xml</dc:format>
        <dc:type
           rdf:resource="http://purl.org/dc/dcmitype/StillImage" />
        <dc:title></dc:title>
      </cc:Work>
    </rdf:RDF>
  </metadata>
  <g
     inkscape:label="Camada 1"
     inkscape:groupmode="layer"
     id="layer1"
     transform="translate(116.74216,-22.496956)">
    <path
       style="fill:#5d5d5a;stroke:#5d5d5a;stroke-width:0.26458332px;stroke-linecap:butt;stroke-linejoin:miter;stroke-opacity:1;fill-opacity:1"
       d="m -105.36384,256.51314 c 0.0325,0.12786 0.0974,0.38379 0.31517,0.60643 0.21774,0.22265 0.58757,0.41149 0.89572,0.50006 0.30814,0.0886 0.55428,0.0768 19.780021,0.0709 19.225737,-0.006 57.517147,-0.006 76.65243,-0.0294 19.135283,-0.0235 19.157576,-0.0703 19.154792,-0.22912 -0.0028,-0.1588 -0.03081,-0.4335 -0.06698,-1.2876 -0.03617,-0.85409 -0.08075,-2.2919 -0.211584,-4.62187 -0.130836,-2.32996 -0.348031,-5.55447 -0.417619,-7.88469 -0.06959,-2.33022 0.0084,-3.7669 0.04734,-4.64663 0.03897,-0.87972 0.03897,-1.20273 0.122447,-1.87607 0.08348,-0.67335 0.250657,-1.69872 0.478949,-2.56168 0.228291,-0.86297 0.517918,-1.56476 0.812982,-2.18269 0.295065,-0.61794 0.595878,-1.15272 0.985547,-1.66482 0.389668,-0.5121 0.868811,-1.00238 1.403213,-1.43656 0.534402,-0.43417 1.124941,-0.81301 1.670491,-1.08018 0.545551,-0.26718 1.046942,-0.42317 1.77603,-0.47325 0.729087,-0.0501 1.687405,0.006 4.799299,0.17822 3.111895,0.17257 8.380698,0.46219 13.798353,0.51787 5.417656,0.0557 10.986034,-0.12252 15.21773,-0.25615 4.231696,-0.13363 7.127261,-0.22273 8.775436,-0.27782 1.648175,-0.0551 2.093602,-0.0785 2.459196,-0.18714 0.365593,-0.10861 0.673974,-0.30363 1.121074,-0.68824 0.4471,-0.38461 1.034335,-0.96002 1.416117,-1.58001 0.381781,-0.61999 0.559039,-1.28569 0.657431,-1.83679 0.09839,-0.55109 0.118088,-0.98833 0.145634,-1.97019 0.02755,-0.98186 0.063,-2.51048 -0.06102,-3.95923 -0.124023,-1.44876 -0.407554,-2.81916 -0.565029,-3.7759 -0.157475,-0.95673 -0.18898,-1.50015 -0.204722,-1.7876 -0.01574,-0.28744 -0.01574,-4.09867 -0.0039,-5.24045 0.01182,-1.14179 0.03545,-1.50407 0.118099,-2.00386 0.08265,-0.4998 0.224502,-1.13813 0.472504,-1.83485 0.248002,-0.69671 0.602527,-1.45303 1.157535,-2.48431 0.555007,-1.03128 1.311278,-2.339 2.18529,-3.3468 0.874012,-1.00781 1.866436,-1.71668 2.559329,-2.22455 0.692894,-0.50786 1.08674,-0.81506 1.330709,-1.1457 0.243969,-0.33064 0.338533,-0.68526 0.291304,-1.0236 -0.04723,-0.33835 -0.236384,-0.66149 -0.460744,-0.94096 -0.22436,-0.27947 -0.484286,-0.51576 -0.948901,-0.95675 -0.464615,-0.44099 -1.133918,-1.08667 -1.633959,-1.59459 -0.500041,-0.50791 -0.830767,-0.87801 -0.917334,-1.31519 -0.08657,-0.43717 0.07093,-0.94116 0.26778,-1.35053 0.196849,-0.40936 0.433235,-0.72454 0.763811,-1.00391 0.330575,-0.27937 0.756197,-0.52371 1.307158,-0.71653 0.55096,-0.19281 1.228668,-0.33466 1.830946,-0.45669 0.602279,-0.12203 1.130111,-0.22444 1.437127,-0.35445 0.307016,-0.13002 0.393686,-0.2876 0.146108,-1.27788 -0.247579,-0.99029 -0.831457,-2.82083 -1.681855,-5.15942 -0.850397,-2.33858 -1.968675,-5.18941 -2.535615,-7.10295 -0.566939,-1.91354 -0.58269,-2.89003 -0.511804,-3.72466 0.07089,-0.83462 0.228418,-1.52776 0.960581,-2.18901 0.732162,-0.66124 2.039909,-1.29148 4.746595,-2.21212 2.706685,-0.92064 6.814891,-2.13262 9.202546,-2.9835 2.387654,-0.85087 3.05588,-1.34091 3.63483,-1.86421 0.57895,-0.52331 1.069163,-1.08037 1.357565,-1.58717 0.288401,-0.50679 0.37958,-0.98548 0.31835,-1.73122 -0.06123,-0.74575 -0.272955,-1.77095 -0.64597,-2.74522 -0.373015,-0.97427 -0.90766,-1.89876 -1.551965,-2.96527 -0.644304,-1.06652 -1.404756,-2.28548 -3.417458,-4.77489 -2.012702,-2.48941 -5.281236,-6.25486 -8.549594,-10.02011 -1.937127,-2.18911 -3.874269,-4.37824 -5.354678,-6.15001 -1.48041,-1.77177 -2.504107,-3.1262 -3.291552,-4.1735 -0.787444,-1.0473 -1.338673,-1.78752 -1.716651,-2.53564 -0.377978,-0.74813 -0.582727,-1.50412 -0.677194,-2.18131 -0.09447,-0.67718 -0.07871,-1.27579 -0.01572,-1.88987 0.06299,-0.61408 0.173288,-1.24433 0.574762,-2.37787 0.401474,-1.13354 1.09476,-2.77223 1.488444,-3.79587 0.393684,-1.02363 0.488199,-1.43319 0.4476,-3.82556 -0.0406,-2.39237 -0.216475,-6.7743 -0.293203,-9.709704 -0.07673,-2.935405 -0.05445,-4.427748 -0.266024,-6.621325 -0.21157,-2.193576 -0.657097,-5.089516 -1.325242,-8.419093 -0.668145,-3.329577 -1.559109,-7.093907 -2.884281,-11.069406 -1.325172,-3.975498 -3.084786,-8.162934 -4.376574,-11.03604 -1.291788,-2.873105 -2.115895,-4.432226 -3.708287,-6.637075 -1.592392,-2.204848 -3.953422,-5.055904 -5.267405,-6.525845 -1.313982,-1.469941 -1.581254,-1.559032 -1.948809,-1.525657 -0.367555,0.03338 -0.835,0.189191 -1.425477,0.300616 -0.590478,0.111424 -1.302714,0.178196 -1.84855,0.122519 -0.545837,-0.05568 -0.924317,-0.233785 -1.291952,-0.723989 -0.367634,-0.490203 -0.723886,-1.291769 -1.135891,-2.20486 -0.412004,-0.913091 -0.879798,-1.93778 -1.336219,-2.483376 -0.456422,-0.545595 -0.901923,-0.612421 -1.548018,-0.178032 -0.646096,0.434389 -1.492031,1.36937 -2.282885,2.951025 -0.790855,1.581655 -1.525628,3.808241 -2.149287,5.612407 -0.623658,1.804167 -1.135853,3.184863 -1.415098,3.866053 -0.279245,0.681191 -0.325462,0.662314 -1.027713,0.506768 -0.702251,-0.155546 -2.052735,-0.446057 -3.212349,-0.759089 -1.159614,-0.313031 -2.124101,-0.647649 -3.453084,-1.24618 -1.328983,-0.598532 -3.02173,-1.460652 -4.096663,-2.110335 -1.074932,-0.649683 -1.531625,-1.086692 -1.761958,-1.47071 -0.230334,-0.384019 -0.23427,-0.714743 -0.186981,-0.978489 0.04729,-0.263747 0.145798,-0.460763 0.332675,-0.608229 0.186878,-0.147466 0.462929,-0.246056 0.76394,-0.366072 0.301012,-0.120017 0.628181,-0.261923 1.049209,-0.385857 0.421028,-0.123933 0.937312,-0.230342 1.425394,-0.437027 0.488082,-0.206685 0.949013,-0.513973 1.275728,-0.752142 0.326716,-0.238169 0.51977,-0.407584 0.69086,-0.667224 0.171089,-0.25964 0.320922,-0.610565 0.421215,-0.972346 0.100292,-0.361781 0.151595,-0.736687 0.155522,-1.273821 0.0039,-0.537135 -0.03942,-1.238518 -0.192942,-1.828945 -0.153524,-0.590426 -0.417413,-1.070941 -0.931092,-1.553139 -0.513678,-0.482199 -1.277651,-0.966573 -1.901669,-1.269746 -0.624018,-0.303172 -1.108255,-0.425216 -1.726497,-0.446895 -0.618241,-0.02168 -1.369968,0.05704 -2.035469,0.30507 -0.665502,0.248035 -1.244056,0.665224 -1.752687,1.221398 -0.508631,0.556174 -0.944319,1.246993 -1.137342,1.85939 -0.193023,0.612397 -0.141861,1.143691 0.0334,1.801434 0.175258,0.657743 0.474356,1.440907 0.657456,2.07087 0.183099,0.629964 0.250021,1.106285 0.295308,1.458716 0.04529,0.352431 0.0689,0.580684 -0.100417,0.775707 -0.169316,0.195024 -0.531171,0.356285 -1.041379,0.399646 -0.510207,0.04336 -1.167149,-0.03138 -1.661397,-0.153452 -0.494249,-0.122071 -0.824861,-0.291313 -1.452983,-0.574855 -0.628122,-0.283543 -1.553218,-0.681137 -2.478472,-1.0788 C 9.2131702,43.16143 7.7013521,42.307096 6.5437783,41.657437 5.3862045,41.007778 4.5830512,40.562895 4.1735213,40.24579 3.7639914,39.928685 3.7482441,39.739717 3.787646,39.550811 3.827048,39.361905 3.921662,39.172677 4.2572889,38.657347 4.5929158,38.142017 5.1816318,37.282809 5.9118798,36.081657 6.6421278,34.880504 7.5282032,33.31405 8.1659651,31.967621 8.803727,30.621192 9.1975316,29.487036 9.4179669,28.620942 9.6384023,27.754848 9.6856626,27.156217 9.6069296,26.676055 9.5281966,26.195893 9.3233632,25.833494 8.9219854,25.636685 8.5206076,25.439876 7.9220014,25.40837 7.4810037,25.439828 7.040006,25.471287 6.7566421,25.565741 6.3468691,25.723342 5.9370961,25.880943 5.4022297,26.101182 4.8823458,26.235115 4.3624619,26.369048 3.8587942,26.416266 3.4807064,26.416286 3.1026187,26.416305 2.8507782,26.369086 2.4472711,26.097629 2.043764,25.826172 1.4898403,25.331346 1.1096076,24.924994 0.7293748,24.518641 0.52336054,24.201268 0.41491742,23.914437 0.30647431,23.627607 0.29509934,23.360295 -0.11085779,23.201765 -0.51681492,23.043236 -1.3193982,22.987501 -2.9150245,22.906744 c -1.5956263,-0.08076 -3.9836178,-0.186518 -5.2030317,-0.239421 -1.2194138,-0.0529 -1.2806575,-0.0529 -1.3114216,0.01409 -0.030764,0.067 -0.036305,0.199998 0.011096,0.439833 0.047401,0.239835 0.1474212,0.584347 0.2504578,0.93523 0.1030365,0.350882 0.2087775,0.707062 0.2672682,1.160951 0.058491,0.453889 0.069622,1.004868 0.070673,1.803861 0.00105,0.798992 -0.00798,1.844758 -0.1610155,2.526889 -0.1530341,0.682131 -0.4501685,0.999982 -0.8411707,1.20364 -0.391002,0.203658 -0.875011,0.292671 -1.373568,0.287119 -0.498556,-0.0056 -1.010502,-0.105715 -1.511789,-0.295082 -0.501288,-0.189367 -0.991086,-0.467662 -1.818053,-0.935442 -0.826967,-0.467779 -1.990498,-1.1247 -2.764485,-1.567375 -0.773987,-0.442675 -1.158157,-0.670951 -1.901521,-0.782339 -0.743364,-0.111389 -1.845623,-0.105827 -2.817336,0.125218 -0.971713,0.231046 -1.812295,0.687522 -2.408176,1.096797 -0.595882,0.409275 -0.946803,0.771336 -1.297594,1.133263 -0.796241,0.918739 -1.592236,1.837196 -2.082342,2.664159 -0.490105,0.826963 -0.673796,1.561731 -0.771278,2.580994 -0.09748,1.019263 -0.108614,2.321648 0.01945,3.285065 0.128065,0.963418 0.395281,1.586919 0.915994,2.374953 0.520713,0.788034 1.294522,1.739988 1.849252,2.273542 0.554729,0.533555 0.890019,0.648426 1.376568,0.939233 0.486548,0.290808 1.140059,0.768986 2.352763,1.099704 1.212704,0.330719 2.99247,0.519721 4.386231,0.338545 1.393762,-0.181176 2.401831,-0.732464 3.197017,-1.401736 0.795186,-0.669272 1.378082,-1.456971 1.984259,-2.574887 0.606177,-1.117917 1.236375,-2.567374 1.551286,-3.291668 0.314911,-0.724295 1.4960869,-1.905469 1.7087103,-1.952719 0.2126233,-0.04725 0.6381314,-0.141807 0.9844826,-0.181143 0.3463512,-0.03934 0.6142778,-0.02357 0.9132886,0.06299 0.2990108,0.08657 0.6300464,0.244203 0.8504307,0.48815 0.2203842,0.243948 0.3306643,0.574788 0.6142906,0.945075 0.2836263,0.370286 0.7401275,0.779563 1.2046808,1.637781 0.4645532,0.858218 0.937039,2.165429 1.2756571,3.197018 0.338618,1.031588 0.543332,1.787455 1.0867774,3.780088 0.5434454,1.992633 1.42518018,5.220412 1.921295,7.937142 0.49611482,2.71673 0.60635133,4.921469 0.72445813,6.260196 0.1181068,1.338727 0.24408446,1.811143 -0.0787568,2.063219 -0.32284123,0.252075 -1.09424641,0.283563 -2.68531307,0.496226 -1.5910666,0.212664 -3.9998066,0.606248 -7.1025912,1.29925 -3.1027852,0.693002 -6.8978222,1.685066 -9.7090952,2.708745 -2.811273,1.02368 -4.638007,2.078777 -5.620143,2.819687 -0.982137,0.74091 -1.128443,1.196082 -1.096948,1.731852 0.03149,0.53577 0.236084,1.165277 0.535404,1.645756 0.29932,0.480479 0.692945,0.811124 1.204824,1.10249 0.511878,0.291365 1.141879,0.543365 1.874097,0.889794 0.732219,0.346428 1.567097,0.787496 2.19704,1.11034 0.629942,0.322844 1.055216,0.527605 1.527546,0.984184 0.472329,0.456578 0.992182,1.165468 1.387693,2.086322 0.395511,0.920854 0.659661,2.024066 0.79355,2.843022 0.133889,0.818955 0.133889,1.338583 -0.09452,2.173546 -0.228414,0.834963 -0.684903,1.984057 -1.220008,2.93133 -0.535106,0.947273 -1.148365,1.691697 -2.000925,2.342588 -0.852561,0.650891 -1.94349,1.207487 -2.867911,1.575053 -0.924421,0.367566 -1.681464,0.545695 -2.505757,0.612546 -0.824293,0.06685 -1.714825,0.02232 -2.550218,-0.178157 -0.835392,-0.200482 -1.614709,-0.556741 -2.31637,-0.946549 -0.70166,-0.389807 -1.325196,-0.81292 -1.915489,-1.425497 -0.590293,-0.612576 -1.147053,-1.414311 -1.514547,-2.171616 -0.367494,-0.757305 -0.545686,-1.470074 -0.64589,-2.238401 -0.100204,-0.768327 -0.122484,-1.592624 0.367438,-2.984376 0.489922,-1.391752 1.492496,-3.352341 2.138353,-4.722036 0.645857,-1.369695 0.935445,-2.149355 0.927115,-2.801321 -0.0083,-0.651966 -0.325925,-1.196413 -0.637686,-1.608385 -0.311762,-0.411972 -0.623624,-0.701559 -3.285115,-0.311811 -2.66149,0.389748 -7.672629,1.458791 -11.236284,2.572396 -3.563655,1.113605 -5.679409,2.271701 -7.505867,3.296297 -1.826458,1.024595 -3.363028,1.91536 -4.265271,2.115808 -0.902244,0.200447 -1.169458,-0.289447 -1.715058,-1.469727 -0.5456,-1.180279 -1.369838,-3.05152 -2.327517,-5.267547 -0.95768,-2.216026 -2.049102,-4.777529 -2.925648,-7.105977 -0.876546,-2.328447 -1.55115,-4.464689 -1.885211,-6.146261 -0.334061,-1.681573 -0.334061,-2.928927 -0.322922,-3.853176 0.01114,-0.924249 0.03342,-1.52573 0.122533,-2.015661 0.08912,-0.489931 0.245095,-0.868737 0.656944,-1.146949 0.411849,-0.278213 1.080587,-0.456542 1.60377,-0.412 0.523183,0.04454 0.901992,0.311938 1.826238,0.757353 0.924246,0.445416 2.39443,1.069129 3.719594,1.614784 1.325163,0.545654 2.505707,1.013418 3.697297,1.124737 1.191589,0.111319 2.394444,-0.133707 3.441121,-0.668238 1.046678,-0.53453 1.937803,-1.358822 2.717146,-2.873041 0.779343,-1.514219 1.447722,-3.71987 1.759482,-5.089551 0.31176,-1.369682 0.267209,-1.904296 -0.07789,-2.805976 -0.345094,-0.90168 -0.991286,-2.17178 -1.870954,-3.218485 -0.879669,-1.046705 -1.993382,-1.870853 -3.218318,-2.427665 -1.224937,-0.556813 -2.56123,-0.846344 -3.875349,-0.879783 -1.314119,-0.03344 -2.60573,0.189253 -3.507845,0.567838 -0.902116,0.378585 -1.414263,0.912999 -1.960117,1.637065 -0.545853,0.724067 -1.124645,1.636776 -1.581332,2.594657 -0.456686,0.957881 -0.79066,1.959803 -1.124759,2.739429 -0.334099,0.779627 -0.668082,1.336263 -1.030052,1.712241 -0.361971,0.375978 -0.75152,0.570753 -1.239019,0.620925 -0.487499,0.05017 -1.071675,-0.04441 -1.503358,-0.219865 -0.431683,-0.175455 -0.709998,-0.431503 -0.988404,-0.687636 -0.773968,-1.369757 -1.547985,-2.739601 -2.135411,-4.009128 -0.587425,-1.269528 -0.988353,-2.438905 -1.244473,-3.296382 -0.25612,-0.857477 -0.367497,-1.403225 -0.456502,-1.692634 -0.089,-0.289408 -0.155846,-0.322828 -0.401075,-0.211383 -0.24523,0.111444 -0.667735,0.367171 -2.902041,1.97743 -2.234305,1.610258 -6.273788,4.57032 -9.046782,6.808734 -2.772994,2.238415 -4.276274,3.752829 -5.178328,4.64376 -0.902053,0.89093 -1.202679,1.158154 -1.308569,1.3365 -0.105891,0.178346 -0.01689,0.26735 0.361788,0.501235 0.378675,0.233886 1.046849,0.612518 1.633413,0.988456 0.586565,0.375938 1.1061,0.759942 1.451267,1.210841 0.345167,0.4509 0.523363,0.974349 0.484492,1.391939 -0.03887,0.41759 -0.294927,0.729311 -0.77408,0.929929 -0.479153,0.200619 -1.180087,0.289626 -1.787108,0.417695 -0.60702,0.128069 -1.119073,0.295042 -1.475559,0.545607 -0.356486,0.250564 -0.556814,0.584445 -0.729517,0.918684 -0.172704,0.334239 -0.31734,0.668013 -0.384224,1.030158 -0.06688,0.362144 -0.05576,0.75154 -5.7e-5,1.308606 0.0557,0.557067 0.155863,1.280446 0.384228,1.815151 0.228365,0.534706 0.584615,0.879823 0.885304,1.152669 0.300688,0.272845 0.545688,0.4733 1.00789,0.640344 0.462202,0.167045 1.141591,0.300695 1.815281,0.306234 0.67369,0.0055 1.342065,-0.116997 1.954411,-0.467764 0.612345,-0.350767 1.169409,-0.930113 1.486675,-1.408901 0.317266,-0.478787 0.395256,-0.857596 0.356289,-1.419622 -0.03897,-0.562025 -0.195,-1.308756 -0.323054,-1.915616 -0.128053,-0.60686 -0.228306,-1.074708 -0.278397,-1.470009 -0.05009,-0.395301 -0.05009,-0.718389 0.0335,-0.95218 0.08359,-0.233791 0.250775,-0.378681 0.451021,-0.450944 0.200246,-0.07226 0.434503,-0.07226 0.718291,-0.07783 0.283788,-0.0056 0.618254,-0.01672 1.080073,0.144652 0.46182,0.161368 1.052522,0.495728 1.993438,1.03578 0.940915,0.540052 2.232907,1.286289 3.491235,2.149304 1.258328,0.863015 2.483394,1.843068 3.121812,2.369367 0.638418,0.526299 0.697863,0.60952 0.686816,0.709656 -0.01105,0.100137 -0.08895,0.222556 -0.557727,0.775046 -0.468776,0.552489 -1.324108,1.530013 -2.192881,2.688359 -0.868773,1.158347 -1.748284,2.494314 -2.349711,3.552337 -0.601428,1.058023 -0.924306,1.837382 -1.085847,2.53355 -0.161542,0.696167 -0.161542,1.308408 0.06691,1.720653 0.228449,0.412245 0.684836,0.623743 1.191564,0.629253 0.506728,0.0055 1.063684,-0.194995 1.6092,-0.356414 0.545517,-0.161418 1.080362,-0.283987 1.547921,-0.311793 0.467558,-0.02781 0.868694,0.03905 1.291658,0.256101 0.422964,0.217052 0.868653,0.584745 1.247235,1.108056 0.378582,0.523312 0.690415,1.202663 0.768409,1.965476 0.078,0.762813 -0.07789,1.609018 -0.400821,2.282868 -0.322935,0.67385 -0.812754,1.174801 -1.30285,1.497877 -0.490096,0.323076 -0.979832,0.46777 -1.520141,0.568047 -0.540309,0.100276 -1.130154,0.155922 -1.614757,0.09467 -0.484603,-0.06125 -0.863049,-0.239345 -1.269652,-0.573542 -0.406604,-0.334196 -0.840786,-0.824042 -1.080216,-1.375389 -0.23943,-0.551347 -0.283975,-1.163859 -0.384188,-1.698263 -0.100213,-0.534404 -0.256183,-0.991173 -0.478804,-1.31956 -0.222621,-0.328387 -0.512261,-0.528907 -0.823988,-0.606896 -0.311727,-0.07799 -0.64575,-0.03345 -0.935403,0.08904 -0.289653,0.122489 -0.534435,0.322765 -0.835368,0.701688 -0.300933,0.378922 -0.656873,0.935079 -0.996629,1.503184 -0.339755,0.568105 -0.662527,1.146867 -0.996709,1.748394 -0.334182,0.601526 -0.679216,1.224816 -1.180542,2.444689 -0.501326,1.219874 -1.158033,3.034162 -1.670314,3.875123 -0.512281,0.84096 -0.879715,0.707347 -1.453409,0.445567 -0.573693,-0.26178 -1.352913,-0.65139 -2.839752,-1.4143 -1.486839,-0.762909 -3.680378,-1.89865 -4.95552,-2.61139 -1.275142,-0.712739 -1.631485,-1.002267 -1.820825,-1.330938 -0.189339,-0.32867 -0.211611,-0.696134 -0.178158,-0.98564 0.03345,-0.289507 0.122604,-0.501239 0.334032,-0.673654 0.211429,-0.172415 0.546021,-0.306251 1.013439,-0.406397 0.467419,-0.100146 1.069351,-0.167028 1.793012,-0.467658 0.72366,-0.300631 1.570423,-0.835427 2.02129,-1.386615 0.450867,-0.551188 0.506567,-1.11934 0.517691,-1.68156 0.01112,-0.562219 -0.0223,-1.119312 -0.178165,-1.648092 -0.155863,-0.52878 -0.434393,-1.030134 -0.72945,-1.436533 -0.295058,-0.4064 -0.606928,-0.718269 -0.991093,-1.018925 -0.384166,-0.300657 -0.840752,-0.5902 -1.341804,-0.679335 -0.501053,-0.08913 -1.046648,0.02221 -1.698324,0.189302 -0.651676,0.16709 -1.40852,0.38969 -1.94319,0.751614 -0.53466,0.361924 -0.84634,0.862845 -1.05243,1.24155 -0.20608,0.378705 -0.30625,0.634684 -0.33414,0.896606 -0.0279,0.261922 0.0166,0.528862 0.0946,1.058141 0.078,0.529279 0.18927,1.319318 0.30064,1.887345 0.11136,0.568026 0.22269,0.913152 0.22833,1.208241 0.006,0.295089 -0.0945,0.539973 -0.28395,0.696045 -0.1894,0.156073 -0.46744,0.222803 -0.73488,0.25625 -0.26744,0.03345 -0.54556,0.03345 -1.25335,-0.239634 -0.70779,-0.27308 -1.85369,-0.818217 -2.81148,-1.369497 -0.95779,-0.551281 -1.72611,-1.108036 -2.2551,-1.514526 -0.529,-0.40649 -0.81853,-0.662612 -1.05786,-0.657194 -0.23933,0.0054 -0.42864,0.272676 -0.84666,1.331648 -0.41803,1.058972 -1.06321,2.905508 -1.90965,5.400293 -0.84645,2.494786 -1.89307,5.634662 -2.50561,7.984498 -0.61253,2.349836 -0.7907,3.908752 -0.97446,5.490247 -0.18377,1.581494 -0.37305,3.184805 -0.49,5.245245 -0.11695,2.06045 -0.16148,4.57678 -0.0716,6.62584 0.0898,2.04907 0.31101,3.60819 0.48367,4.43241 0.17267,0.82422 0.29515,0.90216 0.4288,0.8074 0.13365,-0.0948 0.2785,-0.36218 0.57888,-0.3844 0.30038,-0.0222 0.7575,0.20077 1.10818,0.54586 0.35068,0.34509 0.59574,0.81292 0.85747,1.52014 0.26173,0.70721 0.54008,1.65359 0.79623,2.55013 0.25616,0.89654 0.48998,1.74274 0.82412,2.42218 0.33415,0.67944 0.76838,1.1916 1.34198,1.60925 0.5736,0.41766 1.28629,0.7406 2.22169,0.94659 0.93541,0.20599 2.09377,0.2951 3.10711,0.0835 1.01334,-0.21163 1.88215,-0.72401 2.65041,-1.28631 0.76826,-0.5623 1.43668,-1.17502 1.90983,-1.85977 0.473151,-0.68476 0.751673,-1.44233 0.896385,-2.4944 0.144712,-1.05206 0.155854,-2.40011 -0.04458,-3.44675 -0.200437,-1.04665 -0.612562,-1.79293 -1.141472,-2.49442 -0.52891,-0.7015 -1.17489,-1.35862 -2.01556,-1.77064 -0.84068,-0.41202 -1.87635,-0.57906 -2.94549,-0.43989 -1.06914,0.13917 -2.17139,0.58452 -3.0123,0.8237 -0.84091,0.23917 -1.44207,0.2732 -1.97675,0.25093 -0.53469,-0.0223 -1.01332,-0.10018 -1.33634,-0.167 -0.32302,-0.0668 -0.48998,-0.12248 -0.5903,-0.51832 -0.10033,-0.39584 -0.1337,-1.13013 -0.0947,-1.81492 0.039,-0.6848 0.15039,-1.31978 0.90182,-2.84487 0.75143,-1.5251 2.14412,-3.94281 3.45256,-6.014027 1.30845,-2.071221 2.53384,-3.797908 3.41114,-4.974205 0.8773,-1.176298 1.40732,-1.803363 1.88205,-2.161019 0.47473,-0.357656 0.89415,-0.446189 1.22054,-0.349944 0.32639,0.09624 0.56042,0.377643 1.06955,0.866819 0.50913,0.489175 1.302146,1.193977 2.243778,1.9185 0.941631,0.724523 2.036209,1.472617 3.055934,2.165557 1.019725,0.692941 1.964715,1.330808 2.958052,1.990443 0.993337,0.659634 2.046162,1.348326 3.093471,2.033406 1.070933,0.4331 2.142001,0.86625 3.094828,1.0867 0.952827,0.22046 1.787627,0.22833 2.323042,0.0825 0.535414,-0.14578 0.77172,-0.44511 0.94484,-0.77174 0.17312,-0.32663 0.283472,-0.68133 0.299191,-1.15349 0.01572,-0.47216 -0.0631,-1.063276 -0.185129,-1.657663 -0.122033,-0.594387 -0.287461,-1.193078 -0.456735,-1.842625 -0.169275,-0.649547 -0.342566,-1.350587 -0.421285,-1.996259 -0.07872,-0.645672 -0.06297,-1.236418 0.07486,-1.759988 0.13783,-0.523571 0.397808,-0.980502 0.700898,-1.38983 0.303089,-0.409328 0.649547,-0.771534 0.996025,-1.133761 0.740203,-0.543341 1.480705,-1.086901 2.11054,-1.350586 0.629835,-0.263686 1.149761,-0.247929 1.846434,-0.212503 0.696673,0.03543 1.571174,0.09058 2.409625,0.318897 0.838451,0.228323 1.641877,0.630036 2.299305,1.118183 0.657427,0.488147 1.169351,1.063077 1.681194,1.637916 0.393725,1.18905 0.787398,2.377941 0.838622,3.645753 0.05123,1.267811 -0.240093,2.61417 -0.681014,3.488337 -0.440921,0.874169 -1.031371,1.275669 -1.704832,1.578949 -0.673462,0.30329 -1.429026,0.50792 -2.031519,0.66544 -0.602493,0.15751 -1.051153,0.26771 -1.480456,0.36618 -0.429304,0.0985 -0.838497,0.18502 -1.389972,0.44892 -0.551475,0.2639 -1.243913,0.70454 -1.562992,1.05894 -0.319078,0.35441 -0.26398,0.62203 -0.173378,1.0396 0.0906,0.41756 0.2165,0.9841 0.673388,1.61035 0.456889,0.62624 1.24407,1.31109 2.51581,2.16941 1.271741,0.85832 3.027801,1.88991 5.33553,2.96631 2.307729,1.0764 5.167378,2.19773 6.921413,2.87493 1.754034,0.67721 2.40264,0.91035 2.735675,1.05434 0.333036,0.144 0.350768,0.19916 0.229404,0.55045 -0.121363,0.3513 -0.380453,0.9951 -1.348771,3.16265 -0.968317,2.16756 -2.643452,5.8533 -3.910189,8.38203 -1.266738,2.52873 -2.124154,3.89837 -2.831317,4.79492 -0.707163,0.89656 -1.263848,1.31964 -1.759519,1.57031 -0.495671,0.25067 -0.929761,0.32858 -1.364283,0.31189 -0.434521,-0.0167 -0.868534,-0.12797 -1.191648,-0.49013 -0.323115,-0.36216 -0.534612,-0.97439 -0.729464,-1.84847 -0.194852,-0.87408 -0.373078,-2.01027 -0.640322,-2.92889 -0.267244,-0.91861 -0.623674,-1.62033 -1.035656,-2.21603 -0.411982,-0.5957 -0.879773,-1.08577 -1.525575,-1.4421 -0.645802,-0.35633 -1.469894,-0.57906 -2.750685,-0.47885 -1.280791,0.10021 -3.017664,0.5233 -4.16479,1.11347 -1.147127,0.59018 -1.70384,1.34731 -2.193969,2.31081 -0.49013,0.96351 -0.913139,2.13235 -0.991138,3.23504 -0.078,1.1027 0.189198,2.13809 0.523321,2.97342 0.334122,0.83533 0.734958,1.46998 1.414376,2.0937 0.679417,0.62372 1.637031,1.23614 2.550271,1.5368 0.913239,0.30065 1.781926,0.28952 2.667142,0.13918 0.885216,-0.15035 1.787528,-0.43998 2.511288,-0.69052 0.723761,-0.25054 1.269626,-0.4622 1.8874,-0.43992 0.617773,0.0223 1.308625,0.27857 1.681601,0.84071 0.372976,0.56214 0.428668,1.43095 0.300665,2.10473 -0.128002,0.67378 -0.439726,1.1525 -0.996829,2.35025 -0.557102,1.19776 -1.358396,3.11196 -2.087806,4.38157 -0.72941,1.26962 -1.386335,1.89314 -2.227367,2.97365 -0.841032,1.08051 -1.86514,2.61667 -2.750529,3.84732 -0.885389,1.23066 -1.631372,2.15478 -2.076895,2.58926 -0.445523,0.43447 -0.590237,0.37881 -0.852184,0.18932 -0.261946,-0.1895 -0.640205,-0.51213 -1.781724,-1.47546 -1.141519,-0.96333 -3.045705,-2.56685 -5.350888,-4.12035 -2.305183,-1.5535 -5.011256,-3.05687 -6.793002,-3.88096 -1.781745,-0.82409 -2.639215,-0.96886 -3.307405,-0.99674 -0.66819,-0.0279 -1.14692,0.0612 -1.36423,0.26723 -0.21731,0.20605 -0.1728,0.52878 0.0835,0.92997 0.25631,0.40118 0.72371,0.87971 1.33619,1.67036 0.61248,0.79065 1.36974,1.89313 2.24953,3.17383 0.879783,1.28071 1.881991,2.73948 2.745055,4.26514 0.863064,1.52566 1.586891,3.11808 2.154862,5.02799 0.56797,1.9099 0.97998,4.13698 1.392037,6.20284 0.412058,2.06587 0.82406,3.96999 1.124759,6.03585 0.300699,2.06586 0.489995,4.29287 0.757284,7.63398 0.267289,3.34111 0.612475,7.79512 0.790616,10.6683 0.178141,2.87317 0.189372,4.18717 0.133687,6.02488 -0.05568,1.83772 -0.178159,4.20926 -0.55123,6.74846 -0.373071,2.5392 -0.996628,5.24499 -1.920999,8.9202 -0.92437,3.67522 -2.149216,8.3185 -3.067978,11.84877 -0.918762,3.53027 -1.531212,5.94666 -2.054628,7.78422 -0.523416,1.83756 -0.957673,3.09579 -1.570275,5.07838 -0.6126,1.9826 -1.40308,4.68802 -2.18823,7.47781 -0.78515,2.78979 -1.5646,5.66261 -2.0713,7.43887 -0.5067,1.77627 -0.74053,2.4555 -0.85618,2.86374 -0.11566,0.40824 -0.11299,0.54523 -0.11166,0.61388 0.001,0.0686 0.001,0.0687 0.0339,0.19655 z"
       id="path826"
       inkscape:connector-curvature="0"
       inkscape:path-effect="#path-effect828"
       inkscape:original-d="m -105.3963,256.38527 c 0.0652,0.25566 0.1302,0.51158 0.1949,0.76777 0.37063,0.18886 0.74046,0.37771 1.1103,0.56696 0.24628,-0.0121 0.49242,-0.0239 0.73824,-0.0354 38.205668,-2.7e-4 76.497078,-2.7e-4 114.745223,0 0.02254,-0.047 0.04481,-0.0938 0.06682,-0.14024 -0.02739,-0.27124 -0.05542,-0.54594 -0.08352,-0.81851 -0.04424,-1.4356 -0.08882,-2.87341 -0.133634,-4.30972 -0.216854,-3.22363 -0.434049,-6.44814 -0.65147,-9.67182 0.07821,-1.43673 0.156172,-2.87341 0.233861,-4.30972 2.64e-4,-0.32315 2.64e-4,-0.64616 0,-0.96885 0.167171,-1.02396 0.334351,-2.04933 0.50113,-3.0736 0.289722,-0.70164 0.579349,-1.40343 0.868626,-2.10475 0.300806,-0.53456 0.601621,-1.06934 0.902035,-1.60362 0.478841,-0.48996 0.95798,-0.98025 1.436573,-1.46998 0.590163,-0.37869 1.180705,-0.75752 1.770661,-1.13589 0.501134,-0.15609 1.002525,-0.31208 1.503391,-0.46772 0.957376,0.0554 1.915696,0.11109 2.873147,0.16704 5.266336,0.2892 10.535139,0.57882 15.80231,0.86863 5.568117,-0.17844 11.136495,-0.35663 16.704347,-0.53454 2.895542,-0.0893 5.791105,-0.17845 8.686258,-0.26727 0.401132,-0.0225 0.846619,-0.0448 1.269531,-0.0668 0.308243,-0.19503 0.616622,-0.39005 0.924539,-0.58467 0.586327,-0.57453 1.173565,-1.14994 1.75995,-1.72452 0.177361,-0.66535 0.354619,-1.33105 0.53153,-1.99618 0.01995,-0.4371 0.03964,-0.87434 0.05906,-1.31111 0.03568,-1.52695 0.07113,-3.05557 0.106304,-4.58296 -0.283167,-1.37019 -0.5667,-2.74059 -0.850445,-4.11049 -0.03123,-0.54353 -0.06273,-1.08695 -0.0945,-1.63002 2.65e-4,-0.0318 2.65e-4,-3.84303 0,-5.76414 0.02389,-0.36244 0.04751,-0.72472 0.07087,-1.08668 0.141896,-0.63761 0.283747,-1.27594 0.425222,-1.91351 0.354447,-0.75585 0.70897,-1.51217 1.063059,-2.26785 0.755899,-1.30688 1.51217,-2.6146 2.267857,-3.92151 0.992214,-0.7088 1.98464,-1.41767 2.976563,-2.12611 0.393869,-0.30728 0.787715,-0.61448 1.181177,-0.92132 0.09469,-0.35435 0.189251,-0.70897 0.28348,-1.06306 -0.188556,-0.32283 -0.377712,-0.64597 -0.566963,-0.96856 -0.25953,-0.23644 -0.519454,-0.47274 -0.779576,-0.70871 -0.669102,-0.646 -1.338403,-1.29168 -2.008,-1.93712 -0.330467,-0.37037 -0.661193,-0.74047 -0.992187,-1.11031 0.15775,-0.50421 0.315246,-1.0082 0.472472,-1.51191 0.236349,-0.31504 0.472733,-0.63022 0.708704,-0.94493 0.425088,-0.24415 0.85071,-0.48849 1.27567,-0.73233 0.676971,-0.1419 1.354678,-0.28375 2.031622,-0.42523 0.527616,-0.10258 1.055447,-0.205 1.582775,-0.3071 0.08683,-0.15767 0.173503,-0.31525 0.259858,-0.47247 -0.581282,-1.8235 -1.165162,-3.65404 -1.74814,-5.48066 -1.117814,-2.85058 -2.236094,-5.7014 -3.354538,-8.55171 -0.01548,-0.97665 -0.03123,-1.95314 -0.04725,-2.92932 0.157713,-0.69303 0.315244,-1.38617 0.47247,-2.07886 1.306851,-0.62995 2.614599,-1.26019 3.921503,-1.88989 4.106471,-1.21164 8.214675,-2.42362 12.321614,-3.63503 0.668388,-0.49022 1.336614,-0.98025 2.004523,-1.46998 0.49004,-0.55683 0.980252,-1.11389 1.469982,-1.67043 0.08931,-0.45663 0.178443,-0.93571 0.267269,-1.40317 -0.211187,-1.02413 -0.422912,-2.04933 -0.634764,-3.0736 -0.53417,-0.92439 -1.068814,-1.84888 -1.603619,-2.77292 -0.745794,-1.214 -1.514263,-2.42796 -2.271791,-3.64155 -3.267901,-3.76529 -9.805075,-11.29574 -9.805075,-11.29574 0,0 -3.873989,-4.37849 -5.811382,-6.56734 -1.023414,-1.35466 -2.047108,-2.70909 -3.071059,-4.06324 -0.550934,-0.74045 -1.102164,-1.48067 -1.653646,-2.22061 -0.204459,-0.75617 -0.409207,-1.51217 -0.614209,-2.26786 0.01601,-0.59858 0.03176,-1.19719 0.04725,-1.79538 0.110458,-0.62994 0.22075,-1.26019 0.330729,-1.88988 0.692888,-1.63738 1.386176,-3.27606 2.078868,-4.9137 0.09474,-0.40965 0.189254,-0.81921 0.283483,-1.22842 -0.175347,-4.37558 -0.351224,-8.75751 -0.52723,-13.135873 0.02254,-1.492432 0.04481,-2.984775 0.06682,-4.476766 -0.445106,-2.895213 -0.890635,-5.791152 -1.33635,-8.686307 C 65.726362,78.752178 64.835396,74.987848 63.944235,71.224065 62.185062,67.03679 60.425448,62.849354 58.66566,58.662397 57.841869,57.10311 57.017763,55.543989 56.193417,53.98518 53.83295,51.134221 51.471919,48.283166 49.110775,45.432556 c -0.267002,-0.08935 -0.534273,-0.178443 -0.801809,-0.267269 -0.467733,0.155734 -0.935178,0.31155 -1.403165,0.467723 -0.712938,0.06659 -1.425173,0.133368 -2.138156,0.200451 -0.378518,-0.178517 -0.756999,-0.356624 -1.135896,-0.534541 -0.356201,-0.802314 -0.712454,-1.60388 -1.069078,-2.405425 -0.467384,-1.024641 -0.935178,-2.04933 -1.403165,-3.073598 -0.445132,-0.06707 -0.890632,-0.1339 -1.336347,-0.200454 -0.846508,0.935641 -1.692441,1.870623 -2.53906,2.80633 -0.734944,2.227643 -1.469718,4.454229 -2.204974,6.68174 -0.512075,1.380823 -1.024269,2.761519 -1.536801,4.142676 -0.04597,-0.01916 -0.09219,-0.03803 -0.138679,-0.05664 -1.358079,-0.292468 -2.708563,-0.582978 -4.063243,-0.87407 -0.964504,-0.334981 -1.92899,-0.6696 -2.893881,-1.004001 -1.693024,-0.862661 -3.385772,-1.724779 -5.079055,-2.586773 -0.456484,-0.437327 -0.913178,-0.874334 -1.370163,-1.311106 -0.0037,-0.330999 -0.0076,-0.661723 -0.01181,-0.992187 0.09862,-0.196972 0.197127,-0.393989 0.295293,-0.590587 0.275428,-0.09854 0.55148,-0.197128 0.826823,-0.295294 0.326679,-0.141843 0.653849,-0.283747 0.980376,-0.425225 0.515541,-0.106466 1.031825,-0.212876 1.54734,-0.318915 0.46065,-0.30719 0.921581,-0.614477 1.381975,-0.921319 0.193062,-0.169453 0.386116,-0.338868 0.578777,-0.507905 0.149662,-0.350171 0.299495,-0.701096 0.448846,-1.051245 0.04747,-0.373965 0.102633,-0.748342 0.153553,-1.122119 -0.04301,-0.70054 -0.08635,-1.401924 -0.129929,-2.102491 -0.263439,-0.480441 -0.527328,-0.960956 -0.791388,-1.441034 -0.763416,-0.484455 -1.527389,-0.96883 -2.291481,-1.452846 -0.484061,-0.122332 -0.968299,-0.244374 -1.452846,-0.366165 -0.752039,0.07851 -1.503765,0.157226 -2.256045,0.236234 -0.578734,0.417245 -1.157287,0.834435 -1.736328,1.252048 -0.440936,0.693049 -0.873805,1.385646 -1.311105,2.078868 0.05147,0.5315 0.102633,1.062794 0.153553,1.594588 0.299629,0.783598 0.598727,1.566762 0.897693,2.350537 0.06721,0.476232 0.134132,0.952553 0.2008,1.429224 0.0239,0.228203 0.04751,0.456456 0.07087,0.685083 -0.362335,0.161327 -0.72419,0.322588 -1.086682,0.48428 -0.657835,-0.07514 -1.314777,-0.149879 -1.972563,-0.224422 -0.330581,-0.169627 -0.661194,-0.338868 -0.992188,-0.507905 -0.925275,-0.39805 -2.775762,-1.192988 -2.775762,-1.192988 0,0 -3.0235451,-1.709033 -4.5357145,-2.563151 -0.802981,-0.445201 -1.606134,-0.890085 -2.4095982,-1.334727 -0.015486,-0.189275 -0.031233,-0.378243 -0.047247,-0.566965 0.094638,-0.189013 0.1892528,-0.378241 0.283482,-0.566965 0.5662766,-0.849281 1.1656912,-1.701158 1.7481399,-2.55134 0.8661511,-1.558859 1.7641535,-3.118567 2.6458333,-4.677455 0.3939106,-1.133965 0.7877151,-2.268122 1.1811756,-3.401785 0.047498,-0.598559 0.094759,-1.19719 0.141741,-1.795386 C 9.528512,26.195715 9.3236776,25.833316 9.1186761,25.471353 8.5206222,25.439598 7.922016,25.408093 7.323289,25.376859 7.0399531,25.471128 6.7565894,25.565583 6.4728428,25.660341 5.9370414,25.88081 5.4021749,26.101049 4.8664439,26.3218 4.3624396,26.36881 3.8587719,26.416029 3.3545391,26.46354 3.1026756,26.416002 2.8508351,26.368782 2.5985863,26.3218 2.044013,25.825893 1.4900889,25.331068 0.93544333,24.836098 0.72968182,24.518442 0.5236674,24.201069 0.31738257,23.883951 0.3065132,23.627605 0.29537469,23.360283 0.28397387,23.098846 -0.51679535,23.042954 -1.3193787,22.98722 -2.1214518,22.931803 -4.5106386,22.825712 -6.8986301,22.71995 -9.287616,22.61442 c -0.049854,-2.64e-4 -0.1110977,-2.64e-4 -0.1670433,0 -0.00533,0.134005 -0.010872,0.267005 -0.016703,0.400905 0.100697,0.345669 0.2007169,0.690181 0.3006783,1.035669 0.1061117,0.356274 0.211853,0.712454 0.3173825,1.069078 0.011406,0.551243 0.022537,1.102222 0.033409,1.653729 -0.00878,1.046485 -0.017809,2.092251 -0.027111,3.138773 -0.2970207,0.317746 -0.5941541,0.635598 -0.8916281,0.953794 -0.4845784,0.0889 -0.9685874,0.177914 -1.4532784,0.267269 -0.512323,-0.100555 -1.024269,-0.200718 -1.5368,-0.300678 -0.489925,-0.278783 -0.979724,-0.557077 -1.469982,-0.835218 -1.163677,-0.657418 -2.327208,-1.314339 -3.491208,-1.971111 -0.383965,-0.228577 -0.768136,-0.456851 -1.1526,-0.68488 -1.10245,0.0053 -2.204709,0.01087 -3.30746,0.01669 -0.840724,0.456433 -1.681307,0.912908 -2.522357,1.369759 -0.350658,0.361797 -1.052374,1.085781 -1.052374,1.085781 0,0 -1.592215,1.837214 -2.388722,2.756218 -0.183539,0.734951 -0.367231,1.469718 -0.551241,2.204974 -0.01087,1.303226 -0.02201,2.605611 -0.03341,3.908816 0.267589,0.623491 0.534805,1.246992 0.801812,1.870887 0.774387,0.952077 1.548198,1.904029 2.321902,2.856442 0.335575,0.114612 0.670865,0.229484 1.0059,0.344622 0.645674,0.456243 1.291683,0.944674 1.937128,1.41741 1.779775,0.188709 3.559541,0.377712 5.338914,0.566965 1.008068,-0.551407 2.016137,-1.102696 3.023809,-1.653645 0.582796,-0.787469 1.165691,-1.575168 1.74814,-2.362354 0.629987,-1.448625 1.260185,-2.898082 1.889881,-4.346726 l 1.1811759,-1.181174 c 0.4252021,-0.0947 0.8507111,-0.189253 1.2756697,-0.283482 0.2678036,0.01548 0.5357308,0.03123 0.8031994,0.04725 0.3306873,0.157081 0.6617229,0.314717 0.9921875,0.47247 0.1104698,0.330353 0.2207506,0.661193 0.3307291,0.992187 0.457205,0.409408 0.9137071,0.818684 1.3701638,1.228423 0.4727189,1.30686 0.9452049,2.614071 1.4174105,3.921504 0.2050251,0.755774 0.4097388,1.511641 0.6142114,2.267857 0.8824187,3.229049 1.76415348,6.456828 2.6458333229166,9.685639 C 0.11051508,56.732984 0.22075202,58.937723 0.33073049,61.142847 c 0.12627096,0.472261 0.25224872,0.944677 0.37797617,1.41741 -0.77173266,0.03125 -1.54313816,0.06273 -2.31510416,0.0945 -2.410192,0.3936 -4.8189317,0.787186 -7.2287945,1.181174 -3.795719,0.992048 -7.590757,1.984111 -11.386533,2.976563 -1.82677,1.055007 -3.653505,2.110102 -5.480654,3.165552 -0.141501,0.425032 -0.283218,0.881679 -0.425224,1.322916 0.205149,0.630148 0.409739,1.259655 0.614212,1.889882 0.39409,0.330549 0.787715,0.661194 1.181175,0.992187 0.630185,0.251704 1.260186,0.503704 1.889881,0.755952 0.834781,0.440611 1.66966,0.881679 2.504092,1.322917 0.425439,0.204448 0.850712,0.40921 1.27567,0.614211 0.519846,0.708256 1.039699,1.417146 1.559152,2.126115 0.268015,1.133737 0.535731,2.236095 0.803199,3.354539 2.65e-4,0.519541 2.65e-4,1.039169 0,1.559152 -0.456689,1.149998 -0.913178,2.299092 -1.370163,3.449032 -0.613336,0.744574 -1.226595,1.488998 -1.840289,2.233893 -1.091507,0.556762 -2.182436,1.113358 -3.274052,1.670433 -0.757219,0.177967 -1.514262,0.356095 -2.271791,0.534541 -0.890998,-0.04483 -1.78153,-0.08936 -2.672694,-0.133636 -0.779489,-0.356725 -1.558806,-0.712984 -2.338607,-1.069078 -0.623459,-0.423506 -1.246995,-0.846619 -1.870888,-1.269529 -0.556598,-0.802148 -1.113358,-1.603883 -1.670433,-2.405428 -0.177904,-0.712933 -0.356095,-1.425702 -0.534541,-2.138156 -0.02201,-0.824129 -0.04428,-1.648426 -0.06682,-2.472243 1.002212,-1.959628 2.004787,-3.920217 3.006783,-5.879928 0.289761,-0.779677 0.579347,-1.559338 0.868627,-2.338609 -0.28916,-0.534586 -0.623366,-1.069343 -0.935445,-1.603616 -0.311502,-0.289764 -0.623364,-0.57935 -0.935442,-0.868627 -5.011201,1.068848 -10.02234,2.137891 -15.033908,3.207234 -2.115749,1.157975 -4.231502,2.316072 -6.347653,3.474503 -1.536764,0.890767 -3.073334,1.781532 -4.610399,2.672696 -0.26706,-0.490357 -0.534273,-0.980252 -0.801807,-1.469982 -0.823661,-1.870798 -1.647899,-3.742039 -2.472245,-5.612659 -1.091012,-2.561429 -2.182434,-5.122932 -3.27405,-7.684 -0.667877,-2.09377 -1.336084,-4.232032 -2.004523,-6.347651 2.65e-4,-1.247426 2.65e-4,-2.49478 0,-3.741774 0.02254,-0.601494 0.04481,-1.202976 0.06682,-1.80407 0.156102,-0.378722 0.312079,-0.757528 0.467723,-1.135896 0.667874,-0.178292 1.336611,-0.356624 2.00452,-0.534537 0.378719,0.26688 0.757529,0.534273 1.135896,0.801809 1.470046,0.623279 2.94023,1.246992 4.409948,1.870884 1.1806,0.467419 2.361144,0.935181 3.541321,1.403168 1.202835,-0.245234 2.405689,-0.49026 3.608139,-0.734991 0.890936,-0.824138 1.782061,-1.648429 2.672693,-2.472243 0.668235,-2.204562 1.336612,-4.410213 2.004523,-6.614922 -0.04428,-0.534728 -0.08882,-1.069343 -0.133635,-1.603619 -0.645345,-1.269222 -1.291537,-2.539322 -1.937705,-3.808589 -1.113267,-0.824278 -2.22698,-1.648426 -3.340868,-2.472243 -1.336138,-0.289819 -2.672432,-0.579348 -4.009043,-0.868627 -1.29173,0.222493 -2.583341,0.445185 -3.875408,0.668176 -0.512122,0.534397 -1.024268,1.068813 -1.5368,1.603616 -0.579112,0.913368 -1.157904,1.826077 -1.737252,2.739511 -0.333936,1.002337 -0.667908,2.004259 -1.00226,3.006783 -0.333928,0.556723 -0.667911,1.113359 -1.002263,1.670434 -0.38972,0.194728 -0.779269,0.389504 -1.169302,0.584653 -0.584864,-0.095 -1.16904,-0.18958 -1.753957,-0.283975 -0.278244,-0.256492 -0.835218,-0.768398 -0.835218,-0.768398 0,0 -1.54767,-2.739779 -2.321904,-4.10927 -0.400614,-1.169495 -0.801542,-2.338872 -1.202711,-3.507912 -0.111083,-0.545867 -0.222462,-1.091615 -0.334087,-1.637027 -0.06653,-0.03366 -0.133371,-0.06708 -0.200454,-0.100224 -0.423582,0.256272 -0.846087,0.512 -1.269529,0.7684 -4.045156,2.964148 -8.08464,5.924209 -12.127354,8.886711 -1.503238,1.514375 -3.006518,3.028789 -4.510175,4.543581 -0.300466,0.267052 -0.601091,0.534276 -0.902033,0.801809 0.08944,0.08891 0.178443,0.177914 0.267269,0.267269 0.668438,0.378368 1.336611,0.757 2.00452,1.135896 0.50133,0.378317 1.024798,0.756999 1.536801,1.135896 0.178429,0.523092 0.356624,1.046541 0.53454,1.570207 -0.255947,0.311645 -0.512003,0.623366 -0.7684,0.935445 -0.701966,0.08891 -1.4029,0.177914 -2.104747,0.267269 -0.512218,0.166849 -1.024271,0.333822 -1.536801,0.501131 -0.200311,0.334029 -0.40064,0.667909 -0.601355,1.00226 -0.144643,0.334135 -0.28928,0.667909 -0.434314,1.00226 0.0114,0.389877 0.02254,0.779272 0.03341,1.169305 0.100555,0.724067 0.200715,1.447446 0.300678,2.171565 0.356732,0.345065 0.712983,0.690182 1.069078,1.035669 0.245258,0.200184 0.490257,0.40064 0.734991,0.601356 0.679495,0.133355 1.358884,0.267004 2.037929,0.400905 0.668237,-0.122727 1.336612,-0.245261 2.004523,-0.367496 0.556824,-0.579086 1.113886,-1.158433 1.670434,-1.737252 0.07818,-0.378719 0.15617,-0.757528 0.23386,-1.135896 -0.155517,-0.745788 -0.31155,-1.492519 -0.467723,-2.238382 -0.09993,-0.46786 -0.200186,-0.935707 -0.300677,-1.403165 2.64e-4,-0.323078 2.64e-4,-0.646166 0,-0.968851 0.167171,-0.144918 0.334351,-0.289807 0.501131,-0.434314 0.23373,-2.65e-4 0.467987,-2.65e-4 0.701582,0 0.333973,-0.01138 0.668438,-0.02254 1.002261,-0.03341 0.590002,0.33355 1.180705,0.667909 1.77066,1.00226 1.291878,0.745755 2.583871,1.491991 3.875408,2.238383 1.225171,0.97966 2.450237,1.959713 3.674956,2.939965 0.04481,0.07769 0.111628,0.155644 0.167045,0.23386 -0.07774,0.122315 -0.155644,0.244735 -0.233865,0.367496 -0.859383,0.982189 -1.714715,1.959713 -2.572467,2.939965 -0.87975,1.336466 -1.759262,2.672432 -2.639285,4.009044 -0.32276,0.779449 -0.645639,1.558808 -0.968854,2.338607 2.65e-4,0.612481 2.65e-4,1.224722 0,1.837478 0.457047,0.211415 0.913434,0.422913 1.369756,0.634767 0.556932,-0.200665 1.113888,-0.401169 1.670433,-0.601358 0.534498,-0.122693 1.069343,-0.245261 1.603619,-0.367496 0.400936,0.06651 0.802071,0.133372 1.202711,0.200454 0.445476,0.367033 0.891164,0.734727 1.33635,1.102487 0.31206,0.679003 0.623892,1.358355 0.935442,2.037929 -0.15567,0.846236 -0.31155,1.692442 -0.467723,2.539061 -0.489905,0.501044 -0.979723,1.001996 -1.469982,1.503392 -0.489987,0.144581 -0.979723,0.289276 -1.46998,0.43431 -0.590333,0.05545 -1.180177,0.111099 -1.770661,0.167045 -0.37855,-0.17853 -0.756996,-0.356624 -1.135893,-0.53454 -0.434181,-0.490405 -0.868362,-0.980252 -1.302941,-1.46998 -0.04428,-0.612738 -0.08882,-1.225251 -0.133633,-1.837479 -0.15558,-0.456668 -0.311552,-0.913436 -0.467722,-1.369755 -0.289179,-0.20065 -0.578819,-0.40117 -0.868627,-0.601359 -0.333886,0.04429 -0.667909,0.08883 -1.00226,0.133636 -0.244949,0.200364 -0.489731,0.40064 -0.734992,0.601356 -0.356513,0.557202 -0.712454,1.113358 -1.069078,1.670436 -0.322866,0.579138 -0.645636,1.157901 -0.968854,1.737251 -0.345146,0.623703 -0.690181,1.246992 -1.035666,1.870885 -0.657106,1.815859 -1.313815,3.630147 -1.971117,5.445617 -0.367292,-0.133921 -0.734727,-0.267533 -1.102484,-0.400904 -0.779587,-0.390189 -1.558806,-0.779799 -2.338607,-1.169303 -2.193872,-1.136314 -4.387411,-2.272056 -6.581513,-3.407687 -0.356111,-0.28982 -0.712454,-0.579348 -1.069078,-0.868625 -0.02201,-0.367792 -0.04428,-0.735256 -0.06682,-1.102487 0.08929,-0.211712 0.178445,-0.423442 0.267271,-0.634767 0.333846,-0.133697 0.668438,-0.267533 1.002261,-0.400902 0.601043,-0.06702 1.202975,-0.1339 1.804069,-0.200454 0.846209,-0.534545 1.692971,-1.069342 2.539061,-1.603615 0.05593,-0.568008 0.111625,-1.136161 0.167042,-1.703846 -0.03313,-0.556794 -0.06655,-1.113887 -0.100225,-1.670433 -0.278018,-0.501171 -0.556548,-1.002525 -0.835218,-1.503392 -0.311494,-0.312023 -0.623363,-0.623893 -0.935445,-0.935442 -0.456319,-0.289806 -0.912905,-0.57935 -1.369755,-0.868627 -0.545492,0.111114 -1.091087,0.222462 -1.637025,0.334087 -0.757423,0.222586 -1.514267,0.445185 -2.271797,0.668173 -0.31168,0.501076 -0.62336,1.001998 -0.93544,1.503392 -0.10002,0.256026 -0.20019,0.512003 -0.30068,0.7684 0.0449,0.267338 0.0894,0.534276 0.13364,0.801809 0.11171,0.791041 0.22299,1.581079 0.33408,2.372016 0.11166,0.345056 0.22299,0.690182 0.33409,1.035669 -0.10001,0.244848 -0.20019,0.489731 -0.30068,0.734992 -0.2785,0.06664 -0.55654,0.133371 -0.83521,0.200453 -0.25616,-2.64e-4 -0.53428,-2.64e-4 -0.80181,0 -1.1479,-0.546481 -2.2938,-1.091615 -3.4411,-1.637027 -0.76821,-0.557131 -1.53653,-1.113888 -2.3052,-1.670434 -0.28929,-0.256413 -0.57882,-0.512532 -0.86862,-0.7684 -0.18906,0.26702 -0.37837,0.534276 -0.56795,0.801809 -0.64636,1.85043 -1.29154,3.696965 -1.93771,5.545841 -1.04672,3.140694 -2.09334,6.280571 -3.14041,9.421252 -0.17793,1.558964 -0.3561,3.117879 -0.53454,4.677217 -0.18909,1.603652 -0.37837,3.206966 -0.56795,4.810846 -0.0443,2.51698 -0.0888,5.03331 -0.13363,7.55037 0.22301,1.58125 0.44571,3.14015 0.66817,4.71062 0.12278,0.0777 0.24526,0.15564 0.3675,0.23386 0.14495,-0.26738 0.2898,-0.5348 0.43431,-0.80181 0.45631,0.2222 0.91343,0.44519 1.36975,0.66818 0.24521,0.46734 0.49026,0.93518 0.735,1.40316 0.27873,0.94652 0.55707,1.8929 0.83521,2.83974 0.23417,0.84624 0.46799,1.69244 0.70159,2.53906 0.43466,0.51211 0.86889,1.02427 1.30294,1.5368 0.71301,0.3227 1.4257,0.64564 2.13815,0.96885 1.15824,0.0888 2.3166,0.17792 3.47451,0.26727 0.8687,-0.51242 1.73751,-1.0248 2.60587,-1.5368 0.6682,-0.61253 1.33662,-1.22525 2.00452,-1.83747 0.278561,-0.75722 0.55708,-1.5148 0.835223,-2.2718 0.0114,-1.34718 0.02254,-2.69523 0.03341,-4.04245 -0.411694,-0.74624 -0.823823,-1.49252 -1.236123,-2.23838 -0.64556,-0.65722 -1.29154,-1.31434 -1.93771,-1.97111 -1.0354,-0.16731 -2.07107,-0.33435 -3.107,-0.50113 -1.10246,0.44528 -2.20471,0.89063 -3.30746,1.33635 -0.57899,0.0332 -1.18018,0.0666 -1.77067,0.10022 -0.47881,-0.0783 -0.95745,-0.15617 -1.43657,-0.23386 -0.16685,-0.056 -0.33382,-0.11163 -0.50113,-0.16704 -0.0332,-0.73596 -0.0666,-1.47025 -0.10022,-2.20498 0.11158,-0.63481 0.22298,-1.26979 0.33408,-1.90429 1.39163,-2.41568 2.78432,-4.83339 4.17609,-7.249686 1.22509,-1.726155 2.45048,-3.452841 3.67495,-5.178346 0.5301,-0.627107 1.06012,-1.254175 1.58982,-1.880903 0.4197,-0.0888 0.83912,-0.177335 1.25828,-0.265605 0.23395,0.280721 0.46798,0.562119 0.70157,0.843575 0.78116,0.700762 1.577645,1.401656 2.366069,2.102881 1.094797,0.747798 2.189376,1.495891 3.283668,2.244234 0.945156,0.637537 1.890145,1.275405 2.834821,1.913504 1.039634,0.684775 3.141927,2.055246 3.141927,2.055246 0,0 2.14213,0.86593 3.212798,1.29929 0.834856,0.008 1.669659,0.0155 2.504092,0.0236 0.236426,-0.29941 0.472735,-0.59873 0.708706,-0.8977 0.1104,-0.35427 0.22075,-0.70897 0.330729,-1.06305 -0.07841,-0.59033 -0.157226,-1.181445 -0.236235,-1.771768 -0.165037,-0.598499 -0.330465,-1.19719 -0.496094,-1.795387 -0.172923,-0.700887 -0.346214,-1.401927 -0.519717,-2.102493 0.01601,-0.590694 0.03176,-1.18144 0.04725,-1.771763 0.260003,-0.456776 0.519981,-0.913707 0.779576,-1.370164 0.346504,-0.362243 1.039434,-1.086681 1.039434,-1.086681 0,0 1.480671,-1.086947 2.22061,-1.630023 0.519773,0.01548 1.039699,0.03123 1.559152,0.04725 0.873903,0.05483 1.748404,0.109979 2.62221,0.165365 0.803237,0.401221 1.606663,0.802935 2.409598,1.204799 0.51204,0.574498 1.535528,1.724516 1.535528,1.724516 0,0 0.787715,2.377836 1.181176,3.567151 -0.291131,1.346456 -0.582449,2.692815 -0.87407,4.03962 -0.590458,0.401428 -1.180911,0.802928 -1.771763,1.204798 -0.756077,0.20458 -1.511641,0.40921 -2.267858,0.61421 -0.448768,0.11002 -0.897428,0.22022 -1.34654,0.33073 -0.409493,0.0864 -0.818684,0.17297 -1.228422,0.25986 -0.693211,0.44104 -1.385649,0.88168 -2.078869,1.32291 0.05541,0.26759 0.110507,0.53521 0.165364,0.8032 0.126352,0.56713 0.252249,1.13367 0.377976,1.7009 0.787988,0.68505 1.575166,1.3699 2.362351,2.05524 1.756236,1.03127 3.512294,2.06286 5.268044,3.09468 2.859651,1.12097 5.719302,2.2423 8.578556,3.36385 0.648806,0.23285 1.29741,0.466 1.945718,0.6994 0.01798,0.0548 0.0357,0.10997 0.05315,0.16536 -0.260361,0.64735 -0.519453,1.29115 -0.779576,1.93713 -1.676526,3.68913 -3.351659,7.37488 -5.027886,11.06271 -0.857299,1.36961 -1.714715,2.73925 -2.572469,4.10927 -0.556673,0.42301 -1.113358,0.84609 -1.670435,1.26953 -0.434278,0.0777 -0.868361,0.15565 -1.302938,0.23386 -0.434351,-0.1117 -0.868362,-0.22299 -1.302939,-0.33408 -0.211414,-0.61302 -0.422913,-1.22525 -0.634766,-1.83748 -0.17787,-1.13587 -0.356094,-2.27206 -0.534539,-3.40769 -0.356026,-0.70171 -0.712454,-1.40343 -1.069078,-2.10474 -0.467388,-0.49019 -0.935178,-0.98026 -1.403165,-1.46999 -0.823806,-0.22298 -1.647897,-0.44571 -2.472243,-0.66817 -1.737367,0.423 -3.474239,0.84609 -5.211756,1.26953 -0.556646,0.75713 -1.113358,1.51426 -1.670434,2.27179 -0.423079,1.1695 -0.846089,2.33834 -1.26953,3.50791 0.267606,1.03569 0.534803,2.07108 0.801808,3.10701 0.40124,0.63461 0.802073,1.26927 1.202713,1.9043 0.958085,0.61229 1.915696,1.22472 2.873147,1.83747 0.86883,-0.0114 1.737517,-0.0225 2.605878,-0.0334 0.902021,-0.28972 1.804334,-0.57935 2.706104,-0.86863 0.545748,-0.21178 1.091615,-0.42344 1.637026,-0.63477 0.690307,0.25572 1.381157,0.51201 2.071339,0.7684 0.05593,0.86818 0.111627,1.73699 0.167043,2.60588 -0.311638,0.47873 -0.623364,0.95745 -0.935443,1.43658 -0.802058,1.91639 -1.603353,3.83059 -2.405426,5.74629 -0.656882,0.62347 -1.31381,1.24699 -1.971112,1.87089 -1.024692,1.53717 -2.048802,3.07333 -3.0736,4.6104 -0.746011,0.92422 -1.49199,1.84835 -2.238382,2.77292 -0.144552,-0.056 -0.289278,-0.11163 -0.434313,-0.16705 -0.378739,-0.32353 -0.756999,-0.64616 -1.135896,-0.96885 -1.904144,-1.60397 -3.808326,-3.2075 -5.712886,-4.81085 -2.705874,-1.50367 -5.411943,-3.00705 -8.118311,-4.51017 -0.85725,-0.14504 -1.71472,-0.28981 -2.57247,-0.43432 -0.47871,0.0889 -0.95745,0.17792 -1.43657,0.26727 0.0448,0.3229 0.0893,0.64564 0.13363,0.96886 0.46831,0.47892 0.93571,0.95745 1.40317,1.43657 0.75753,1.10223 1.51479,2.20471 2.27179,3.30746 1.002573,1.45866 2.004783,2.91743 3.006779,4.37654 0.724148,1.59228 1.447975,3.1847 2.171565,4.77744 0.412336,2.22715 0.824346,4.45423 1.236122,6.68174 0.412343,1.90421 0.824345,3.80833 1.236121,5.71289 0.1896,2.22721 0.378897,4.45422 0.567948,6.68173 0.345525,4.45471 0.690711,8.90872 1.035669,13.36348 0.0114,1.29161 0.02254,2.60561 0.03341,3.90882 -0.122259,2.37223 -0.244732,4.74377 -0.367496,7.11605 -0.623437,2.70615 -1.246993,5.41194 -1.870886,8.11831 -1.224861,4.64407 -2.449706,9.28735 -3.674956,13.93143 -0.61227,2.41646 -1.224721,4.83285 -1.837478,7.24968 -0.434105,1.25829 -0.868362,2.51652 -1.302939,3.77518 -0.790609,2.70653 -1.581079,5.41195 -2.372019,8.11832 -0.77936,2.87321 -1.55881,5.74603 -2.33861,8.61944 -0.23362,0.67912 -0.46745,1.35835 -0.70158,2.03793 0.003,0.13684 0.006,0.27383 0.008,0.41114 z"
       sodipodi:nodetypes="ccccccccccccccccccccccccccccccccccccccccccccccccccccccccccccccccccccccccccccccccccccccccccccccccccccccccccccccccccccccccccccccccccccccccccccccccccccccccccccccccccccccccccccccccccccccccccccccccccccccccccccccccccccccccccccccccccccccccccccccccccccccccccccccccccccccccccccccccccccccccccccccccccccccccccccccccccccccccccccccccccccccccccccccccccccccccccc" />
  </g>
</svg>
