<?xml version="1.0" encoding="UTF-8" standalone="no"?>
<!-- Created with Inkscape (http://www.inkscape.org/) -->

<svg
   xmlns:dc="http://purl.org/dc/elements/1.1/"
   xmlns:cc="http://creativecommons.org/ns#"
   xmlns:rdf="http://www.w3.org/1999/02/22-rdf-syntax-ns#"
   xmlns:svg="http://www.w3.org/2000/svg"
   xmlns="http://www.w3.org/2000/svg"
   xmlns:sodipodi="http://sodipodi.sourceforge.net/DTD/sodipodi-0.dtd"
   xmlns:inkscape="http://www.inkscape.org/namespaces/inkscape"
   width="129.97789mm"
   height="107.30071mm"
   viewBox="0 0 129.97789 107.30071"
   version="1.1"
   id="svg8"
   inkscape:version="0.92.4 (f8dce91, 2019-08-02)"
   sodipodi:docname="brain-svgrepo-com.svg">
  <defs
     id="defs2">
    <inkscape:path-effect
       effect="bspline"
       id="path-effect828"
       is_visible="true"
       weight="33.333333"
       steps="2"
       helper_size="0"
       apply_no_weight="true"
       apply_with_weight="true"
       only_selected="false" />
  </defs>
  <sodipodi:namedview
     id="base"
     pagecolor="#ffffff"
     bordercolor="#666666"
     borderopacity="1.0"
     inkscape:pageopacity="0.0"
     inkscape:pageshadow="2"
     inkscape:zoom="0.7"
     inkscape:cx="376.60709"
     inkscape:cy="236.47258"
     inkscape:document-units="mm"
     inkscape:current-layer="g834"
     showgrid="false"
     inkscape:window-width="1360"
     inkscape:window-height="700"
     inkscape:window-x="0"
     inkscape:window-y="36"
     inkscape:window-maximized="1" />
  <metadata
     id="metadata5">
    <rdf:RDF>
      <cc:Work
         rdf:about="">
        <dc:format>image/svg+xml</dc:format>
        <dc:type
           rdf:resource="http://purl.org/dc/dcmitype/StillImage" />
        <dc:title></dc:title>
      </cc:Work>
    </rdf:RDF>
  </metadata>
  <g
     inkscape:label="Camada 1"
     inkscape:groupmode="layer"
     id="layer1"
     transform="translate(-61.227522,-18.756753)">
    <g
       id="g891"
       transform="matrix(0.26458333,0,0,0.26458333,58.385121,-13.446298)">
      <g
         id="g834">
	<g
   id="g1056"
   transform="translate(112.06514,93.240715)">
  <g
     transform="translate(-49.883208,-51.712394)"
     style="fill:#5d5d5a;fill-opacity:1"
     id="g832">
		
	<g
   style="fill:#5d5d5a;fill-opacity:1"
   transform="translate(-51.439,37.329)"
   id="g1015">
  <g
     style="fill:#5d5d5a;fill-opacity:1"
     id="g951">
	<g
   style="fill:#5d5d5a;fill-opacity:1"
   id="g949">
		<path
   style="fill:#5d5d5a;fill-opacity:1"
   inkscape:connector-curvature="0"
   d="m 109.041,134.176 -40.443,-24.312 59.576,-0.8 V 56.226 L 41.051,90.077 23.279,120.695 82.091,146.42 c 0,0 -71.067,0 -74.734,0 C 3.672,146.419 0,207.677 0,207.677 h 71.049 z"
   id="path933" />

		<polygon
   style="fill:#5d5d5a;fill-opacity:1"
   points="53.662,222.98 1.6,222.98 78.178,286.428 121.056,269.273 "
   id="polygon935" />

		<polygon
   style="fill:#5d5d5a;fill-opacity:1"
   points="222.968,314.266 184.995,302.005 123.736,276.28 99.232,289.756 99.232,331.408 137.211,357.133 254.818,357.133 276.864,308.136 251.758,276.748 322.195,279.959 290.807,309.816 327.099,311.195 373.656,293.434 406.562,321.763 479.322,321.33 485.534,252.833 406.737,255.448 400.594,275.043 428.784,288.529 388.357,283.625 403.059,245.651 491.255,239.533 454.497,177.054 385.881,227.271 320.968,207.677 256.043,245.651 182.542,243.199 178.858,276.28 227.861,295.268 "
   id="polygon937" />

		<path
   style="fill:#5d5d5a;fill-opacity:1"
   inkscape:connector-curvature="0"
   d="m 219.167,379.18 66.326,69.221 36.759,-17.142 -56.528,-63.103 c 0,0 -37.985,11.024 -46.557,11.024 z"
   id="path939" />

		<polygon
   style="fill:#5d5d5a;fill-opacity:1"
   points="394.616,371.215 394.616,323.596 288.04,323.596 275.031,356.678 311.779,389.746 "
   id="polygon941" />

		<polygon
   style="fill:#5d5d5a;fill-opacity:1"
   points="295.244,45.879 249.3,115.183 302.904,131.963 300.148,186.845 321.003,194.617 352.847,146.834 356.502,55.77 "
   id="polygon943" />

		<polygon
   style="fill:#5d5d5a;fill-opacity:1"
   points="373.656,101.41 376.096,143.36 356.502,168.466 356.502,201.541 390.809,201.541 452.043,150.086 390.809,85.173 "
   id="polygon945" />

		<polygon
   style="fill:#5d5d5a;fill-opacity:1"
   points="281.768,181.953 281.768,144.002 222.968,125.587 242.568,97.737 266.459,60.05 229.233,43.515 150.232,42.855 149.297,118.546 212.552,156.222 193.565,164.799 130.013,143.36 118.832,164.799 135.057,177.054 129.855,195.417 99.232,185.018 77.792,222.98 128.173,259.127 165.383,244.507 179.291,201.541 193.565,207.677 193.565,221.153 269.519,216.249 "
   id="polygon947" />

	</g>

</g>
  <g
     style="fill:#5d5d5a;fill-opacity:1"
     id="g953">
</g>
  <g
     style="fill:#5d5d5a;fill-opacity:1"
     id="g955">
</g>
  <g
     style="fill:#5d5d5a;fill-opacity:1"
     id="g957">
</g>
  <g
     style="fill:#5d5d5a;fill-opacity:1"
     id="g959">
</g>
  <g
     style="fill:#5d5d5a;fill-opacity:1"
     id="g961">
</g>
  <g
     style="fill:#5d5d5a;fill-opacity:1"
     id="g963">
</g>
  <g
     style="fill:#5d5d5a;fill-opacity:1"
     id="g965">
</g>
  <g
     style="fill:#5d5d5a;fill-opacity:1"
     id="g967">
</g>
  <g
     style="fill:#5d5d5a;fill-opacity:1"
     id="g969">
</g>
  <g
     style="fill:#5d5d5a;fill-opacity:1"
     id="g971">
</g>
  <g
     style="fill:#5d5d5a;fill-opacity:1"
     id="g973">
</g>
  <g
     style="fill:#5d5d5a;fill-opacity:1"
     id="g975">
</g>
  <g
     style="fill:#5d5d5a;fill-opacity:1"
     id="g977">
</g>
  <g
     style="fill:#5d5d5a;fill-opacity:1"
     id="g979">
</g>
  <g
     style="fill:#5d5d5a;fill-opacity:1"
     id="g981">
</g>
</g>
</g>
</g>

</g>
      <g
         id="g836">
</g>
      <g
         id="g838">
</g>
      <g
         id="g840">
</g>
      <g
         id="g842">
</g>
      <g
         id="g844">
</g>
      <g
         id="g846">
</g>
      <g
         id="g848">
</g>
      <g
         id="g850">
</g>
      <g
         id="g852">
</g>
      <g
         id="g854">
</g>
      <g
         id="g856">
</g>
      <g
         id="g858">
</g>
      <g
         id="g860">
</g>
      <g
         id="g862">
</g>
      <g
         id="g864">
</g>
    </g>
  </g>
</svg>
