<?xml version="1.0" encoding="UTF-8" standalone="no"?>
<!-- Created with Inkscape (http://www.inkscape.org/) -->

<svg
   xmlns:dc="http://purl.org/dc/elements/1.1/"
   xmlns:cc="http://creativecommons.org/ns#"
   xmlns:rdf="http://www.w3.org/1999/02/22-rdf-syntax-ns#"
   xmlns:svg="http://www.w3.org/2000/svg"
   xmlns="http://www.w3.org/2000/svg"
   xmlns:sodipodi="http://sodipodi.sourceforge.net/DTD/sodipodi-0.dtd"
   xmlns:inkscape="http://www.inkscape.org/namespaces/inkscape"
   width="57.679165mm"
   height="61.118752mm"
   viewBox="0 0 57.679165 61.118752"
   version="1.1"
   id="svg8"
   inkscape:version="0.92.4 (f8dce91, 2019-08-02)"
   sodipodi:docname="cookie.svg">
  <defs
     id="defs2">
    <inkscape:path-effect
       effect="bspline"
       id="path-effect860"
       is_visible="true"
       weight="33.333333"
       steps="2"
       helper_size="0"
       apply_no_weight="true"
       apply_with_weight="true"
       only_selected="false" />
    <inkscape:path-effect
       effect="bspline"
       id="path-effect856"
       is_visible="true"
       weight="33.333333"
       steps="2"
       helper_size="0"
       apply_no_weight="true"
       apply_with_weight="true"
       only_selected="false" />
    <inkscape:path-effect
       effect="bspline"
       id="path-effect852"
       is_visible="true"
       weight="33.333333"
       steps="2"
       helper_size="0"
       apply_no_weight="true"
       apply_with_weight="true"
       only_selected="false" />
    <inkscape:path-effect
       effect="bspline"
       id="path-effect848"
       is_visible="true"
       weight="33.333333"
       steps="2"
       helper_size="0"
       apply_no_weight="true"
       apply_with_weight="true"
       only_selected="false" />
    <inkscape:path-effect
       effect="bspline"
       id="path-effect844"
       is_visible="true"
       weight="33.333333"
       steps="2"
       helper_size="0"
       apply_no_weight="true"
       apply_with_weight="true"
       only_selected="false" />
    <inkscape:path-effect
       effect="bspline"
       id="path-effect840"
       is_visible="true"
       weight="33.333333"
       steps="2"
       helper_size="0"
       apply_no_weight="true"
       apply_with_weight="true"
       only_selected="false" />
    <inkscape:path-effect
       effect="bspline"
       id="path-effect836"
       is_visible="true"
       weight="33.333333"
       steps="2"
       helper_size="0"
       apply_no_weight="true"
       apply_with_weight="true"
       only_selected="false" />
    <inkscape:path-effect
       effect="bspline"
       id="path-effect828"
       is_visible="true"
       weight="33.333333"
       steps="2"
       helper_size="0"
       apply_no_weight="true"
       apply_with_weight="true"
       only_selected="false" />
  </defs>
  <sodipodi:namedview
     id="base"
     pagecolor="#ffffff"
     bordercolor="#666666"
     borderopacity="1.0"
     inkscape:pageopacity="0.0"
     inkscape:pageshadow="2"
     inkscape:zoom="1.4"
     inkscape:cx="85.7618"
     inkscape:cy="115.79171"
     inkscape:document-units="mm"
     inkscape:current-layer="layer1"
     showgrid="false"
     inkscape:window-width="1360"
     inkscape:window-height="700"
     inkscape:window-x="0"
     inkscape:window-y="36"
     inkscape:window-maximized="1" />
  <metadata
     id="metadata5">
    <rdf:RDF>
      <cc:Work
         rdf:about="">
        <dc:format>image/svg+xml</dc:format>
        <dc:type
           rdf:resource="http://purl.org/dc/dcmitype/StillImage" />
        <dc:title></dc:title>
      </cc:Work>
    </rdf:RDF>
  </metadata>
  <g
     inkscape:label="Camada 1"
     inkscape:groupmode="layer"
     id="layer1"
     transform="translate(-11.225894,-119.02991)">
    <path
       style="fill:#d89837;stroke:none;stroke-width:0.26458332px;stroke-linecap:butt;stroke-linejoin:miter;stroke-opacity:1;fill-opacity:1"
       d="m 11.303779,149.96577 c 0.178111,1.00994 0.534374,2.75693 1.015704,4.29201 0.481329,1.53508 1.087595,2.85784 1.847528,4.29896 0.759934,1.44112 1.673294,3.00013 2.976594,4.60268 1.303301,1.60255 2.996234,3.24824 4.764074,4.7759 1.767841,1.52766 3.610479,2.9372 5.236587,3.96877 1.626107,1.03156 3.035674,1.68516 4.736536,2.16548 1.700863,0.48032 3.693277,0.78746 5.827292,0.90555 2.134015,0.1181 4.409751,0.0472 6.667924,-0.17438 2.258173,-0.22161 4.499297,-0.59401 6.644129,-1.2479 2.144833,-0.65388 4.194174,-1.58945 6.003674,-2.72529 1.809499,-1.13585 3.379947,-2.4724 4.632645,-3.8699 1.252698,-1.39749 2.188313,-2.8566 2.978911,-4.14272 0.790598,-1.28613 1.436636,-2.39999 2.010038,-3.77508 0.573402,-1.3751 1.074672,-3.01258 1.414281,-4.488 0.33961,-1.47541 0.517824,-2.78974 0.623596,-4.58797 0.105772,-1.79823 0.139188,-4.08166 -0.02229,-5.95243 -0.16148,-1.87076 -0.517881,-3.32978 -1.347447,-5.20604 -0.829565,-1.87625 -2.132672,-4.17061 -3.480111,-6.09711 -1.347439,-1.9265 -2.739525,-3.48564 -4.654916,-5.17274 -1.915391,-1.68711 -4.354249,-3.50233 -6.987942,-4.93891 -2.633692,-1.43657 -5.462243,-2.49449 -7.466744,-3.04004 -2.004501,-0.54554 -3.207142,-0.57926 -5.657495,-0.37321 -2.450353,0.20605 -6.157918,0.6514 -9.560145,1.65923 -3.402227,1.00783 -6.497858,2.57791 -8.672494,4.26133 -2.174637,1.68341 -3.438132,3.49479 -4.501723,5.10409 -1.063591,1.6093 -1.932075,3.02336 -2.701036,4.87373 -0.768962,1.85036 -1.436109,4.12978 -1.831489,6.10103 -0.395381,1.97124 -0.517862,3.63031 -0.584689,4.78297 -0.06683,1.15267 -0.07796,1.79846 -0.08353,2.25783 -0.0056,0.45937 -0.0056,0.73221 0.172541,1.74216 z"
       id="path826"
       inkscape:connector-curvature="0"
       inkscape:path-effect="#path-effect828"
       inkscape:original-d="m 11.125668,149.22892 c 0.356528,1.74673 0.712791,3.49372 1.06879,5.24098 0.606672,1.32281 1.212938,2.64557 1.81901,3.96875 0.913789,1.55903 1.82715,3.11804 2.740328,4.67746 1.693371,1.64559 3.386301,3.29128 5.079055,4.93731 1.842894,1.40927 3.685532,2.81881 5.527901,4.22861 1.409771,0.6533 2.819337,1.3069 4.228609,1.96075 1.992349,0.30682 3.984764,0.61395 5.976749,0.92132 2.275746,-0.079 4.551727,-0.14201 6.827194,-0.21261 2.240851,-0.37258 4.481975,-0.74498 6.722567,-1.11707 2.049055,-0.93558 4.098396,-1.87115 6.1472,-2.80633 1.570228,-1.33641 3.14068,-2.67296 4.710623,-4.00905 0.93554,-1.45884 1.871152,-2.91795 2.806332,-4.37653 0.646028,-1.11366 1.292066,-2.22752 1.937702,-3.34087 0.501256,-1.63684 1.002525,-3.27432 1.503392,-4.91108 0.178411,-1.31409 0.356624,-2.62842 0.53454,-3.94223 0.03367,-2.28268 0.06708,-4.56611 0.100224,-6.84878 -0.356052,-1.45894 -0.712454,-2.91796 -1.069078,-4.37654 -1.302504,-2.29403 -2.605611,-4.58839 -3.908816,-6.88219 -1.391711,-1.55927 -2.783792,-3.11841 -4.176085,-4.67721 -2.438546,-1.81546 -4.877406,-3.63068 -7.316505,-5.44562 -2.828388,-1.05823 -5.65694,-2.11615 -8.485806,-3.17383 -1.180238,-0.0337 -2.382888,-0.0671 -3.57473,-0.10022 -3.7089,0.44528 -7.416465,0.89063 -11.125094,1.33635 -3.095852,1.57006 -6.19148,3.14015 -9.287616,4.71062 -1.258259,1.79285 -2.516524,3.60788 -3.775182,5.41221 -0.868507,1.41427 -1.736988,2.82834 -2.605878,4.2429 -0.679195,2.28317 -1.336083,4.56559 -2.004522,6.84878 -0.122251,1.65927 -0.244732,3.31834 -0.367495,4.9779 -0.01087,0.64575 -0.02201,1.29154 -0.03341,1.93771 2.65e-4,0.27257 2.65e-4,0.54541 10e-7,0.81851 z"
       sodipodi:nodetypes="ccccccccccccccccccccccccccccccc" />
    <path
       style="fill:#80412f;stroke:#80412f;stroke-width:0.26458332px;stroke-linecap:butt;stroke-linejoin:miter;stroke-opacity:1;fill-opacity:1"
       d="m 27.341333,159.43867 c -0.255863,-0.0237 -0.342478,0.008 -0.772154,0.11819 -0.429676,0.11039 -1.200365,0.29913 -1.881672,0.78739 -0.681308,0.48827 -1.271661,1.27541 -1.602502,2.1024 -0.330841,0.82699 -0.401685,1.69286 -0.236285,2.40965 0.1654,0.71678 0.566869,1.28356 1.118162,1.81516 0.551293,0.5316 1.252056,1.02764 2.161609,1.34261 0.909554,0.31497 2.027816,0.44885 2.941189,0.0905 0.913372,-0.35835 1.622227,-1.20898 2.015828,-2.2915 0.3936,-1.08251 0.472372,-2.398 0.299162,-3.29158 -0.173211,-0.89357 -0.598524,-1.36614 -1.131662,-1.78044 -0.533137,-0.4143 -1.167649,-0.76681 -1.699147,-0.98337 -0.531497,-0.21656 -0.956666,-0.29529 -1.212528,-0.319 z"
       id="path834"
       inkscape:connector-curvature="0"
       inkscape:path-effect="#path-effect836"
       inkscape:original-d="m 27.171764,159.38359 c -0.08636,0.0312 -0.172974,0.0627 -0.259858,0.0945 -0.774276,0.18151 -1.543138,0.37771 -2.315105,0.56696 -0.59056,0.7875 -1.18091,1.57464 -1.771763,2.36235 -0.07063,0.86626 -0.141476,1.73213 -0.212611,2.59859 0.401996,0.56688 0.803464,1.13366 1.204799,1.70089 0.701159,0.49588 1.401926,0.99192 2.102492,1.48828 1.118362,0.13359 2.236624,0.26747 3.354539,0.4016 0.708824,-0.85053 1.417675,-1.70116 2.126116,-2.55134 0.07898,-1.31486 0.157755,-2.63035 0.236235,-3.94512 -0.424868,-0.47264 -0.850182,-0.94521 -1.275669,-1.41741 -0.637551,-0.36248 -1.275406,-0.70897 -1.913505,-1.06306 -0.425018,-0.079 -0.850182,-0.15776 -1.27567,-0.23624 z" />
    <path
       style="fill:#80412f;stroke:#80412f;stroke-width:0.26458332px;stroke-linecap:butt;stroke-linejoin:miter;stroke-opacity:1;fill-opacity:1"
       d="m 41.028272,141.87157 c 0.27083,-0.0974 0.589763,-0.16635 1.268502,-0.16041 0.678739,0.006 1.718792,0.0867 2.671451,0.35934 0.952659,0.27263 1.819021,0.73731 2.496127,1.50494 0.677105,0.76762 1.165378,1.83867 1.283693,2.99937 0.118315,1.16071 -0.133948,2.41413 -0.771789,3.39464 -0.63784,0.98051 -1.661274,1.68904 -2.779655,2.02775 -1.118382,0.33871 -2.330698,0.30722 -3.338831,-0.0196 -1.008132,-0.32685 -1.811159,-0.94881 -2.460862,-1.81904 -0.649704,-0.87024 -1.145776,-1.98837 -1.299275,-2.96092 -0.1535,-0.97254 0.03551,-1.79945 0.36721,-2.52182 0.331702,-0.72236 0.806319,-1.34074 1.13806,-1.73247 0.33174,-0.39173 0.520733,-0.5571 0.726467,-0.70274 0.205734,-0.14564 0.428072,-0.27157 0.698902,-0.36901 z"
       id="path838"
       inkscape:connector-curvature="0"
       inkscape:path-effect="#path-effect840"
       inkscape:original-d="m 40.979707,141.84313 c 0.319353,-0.0692 0.638286,-0.13811 0.956748,-0.20671 1.03908,0.0804 2.079133,0.16117 3.118304,0.24215 0.866296,0.46424 1.732656,0.92893 2.598587,1.39379 0.488431,1.07055 0.976704,2.1416 1.464659,3.2128 -0.243875,1.25192 -0.503706,2.50382 -0.755955,3.75613 -1.02367,0.70862 -2.047105,1.41715 -3.071055,2.12612 -1.212768,-0.0318 -2.425084,-0.0633 -3.638021,-0.0945 -0.803106,-0.62249 -1.606135,-1.24444 -2.409597,-1.86626 -0.495853,-1.1185 -0.991923,-2.23663 -1.488282,-3.35454 0.18923,-0.827 0.378241,-1.65391 0.566963,-2.48047 0.474526,-0.61818 0.949142,-1.23656 1.423316,-1.85444 0.189253,-0.16563 0.378246,-0.331 0.566966,-0.4961 0.222715,-0.12625 0.445055,-0.25217 0.667367,-0.37797 z"
       sodipodi:nodetypes="cccccccccccccc" />
    <path
       style="fill:#80412f;stroke:#80412f;stroke-width:0.26458332px;stroke-linecap:butt;stroke-linejoin:miter;stroke-opacity:1;fill-opacity:1"
       d="m 12.875651,142.15992 c -0.08657,0.28136 -0.25981,0.84439 -0.202714,1.57704 0.0571,0.73266 0.344356,1.63379 0.78933,2.47649 0.444975,0.84271 1.047265,1.62608 1.787511,2.11476 0.740247,0.48868 1.61052,0.68077 2.490436,0.76146 0.879916,0.0807 1.765995,0.0492 2.653706,-0.37604 0.887711,-0.42521 1.77781,-1.24442 2.344644,-2.07114 0.566834,-0.82672 0.811021,-1.66168 0.873979,-2.57096 0.06296,-0.90927 -0.0552,-1.89395 -0.46064,-2.70484 -0.405436,-0.81088 -1.098556,-1.44886 -1.73243,-1.95282 -0.633874,-0.50395 -1.208702,-0.87405 -1.980361,-1.05519 -0.77166,-0.18113 -1.740109,-0.17327 -2.602447,0.0393 -0.862339,0.21258 -1.618085,0.62982 -2.153667,1.06295 -0.535583,0.43312 -0.850432,0.88178 -1.100533,1.28743 -0.250101,0.40565 -0.43503,0.76764 -0.527637,0.94891 -0.09261,0.18127 -0.09261,0.18129 -0.179177,0.46264 z"
       id="path842"
       inkscape:connector-curvature="0"
       inkscape:path-effect="#path-effect844"
       inkscape:original-d="m 12.962222,141.87857 c -0.172974,0.56276 -0.346213,1.12579 -0.519717,1.68908 0.287845,0.90187 0.575103,1.803 0.862258,2.70489 0.602774,0.78339 1.205064,1.56676 1.807199,2.35054 0.878314,0.19267 1.748404,0.38559 2.622209,0.57878 0.885948,-0.0318 1.772028,-0.0633 2.657645,-0.0945 0.889809,-0.81895 1.779903,-1.63816 2.669457,-2.45684 0.244299,-0.8347 0.488484,-1.66966 0.732329,-2.50409 -0.117808,-0.98421 -0.23597,-1.96889 -0.354353,-2.95294 -0.69253,-0.63795 -1.385648,-1.27594 -2.078868,-1.91351 -0.574584,-0.37037 -1.149414,-0.74046 -1.724517,-1.1103 -0.968411,0.008 -1.936863,0.0155 -2.905692,0.0236 -0.755896,0.4172 -1.51164,0.83444 -2.267857,1.25205 -0.314847,0.44877 -0.629696,0.89743 -0.94494,1.34654 -0.184911,0.3622 -0.369837,0.72419 -0.555153,1.08668 z" />
    <path
       style="fill:#80412f;stroke:#80412f;stroke-width:0.26458332px;stroke-linecap:butt;stroke-linejoin:miter;stroke-opacity:1;fill-opacity:1"
       d="m 50.121965,173.41124 c -0.309026,-0.28954 -0.927084,-0.86862 -1.341934,-1.76799 -0.414849,-0.89937 -0.626434,-2.11877 -0.592982,-3.17111 0.03345,-1.05235 0.311908,-1.93784 0.918768,-2.68658 0.60686,-0.74875 1.542637,-1.36146 2.411119,-1.68988 0.868481,-0.32842 1.670549,-0.37298 2.488865,-0.27276 0.818317,0.10022 1.653825,0.3453 2.344127,0.74891 0.690301,0.4036 1.236086,0.96609 1.611914,1.66202 0.375829,0.69593 0.581847,1.52557 0.687663,2.11022 0.105815,0.58465 0.11138,0.92423 0.02237,1.16652 -0.08901,0.24228 -0.272619,0.38694 -0.877565,0.77444 -0.604946,0.38751 -1.627853,1.0157 -2.68874,1.55591 -1.060888,0.5402 -2.157792,0.99121 -3.25471,1.44223 -0.47329,0.1392 -0.946266,0.27831 -1.183068,0.34796 -0.236803,0.0696 -0.236799,0.0696 -0.545826,-0.21989 z"
       id="path846"
       inkscape:connector-curvature="0"
       inkscape:path-effect="#path-effect848"
       inkscape:original-d="m 50.430992,173.70078 c -0.617797,-0.57935 -1.235856,-1.15843 -1.854182,-1.73725 -0.211328,-1.2197 -0.422912,-2.4391 -0.634764,-3.65825 0.278622,-0.88544 0.557075,-1.77093 0.835215,-2.65599 0.935374,-0.61254 1.871152,-1.22525 2.80633,-1.83748 0.801812,-0.0448 1.603883,-0.0893 2.405428,-0.13364 0.835191,0.24465 1.670698,0.48974 2.505651,0.735 0.545828,0.562 1.091616,1.12449 1.637025,1.68714 0.206288,0.82939 0.412306,1.65903 0.618061,2.48894 0.0058,0.33947 0.0114,0.67905 0.0167,1.01897 -0.183624,0.14461 -0.367231,0.28927 -0.551244,0.43431 -1.025895,0.62993 -2.048801,1.25813 -3.073598,1.88759 -1.096987,0.45089 -3.290755,1.35305 -3.290755,1.35305 0,0 -0.946317,0.27814 -1.419871,0.41761 z" />
    <path
       style="fill:#80412f;stroke:#80412f;stroke-width:0.26458332px;stroke-linecap:butt;stroke-linejoin:miter;stroke-opacity:1;fill-opacity:1"
       d="m 66.843661,138.04764 c -0.05107,-0.0197 -0.106187,-0.0197 -0.913091,0.11083 -0.806904,0.13052 -2.350737,0.38913 -3.366652,0.91667 -1.015914,0.52754 -1.496164,1.32271 -1.801405,2.35453 -0.305241,1.03182 -0.435119,2.29912 -0.165027,3.54672 0.270092,1.2476 0.939978,2.47425 1.726183,3.16018 0.786206,0.68592 1.688173,0.83068 2.662508,0.81953 0.974336,-0.0112 2.021393,-0.17824 2.68968,-0.34131 0.668288,-0.16307 0.952157,-0.31881 1.071797,-0.70232 0.11964,-0.38352 0.07234,-0.99446 -0.01425,-2.07099 -0.08659,-1.07653 -0.212637,-2.62055 -0.385876,-3.68154 -0.173239,-1.061 -0.39376,-1.63987 -0.627996,-2.22841 -0.234236,-0.58854 -0.482345,-1.18715 -0.629938,-1.50597 -0.147592,-0.31883 -0.19486,-0.35822 -0.24593,-0.37792 z"
       id="path850"
       inkscape:connector-curvature="0"
       inkscape:path-effect="#path-effect852"
       inkscape:original-d="m 66.847451,138.02794 c -0.05486,-2.7e-4 -0.109977,-2.7e-4 -0.165365,0 -1.558456,0.26084 -3.102289,0.51945 -4.65383,0.77957 -0.480174,0.79522 -0.960424,1.59039 -1.441034,2.38598 -0.129715,1.26802 -0.259594,2.53532 -0.389787,3.80338 0.670456,1.22695 1.340344,2.4536 2.010121,3.6808 0.902367,0.14452 1.804334,0.28928 2.706103,0.43432 1.046819,-0.16727 2.093875,-0.33436 3.140419,-0.50113 0.290928,-0.15757 0.573886,-0.31497 0.86043,-0.47206 -0.04693,-0.60987 -0.09423,-1.22081 -0.14174,-1.83082 -0.125677,-1.54305 -0.251719,-3.08707 -0.377976,-4.63021 -0.220186,-0.57895 -0.440708,-1.15782 -0.661458,-1.73633 -0.247721,-0.59858 -0.495829,-1.19719 -0.74414,-1.79538 -0.04697,-0.0396 -0.09423,-0.079 -0.141743,-0.11812 z" />
    <path
       style="fill:#80412f;stroke:#80412f;stroke-width:0.26458332px;stroke-linecap:butt;stroke-linejoin:miter;stroke-opacity:1;fill-opacity:1"
       d="m 48.622007,124.31451 c -0.04715,-0.0118 -0.141641,-0.0354 -0.543887,0.0198 -0.402246,0.0552 -1.109548,0.1888 -1.916901,0.71648 -0.807352,0.52769 -1.712531,1.44861 -2.181194,2.29522 -0.468664,0.84662 -0.500155,1.6181 -0.330821,2.36639 0.169333,0.74829 0.539305,1.47249 1.212718,2.09469 0.673413,0.6222 1.649718,1.14185 2.500229,1.34654 0.850512,0.20469 1.575035,0.0944 2.409526,-0.39764 0.834491,-0.49208 1.779819,-1.36651 2.299405,-2.17356 0.519586,-0.80705 0.614108,-1.54747 0.507817,-2.24021 -0.10629,-0.69274 -0.413516,-1.3387 -0.956742,-1.96066 -0.543227,-0.62197 -1.322943,-1.22053 -1.854407,-1.55913 -0.531463,-0.33859 -0.814934,-0.41733 -0.956763,-0.45673 -0.14183,-0.0394 -0.141826,-0.0394 -0.18898,-0.0512 z"
       id="path854"
       inkscape:connector-curvature="0"
       inkscape:path-effect="#path-effect856"
       inkscape:original-d="m 48.669161,124.3263 c -0.09423,-0.0239 -0.188725,-0.0475 -0.283483,-0.0709 -0.709843,0.13387 -1.417145,0.26747 -2.126117,0.4016 -0.90569,0.92145 -1.81087,1.84237 -2.716702,2.76395 -0.03124,0.77166 -0.06273,1.54314 -0.0945,2.31511 0.370498,0.72444 0.740468,1.44864 1.110305,2.17336 0.976842,0.51952 1.953144,1.03917 2.929316,1.55915 0.724649,-0.1105 1.449173,-0.22075 2.173364,-0.33073 0.944817,-0.87397 1.890144,-1.7484 2.83482,-2.62221 0.09473,-0.74025 0.189254,-1.48067 0.283483,-2.22061 -0.306719,-0.64572 -0.613948,-1.29168 -0.921317,-1.93713 -0.779174,-0.59862 -1.558888,-1.19719 -2.338728,-1.79538 -0.283232,-0.079 -0.566698,-0.15776 -0.850445,-0.23624 z" />
    <path
       style="fill:#80412f;stroke:#80412f;stroke-width:0.26458332px;stroke-linecap:butt;stroke-linejoin:miter;stroke-opacity:1;fill-opacity:1"
       d="m 21.816449,124.44791 c 0,0.0417 0,0.12513 0.279268,0.59709 0.279269,0.47197 0.834315,1.32674 1.750462,1.7945 0.916147,0.46776 2.191149,0.54571 3.159958,0.31735 0.968809,-0.22837 1.631543,-0.76301 1.968268,-1.57017 0.336726,-0.80715 0.347867,-1.88784 0.300531,-2.70625 -0.04734,-0.81841 -0.153156,-1.37536 -0.314414,-1.61754 -0.161258,-0.24218 -0.378494,-0.16976 -0.969416,0.0588 -0.590922,0.22856 -1.552798,0.6122 -2.644355,1.1524 -1.091556,0.5402 -2.310568,1.23598 -2.920434,1.58407 -0.609866,0.3481 -0.609868,0.3481 -0.609868,0.38975 z"
       id="path858"
       inkscape:connector-curvature="0"
       inkscape:path-effect="#path-effect860"
       inkscape:original-d="m 21.816449,124.40626 c 2.65e-4,0.0833 2.65e-4,0.16678 0,0.25056 0.55884,0.85995 1.113888,1.71472 1.670434,2.57247 1.27546,0.0777 2.550462,0.15565 3.825295,0.23386 0.662742,-0.5347 1.325476,-1.06934 1.987818,-1.60361 0.0114,-1.08001 0.02254,-2.1607 0.03341,-3.24065 -0.105503,-0.55693 -0.211323,-1.11388 -0.317382,-1.67043 -0.216811,0.0721 -0.434049,0.14451 -0.65147,0.21716 -0.964427,0.38449 -1.926303,0.76813 -2.889851,1.1526 -1.219557,0.69598 -2.43857,1.39176 -3.658252,2.08804 z" />
  </g>
</svg>
