<?xml version="1.0" encoding="UTF-8" standalone="no"?>
<!-- Created with Inkscape (http://www.inkscape.org/) -->

<svg
   xmlns:dc="http://purl.org/dc/elements/1.1/"
   xmlns:cc="http://creativecommons.org/ns#"
   xmlns:rdf="http://www.w3.org/1999/02/22-rdf-syntax-ns#"
   xmlns:svg="http://www.w3.org/2000/svg"
   xmlns="http://www.w3.org/2000/svg"
   xmlns:sodipodi="http://sodipodi.sourceforge.net/DTD/sodipodi-0.dtd"
   xmlns:inkscape="http://www.inkscape.org/namespaces/inkscape"
   width="44.265656mm"
   height="44.563492mm"
   viewBox="0 0 44.265656 44.563492"
   version="1.1"
   id="svg8"
   inkscape:version="0.92.4 (f8dce91, 2019-08-02)"
   sodipodi:docname="perdedor.svg">
  <defs
     id="defs2">
    <inkscape:path-effect
       effect="bspline"
       id="path-effect985"
       is_visible="true"
       weight="33.333333"
       steps="2"
       helper_size="0"
       apply_no_weight="true"
       apply_with_weight="true"
       only_selected="false" />
    <inkscape:path-effect
       effect="bspline"
       id="path-effect981"
       is_visible="true"
       weight="33.333333"
       steps="2"
       helper_size="0"
       apply_no_weight="true"
       apply_with_weight="true"
       only_selected="false" />
    <inkscape:path-effect
       effect="bspline"
       id="path-effect977"
       is_visible="true"
       weight="33.333333"
       steps="2"
       helper_size="0"
       apply_no_weight="true"
       apply_with_weight="true"
       only_selected="false" />
    <inkscape:path-effect
       effect="bspline"
       id="path-effect973"
       is_visible="true"
       weight="33.333333"
       steps="2"
       helper_size="0"
       apply_no_weight="true"
       apply_with_weight="true"
       only_selected="false" />
    <inkscape:path-effect
       effect="bspline"
       id="path-effect951"
       is_visible="true"
       weight="33.333333"
       steps="2"
       helper_size="0"
       apply_no_weight="true"
       apply_with_weight="true"
       only_selected="false" />
    <inkscape:path-effect
       effect="bspline"
       id="path-effect851"
       is_visible="true"
       weight="33.333333"
       steps="2"
       helper_size="0"
       apply_no_weight="true"
       apply_with_weight="true"
       only_selected="false" />
    <inkscape:path-effect
       effect="bspline"
       id="path-effect847"
       is_visible="true"
       weight="33.333333"
       steps="2"
       helper_size="0"
       apply_no_weight="true"
       apply_with_weight="true"
       only_selected="false" />
    <inkscape:path-effect
       effect="bspline"
       id="path-effect843"
       is_visible="true"
       weight="33.333333"
       steps="2"
       helper_size="0"
       apply_no_weight="true"
       apply_with_weight="true"
       only_selected="false" />
    <inkscape:path-effect
       effect="bspline"
       id="path-effect839"
       is_visible="true"
       weight="33.333333"
       steps="2"
       helper_size="0"
       apply_no_weight="true"
       apply_with_weight="true"
       only_selected="false" />
    <inkscape:path-effect
       effect="bspline"
       id="path-effect951-3"
       is_visible="true"
       weight="33.333333"
       steps="2"
       helper_size="0"
       apply_no_weight="true"
       apply_with_weight="true"
       only_selected="false" />
  </defs>
  <sodipodi:namedview
     id="base"
     pagecolor="#ffffff"
     bordercolor="#666666"
     borderopacity="1.0"
     inkscape:pageopacity="0.0"
     inkscape:pageshadow="2"
     inkscape:zoom="0.98994949"
     inkscape:cx="139.68563"
     inkscape:cy="113.87973"
     inkscape:document-units="mm"
     inkscape:current-layer="layer1"
     showgrid="false"
     inkscape:window-width="1360"
     inkscape:window-height="700"
     inkscape:window-x="0"
     inkscape:window-y="36"
     inkscape:window-maximized="1" />
  <metadata
     id="metadata5">
    <rdf:RDF>
      <cc:Work
         rdf:about="">
        <dc:format>image/svg+xml</dc:format>
        <dc:type
           rdf:resource="http://purl.org/dc/dcmitype/StillImage" />
        <dc:title></dc:title>
      </cc:Work>
    </rdf:RDF>
  </metadata>
  <g
     inkscape:label="Camada 1"
     inkscape:groupmode="layer"
     id="layer1"
     transform="translate(-127.95683,-90.774782)">
    <g
       id="g1042"
       transform="matrix(0.33606306,0,0,0.33606306,117.77144,76.216556)">
      <g
         style="stroke:#705d5a;stroke-opacity:1"
         id="g990">
        <path
           style="fill:#5d5d5a;fill-opacity:1;stroke:#705d5a;stroke-width:0.96499997;stroke-linecap:butt;stroke-linejoin:miter;stroke-miterlimit:4;stroke-dasharray:none;stroke-opacity:1"
           d="m 130.0357,57.144447 c 0,36.064964 0,72.130193 0,108.195683"
           id="path971"
           inkscape:connector-curvature="0"
           inkscape:path-effect="#path-effect973"
           inkscape:original-d="m 130.0357,57.144447 c 2.6e-4,36.064964 2.6e-4,72.130193 0,108.195683" />
        <path
           style="fill:#5d5d5a;fill-opacity:1;stroke:#705d5a;stroke-width:0.96499997;stroke-linecap:butt;stroke-linejoin:miter;stroke-miterlimit:4;stroke-dasharray:none;stroke-opacity:1"
           d="m 63.582761,164.93853 c 0,-36.12061 0,-72.240961 0,-108.361046"
           id="path975"
           inkscape:connector-curvature="0"
           inkscape:path-effect="#path-effect977"
           inkscape:original-d="m 63.582761,164.93853 c 2.65e-4,-36.12061 2.65e-4,-72.240961 0,-108.361046" />
        <path
           style="fill:none;stroke:#705d5a;stroke-width:1.06500006;stroke-linecap:butt;stroke-linejoin:miter;stroke-miterlimit:4;stroke-dasharray:none;stroke-opacity:1"
           d="m 89.643414,110.3248 c 0.05117,0.31094 0.153534,0.93302 -0.244185,2.11838 -0.397718,1.18537 -1.295103,2.93291 -2.892477,4.91626 -1.597375,1.98335 -3.893701,4.20105 -6.991179,8.3395 -3.097478,4.13844 -6.994701,10.19583 -9.433606,14.68381 -2.438904,4.48797 -3.41884,7.40551 -4.254078,9.64398 -0.835239,2.23847 -1.525609,3.79737 -1.875726,6.16976 -0.350117,2.3724 -0.359758,5.55676 -0.350716,7.14657 0.009,1.5898 0.03641,1.58421 0.268191,1.58144 0.231778,-0.003 0.677847,-0.003 5.349087,0.0111 4.671239,0.0139 13.583263,0.0418 19.706986,0.0724 6.123723,0.0306 9.46443,0.064 12.805299,0.0974 3.93109,0.0223 7.86244,0.0445 10.98607,0.0779 3.12364,0.0334 5.44012,0.0779 8.19185,0.10594 2.75173,0.028 5.93956,0.0394 7.53716,0.0275 1.59759,-0.0119 1.60554,-0.0471 1.60749,-2.12147 0.002,-2.0744 -0.002,-6.26112 -0.1793,-8.63534 -0.17722,-2.37423 -0.52766,-2.97273 -2.40353,-6.74612 -1.87587,-3.7734 -5.27812,-10.7236 -9.21532,-16.65499 -3.9372,-5.93138 -8.40998,-10.84514 -10.8826,-13.86901 -2.47261,-3.02387 -2.94508,-4.1578 -3.14975,-4.83509 -0.20467,-0.67729 -0.14167,-0.89779 0.44031,-1.90445 0.58198,-1.00665 1.68598,-2.8046 4.22125,-6.17445 2.53527,-3.36986 6.5047,-8.315897 9.6326,-12.794554 3.1279,-4.478658 5.41527,-8.491233 7.08222,-12.056356 1.66694,-3.565122 2.71383,-6.683508 3.35411,-9.434021 0.64028,-2.750514 0.87417,-5.13391 0.98185,-7.260823 0.10768,-2.126913 0.0892,-3.998066 0.0516,-4.931442 -0.0376,-0.933376 -0.0947,-0.92944 -0.26475,-0.929425 -0.17,1.5e-5 -0.45406,-0.0039 -10.88838,-0.0187 -10.43432,-0.01478 -30.981898,-0.04035 -51.548132,-0.06594 -0.885881,-0.05512 -1.771516,-0.110228 -2.388739,-0.161411 -0.617223,-0.05118 -0.965575,-0.09842 -1.146781,-0.07788 -0.181206,0.02053 -0.194978,0.109067 -0.193995,0.321281 9.82e-4,0.212214 0.01668,0.545753 0.326957,3.125493 0.310278,2.579741 0.914192,7.397281 2.06685,12.012872 1.152657,4.615591 2.853469,9.025104 5.593867,13.860181 2.740398,4.835076 6.520039,10.095075 9.543868,14.016606 3.023829,3.921535 5.291667,6.504345 6.583092,7.953265 1.291426,1.44892 1.606404,1.7639 1.763895,1.92139 0.157492,0.15749 0.157485,0.15745 0.208652,0.46838 z"
           id="path979"
           inkscape:connector-curvature="0"
           inkscape:path-effect="#path-effect981"
           inkscape:original-d="m 89.592247,110.01387 c 0.102632,0.62182 0.205002,1.2439 0.307105,1.86625 -0.89774,1.74848 -1.795121,3.49602 -2.69308,5.24442 -2.296896,2.21825 -4.593225,4.43595 -6.890234,6.65432 -3.897874,6.05856 -7.795096,12.11596 -11.693044,18.17433 -0.979773,2.91758 -1.95971,5.83512 -2.939962,8.75308 -0.690259,1.55898 -1.380628,3.11788 -2.071341,4.67722 -0.0094,3.1854 -0.01902,6.36976 -0.02893,9.55504 0.02766,-0.006 0.05505,-0.0115 0.08218,-0.0168 0.436475,-2.7e-4 0.882544,-2.7e-4 1.323422,0 8.901602,0.0275 17.813626,0.0554 26.72004,0.0835 3.341034,0.0331 10.022607,0.10022 10.022607,0.10022 0,0 7.86244,0.0443 11.79327,0.0668 2.31644,0.0443 4.63293,0.0888 6.949,0.13363 3.18738,0.0112 6.37521,0.0226 9.56242,0.0343 0.008,-0.0353 0.0161,-0.0704 0.0238,-0.10526 -0.004,-4.11398 -0.008,-8.3007 -0.012,-12.45064 -0.35013,-0.59869 -0.70057,-1.19719 -1.05125,-1.79539 -3.40105,-6.94857 -6.8033,-13.89877 -10.20535,-20.84775 -4.47239,-4.91388 -8.94517,-9.82765 -13.41816,-14.74107 -0.4722,-1.13419 -0.94467,-2.26812 -1.41741,-3.40179 0.0633,-0.22072 0.12626,-0.44123 0.18899,-0.66146 1.10112,-1.79309 2.20513,-3.59103 3.30729,-5.38616 3.96833,-4.9446 7.93777,-9.890638 11.90625,-14.835562 2.28737,-4.01237 4.57474,-8.024945 6.86171,-12.037021 1.04699,-3.118166 2.09387,-6.236554 3.14042,-9.354433 0.2341,-2.383176 0.46798,-4.766572 0.70158,-7.14946 -0.0182,-1.870964 -0.0367,-3.742116 -0.0554,-5.612778 -0.0568,0.0037 -0.11392,0.0076 -0.17127,0.0118 -0.28264,-0.0042 -0.5667,-0.0081 -0.85045,-0.0118 -20.58489,-0.02588 -61.698702,-0.07678 -61.698702,-0.07678 0,0 -1.771499,-0.110509 -2.657644,-0.165365 -0.348279,-0.04752 -0.69663,-0.09476 -1.04534,-0.14174 -0.01352,0.08838 -0.0273,0.176911 -0.04134,0.265764 0.01606,0.335529 0.03176,0.669068 0.04725,1.003998 0.605086,4.824527 1.209,9.642067 1.813105,14.463497 1.701236,4.409666 3.402049,8.819179 5.102677,13.229166 3.78015,5.260073 7.559789,10.520073 11.339287,15.780504 2.268141,2.5826 4.535977,5.16542 6.80357,7.74852 0.315249,0.31471 0.630225,0.62969 0.944941,0.94494 z" />
      </g>
      <g
         id="g1006">
        <path
           transform="translate(0.46414921,-117.52372)"
           style="fill:#6b5d5a;fill-opacity:1;stroke:#6b5d5a;stroke-width:0.26458332px;stroke-linecap:butt;stroke-linejoin:miter;stroke-opacity:1"
           d="m 73.119071,164.88803 c -11.229018,-0.0677 -11.386495,-0.0205 -12.064905,0.29507 -0.67841,0.31554 -1.872935,0.89708 -2.550293,1.59795 -0.677359,0.70086 -0.834807,1.51959 -0.842701,2.386 -0.0079,0.86641 0.133794,1.77951 0.712654,2.657 0.578861,0.8775 1.578816,1.70559 3.941234,2.15442 2.362418,0.44884 6.079282,0.51184 17.980895,0.54333 11.901612,0.0315 31.990875,0.0315 42.194265,0.0315 10.20338,0 10.52231,0 10.91336,-0.0621 0.39106,-0.0621 0.85497,-0.1864 1.23754,-0.50993 0.38258,-0.32354 0.68276,-0.84347 0.915,-1.40941 0.23224,-0.56595 0.39604,-1.17728 0.47786,-1.69894 0.0818,-0.52166 0.0818,-0.95451 -0.0225,-1.56005 -0.10433,-0.60554 -0.31319,-1.38503 -0.61029,-1.9672 -0.2971,-0.58218 -0.6828,-0.96788 -1.29308,-1.27254 -0.61028,-0.30467 -1.44541,-0.52844 -2.34276,-0.64035 -0.89735,-0.11191 -1.8566,-0.11191 -13.4897,-0.20322 -11.63309,-0.0913 -33.92754,-0.27383 -45.156559,-0.34154 z"
           id="path949-6"
           inkscape:connector-curvature="0"
           inkscape:path-effect="#path-effect951-3"
           inkscape:original-d="m 62.047233,164.77317 c -0.157226,0.047 -0.314716,0.0942 -0.472471,0.14174 -1.199058,0.58362 -2.393585,1.16516 -3.590775,1.74814 -0.157265,0.8189 -0.314713,1.63763 -0.472469,2.45684 0.142058,0.91352 0.283747,1.82662 0.425223,2.74033 1.008443,0.85039 2.016138,1.66913 3.023809,2.50409 3.716933,0.0627 7.433797,0.12573 11.150298,0.18899 20.086719,-2.6e-4 40.175982,-2.6e-4 60.263582,0 0.31917,-2.6e-4 0.6381,-2.6e-4 0.95675,0 0.46341,-0.12436 0.92732,-0.24867 1.39059,-0.37261 0.30201,-0.5229 0.60219,-1.04283 0.90289,-1.56385 0.16388,-0.61087 0.32768,-1.2222 0.49113,-1.83291 2.6e-4,-0.43266 2.6e-4,-0.86551 0,-1.29787 -0.20835,-0.7788 -0.41721,-1.55829 -0.62621,-2.33704 -0.38525,-0.38578 -0.77095,-0.77148 -1.15682,-1.15682 -0.83487,-0.22404 -1.67,-0.44781 -2.50539,-0.67132 -0.95939,-2.6e-4 -1.91864,-2.6e-4 -2.87835,0 -22.30648,-0.18288 -44.600928,-0.3654 -66.901787,-0.54771 z" />
        <path
           style="fill:#5d5d5a;fill-opacity:1;stroke:#5d5d5a;stroke-width:0.26458332px;stroke-linecap:butt;stroke-linejoin:miter;stroke-opacity:1"
           d="m 88.824429,117.65473 c -0.378336,0.15679 -1.134763,0.47018 -1.826574,0.75683 -0.691812,0.28666 -1.318933,0.54655 -1.909562,1.01339 -0.590629,0.46685 -1.144848,1.1411 -1.9308,2.03987 -0.785951,0.89878 -1.805538,2.02423 -2.860848,3.34404 -1.05531,1.31982 -2.14639,2.83397 -2.945468,3.96437 -0.799079,1.1304 -1.305676,1.87638 -2.472577,3.73952 -1.166902,1.86314 -2.992497,4.84087 -4.181332,6.86771 -1.188836,2.02685 -1.740023,3.10139 -2.408326,4.58 -0.668303,1.47861 -1.453177,3.36008 -2.113365,5.05657 -0.660188,1.6965 -1.194014,3.20345 -1.558777,4.50651 -0.364762,1.30306 -0.559606,2.39975 -0.709972,3.48012 -0.150366,1.08037 -0.25613,2.14359 -0.297907,3.17934 -0.04178,1.03576 -0.01951,2.04345 -0.01319,2.83143 0.0063,0.78798 -0.0033,1.35584 0.07201,1.64272 0.07533,0.28689 0.235246,0.29239 5.043368,0.30903 4.808123,0.0166 14.294594,0.0445 20.711799,0.0724 6.417205,0.0278 9.78044,0.0557 13.508129,0.0863 3.7277,0.0306 7.82032,0.064 11.91288,0.0974 0,0 6.34765,0.0668 6.34765,0.0668 0,0 7.03253,0.0835 7.03253,0.0835 0.60387,-0.0108 1.20801,-0.0217 1.50575,-0.0552 0.29775,-0.0335 0.28968,-0.0895 0.29399,-0.27832 0.004,-0.18884 0.0211,-0.51307 0.003,-2.40613 -0.0181,-1.89306 -0.071,-5.36219 -0.12951,-7.22468 -0.0585,-1.86249 -0.12252,-2.12142 -0.21157,-2.46648 -0.0891,-0.34507 -0.20328,-0.77691 -0.56509,-1.62853 -0.3618,-0.85162 -0.97177,-2.12447 -1.50432,-3.19102 -0.53255,-1.06655 -0.99032,-1.93186 -1.85609,-3.60494 -0.86577,-1.67307 -2.14101,-4.15674 -3.26853,-6.2336 -1.12752,-2.07687 -2.10755,-3.74737 -3.75008,-6.18611 -1.64253,-2.43874 -3.94785,-5.64613 -5.69065,-7.90675 -1.7428,-2.26063 -2.92326,-3.57473 -4.5936,-4.67161 -1.67035,-1.09688 -3.83081,-1.97665 -6.08592,-2.52792 -2.25511,-0.55127 -4.604698,-0.77397 -6.414366,-0.76287 -1.809668,0.0111 -3.07907,0.25608 -4.114829,0.50666 -1.035759,0.25057 -1.837374,0.50664 -2.639501,0.76288 -5e-6,3e-5 0,0 -0.378335,0.15678 z"
           id="path983"
           inkscape:connector-curvature="0"
           inkscape:path-effect="#path-effect985"
           inkscape:original-d="m 89.202749,117.49803 c -0.756712,0.31335 -1.513099,0.62684 -2.269752,0.94037 -0.626966,0.25979 -1.254132,0.51957 -1.881636,0.77978 -0.553668,0.67364 -1.107888,1.34789 -1.661725,2.02162 -1.018082,1.12381 -2.037665,2.24926 -3.056895,3.37428 -1.091354,1.51464 -2.182437,3.02879 -3.274052,4.54358 -0.506534,0.74601 -1.013132,1.49199 -1.520095,2.23839 -1.826821,2.97989 -3.652419,5.95761 -5.479026,8.93682 -0.551034,1.07449 -1.10222,2.14903 -1.653728,3.22394 -0.785071,1.88231 -1.569945,3.76378 -2.355313,5.64607 -0.539935,1.50895 -1.068813,3.01765 -1.603618,4.52688 -0.194659,1.09688 -0.389504,2.19357 -0.584653,3.29075 -0.105558,1.06354 -0.211322,2.12676 -0.31738,3.19053 0.01699,1.00784 0.04481,2.0154 0.06681,3.02349 -0.0094,0.56788 -0.01902,1.13574 -0.02893,1.704 0.160325,0.005 0.320231,0.0108 0.479949,0.0165 9.456521,0.0275 18.942992,0.0554 28.414091,0.0835 3.363312,0.0276 6.726547,0.0554 10.089424,0.0835 4.09251,0.0331 12.27769,0.10022 12.27769,0.10022 l 6.34765,0.0668 7.03253,0.0835 c 0,0 1.208,-0.022 1.8116,-0.0325 -0.008,-0.0562 -0.0159,-0.1122 -0.0242,-0.1679 0.0169,-0.32193 0.0337,-0.64616 0.0501,-0.96885 -0.0526,-3.46344 -0.10553,-6.93257 -0.15869,-10.39845 -0.0638,-0.25917 -0.12781,-0.5181 -0.1921,-0.77676 -0.1138,-0.43148 -0.22803,-0.86332 -0.34244,-1.29458 -0.60919,-1.27205 -1.21916,-2.5449 -1.82913,-3.81695 -0.45628,-0.86046 -0.9129,-1.72638 -1.36976,-2.58917 -1.27468,-2.48336 -2.54993,-4.96702 -3.82529,-7.45014 -0.97968,-1.67063 -1.95971,-3.34113 -2.93996,-5.0113 -2.30483,-3.20734 -4.61014,-6.41473 -6.9156,-9.6217 -1.18016,-1.31432 -2.36062,-2.62842 -3.54132,-3.94223 -2.16014,-0.88002 -4.3206,-1.75979 -6.48129,-2.63929 -2.34963,-0.223 -4.699221,-0.44571 -7.049229,-0.66817 -1.269394,0.24476 -2.538796,0.48973 -3.808592,0.73499 -0.801735,0.25593 -1.603351,0.512 -2.405425,0.7684 0,0 2.55e-4,-2.1e-4 -1.5e-5,8e-5 z"
           sodipodi:nodetypes="cccccccccccccccccccccccccccccccccccccc" />
        <path
           style="fill:#6b5d5a;fill-opacity:1;stroke:#6b5d5a;stroke-width:0.26458332px;stroke-linecap:butt;stroke-linejoin:miter;stroke-opacity:1"
           d="m 73.119071,164.88803 c -11.229018,-0.0677 -11.386495,-0.0205 -12.064905,0.29507 -0.67841,0.31554 -1.872935,0.89708 -2.550293,1.59795 -0.677359,0.70086 -0.834807,1.51959 -0.842701,2.386 -0.0079,0.86641 0.133794,1.77951 0.712654,2.657 0.578861,0.8775 1.578816,1.70559 3.941234,2.15442 2.362418,0.44884 6.079282,0.51184 17.980895,0.54333 11.901612,0.0315 31.990875,0.0315 42.194265,0.0315 10.20338,0 10.52231,0 10.91336,-0.0621 0.39106,-0.0621 0.85497,-0.1864 1.23754,-0.50993 0.38258,-0.32354 0.68276,-0.84347 0.915,-1.40941 0.23224,-0.56595 0.39604,-1.17728 0.47786,-1.69894 0.0818,-0.52166 0.0818,-0.95451 -0.0225,-1.56005 -0.10433,-0.60554 -0.31319,-1.38503 -0.61029,-1.9672 -0.2971,-0.58218 -0.6828,-0.96788 -1.29308,-1.27254 -0.61028,-0.30467 -1.44541,-0.52844 -2.34276,-0.64035 -0.89735,-0.11191 -1.8566,-0.11191 -13.4897,-0.20322 -11.63309,-0.0913 -33.92754,-0.27383 -45.156559,-0.34154 z"
           id="path949"
           inkscape:connector-curvature="0"
           inkscape:path-effect="#path-effect951"
           inkscape:original-d="m 62.047233,164.77317 c -0.157226,0.047 -0.314716,0.0942 -0.472471,0.14174 -1.199058,0.58362 -2.393585,1.16516 -3.590775,1.74814 -0.157265,0.8189 -0.314713,1.63763 -0.472469,2.45684 0.142058,0.91352 0.283747,1.82662 0.425223,2.74033 1.008443,0.85039 2.016138,1.66913 3.023809,2.50409 3.716933,0.0627 7.433797,0.12573 11.150298,0.18899 20.086719,-2.6e-4 40.175982,-2.6e-4 60.263582,0 0.31917,-2.6e-4 0.6381,-2.6e-4 0.95675,0 0.46341,-0.12436 0.92732,-0.24867 1.39059,-0.37261 0.30201,-0.5229 0.60219,-1.04283 0.90289,-1.56385 0.16388,-0.61087 0.32768,-1.2222 0.49113,-1.83291 2.6e-4,-0.43266 2.6e-4,-0.86551 0,-1.29787 -0.20835,-0.7788 -0.41721,-1.55829 -0.62621,-2.33704 -0.38525,-0.38578 -0.77095,-0.77148 -1.15682,-1.15682 -0.83487,-0.22404 -1.67,-0.44781 -2.50539,-0.67132 -0.95939,-2.6e-4 -1.91864,-2.6e-4 -2.87835,0 -22.30648,-0.18288 -44.600928,-0.3654 -66.901787,-0.54771 z" />
      </g>
    </g>
  </g>
</svg>
