<?xml version="1.0" encoding="UTF-8" standalone="no"?>
<!-- Created with Inkscape (http://www.inkscape.org/) -->

<svg
   xmlns:dc="http://purl.org/dc/elements/1.1/"
   xmlns:cc="http://creativecommons.org/ns#"
   xmlns:rdf="http://www.w3.org/1999/02/22-rdf-syntax-ns#"
   xmlns:svg="http://www.w3.org/2000/svg"
   xmlns="http://www.w3.org/2000/svg"
   xmlns:sodipodi="http://sodipodi.sourceforge.net/DTD/sodipodi-0.dtd"
   xmlns:inkscape="http://www.inkscape.org/namespaces/inkscape"
   width="44.265656mm"
   height="44.563492mm"
   viewBox="0 0 44.265656 44.563492"
   version="1.1"
   id="svg8"
   inkscape:version="0.92.4 (f8dce91, 2019-08-02)"
   sodipodi:docname="primeiro.svg">
  <defs
     id="defs2">
    <inkscape:path-effect
       effect="bspline"
       id="path-effect985"
       is_visible="true"
       weight="33.333333"
       steps="2"
       helper_size="0"
       apply_no_weight="true"
       apply_with_weight="true"
       only_selected="false" />
    <inkscape:path-effect
       effect="bspline"
       id="path-effect981"
       is_visible="true"
       weight="33.333333"
       steps="2"
       helper_size="0"
       apply_no_weight="true"
       apply_with_weight="true"
       only_selected="false" />
    <inkscape:path-effect
       effect="bspline"
       id="path-effect977"
       is_visible="true"
       weight="33.333333"
       steps="2"
       helper_size="0"
       apply_no_weight="true"
       apply_with_weight="true"
       only_selected="false" />
    <inkscape:path-effect
       effect="bspline"
       id="path-effect973"
       is_visible="true"
       weight="33.333333"
       steps="2"
       helper_size="0"
       apply_no_weight="true"
       apply_with_weight="true"
       only_selected="false" />
    <inkscape:path-effect
       effect="bspline"
       id="path-effect951"
       is_visible="true"
       weight="33.333333"
       steps="2"
       helper_size="0"
       apply_no_weight="true"
       apply_with_weight="true"
       only_selected="false" />
    <inkscape:path-effect
       effect="bspline"
       id="path-effect851"
       is_visible="true"
       weight="33.333333"
       steps="2"
       helper_size="0"
       apply_no_weight="true"
       apply_with_weight="true"
       only_selected="false" />
    <inkscape:path-effect
       effect="bspline"
       id="path-effect847"
       is_visible="true"
       weight="33.333333"
       steps="2"
       helper_size="0"
       apply_no_weight="true"
       apply_with_weight="true"
       only_selected="false" />
    <inkscape:path-effect
       effect="bspline"
       id="path-effect843"
       is_visible="true"
       weight="33.333333"
       steps="2"
       helper_size="0"
       apply_no_weight="true"
       apply_with_weight="true"
       only_selected="false" />
    <inkscape:path-effect
       effect="bspline"
       id="path-effect839"
       is_visible="true"
       weight="33.333333"
       steps="2"
       helper_size="0"
       apply_no_weight="true"
       apply_with_weight="true"
       only_selected="false" />
    <inkscape:path-effect
       effect="bspline"
       id="path-effect951-3"
       is_visible="true"
       weight="33.333333"
       steps="2"
       helper_size="0"
       apply_no_weight="true"
       apply_with_weight="true"
       only_selected="false" />
  </defs>
  <sodipodi:namedview
     id="base"
     pagecolor="#ffffff"
     bordercolor="#666666"
     borderopacity="1.0"
     inkscape:pageopacity="0.0"
     inkscape:pageshadow="2"
     inkscape:zoom="1.979899"
     inkscape:cx="108.70084"
     inkscape:cy="177.65595"
     inkscape:document-units="mm"
     inkscape:current-layer="layer1"
     showgrid="false"
     inkscape:window-width="1360"
     inkscape:window-height="700"
     inkscape:window-x="0"
     inkscape:window-y="36"
     inkscape:window-maximized="1" />
  <metadata
     id="metadata5">
    <rdf:RDF>
      <cc:Work
         rdf:about="">
        <dc:format>image/svg+xml</dc:format>
        <dc:type
           rdf:resource="http://purl.org/dc/dcmitype/StillImage" />
        <dc:title />
      </cc:Work>
    </rdf:RDF>
  </metadata>
  <g
     inkscape:label="Camada 1"
     inkscape:groupmode="layer"
     id="layer1"
     transform="translate(-129.09076,-90.774782)">
    <g
       id="g1032"
       transform="translate(1.133929)">
      <path
         sodipodi:nodetypes="ccccccccccccc"
         inkscape:original-d="m 135.78795,92.987351 c -1.62189,-2.65e-4 -3.24404,-2.65e-4 -4.86645,-3e-6 -0.72431,0.645552 -1.44864,1.291156 -2.17336,1.937129 -0.047,1.323162 -0.0942,2.645568 -0.14174,3.96875 0.48858,1.984523 0.9767,3.968483 1.46465,5.953123 0.66179,1.13377 1.32319,2.26759 1.98438,3.40179 2.64886,0.49656 5.29706,0.99331 7.9452,1.49037 -0.67951,0.18015 -1.35928,0.36057 -2.03932,0.54125 -0.299,-1.43357 -0.5982,-2.86659 -0.89769,-4.29948 -0.0155,-3.02365 -0.0312,-6.047884 -0.0472,-9.071428 -0.0155,-1.386057 -0.0312,-2.77209 -0.0472,-4.157737 -0.39339,0.07847 -0.78719,0.157226 -1.18117,0.236236 z"
         inkscape:path-effect="#path-effect839"
         inkscape:connector-curvature="0"
         id="path837"
         d="m 134.977,92.987351 c -0.81094,-10e-7 -2.43309,-2e-6 -3.60644,0.322782 -1.17336,0.322784 -1.89769,0.968385 -2.28368,1.952941 -0.386,0.984556 -0.43322,2.306961 -0.21272,3.960856 0.22051,1.6539 0.70863,3.63786 1.2835,5.19712 0.57486,1.55925 1.23626,2.69308 2.89142,3.50852 1.65515,0.81544 4.30335,1.31219 5.28772,1.65073 0.98437,0.33854 0.3046,0.51896 -0.1851,-0.10754 -0.48969,-0.62651 -0.78889,-2.05953 -0.94635,-4.28783 -0.15746,-2.2283 -0.1732,-5.252533 -0.18893,-7.457332 -0.0157,-2.2048 -0.0315,-3.590833 -0.23601,-4.244323 -0.20454,-0.653489 -0.59834,-0.574729 -0.79535,-0.535326 -0.19701,0.0394 -0.19711,0.0394 -1.00806,0.0394 z"
         style="fill:none;stroke:#5d5d5a;stroke-width:1.56500006;stroke-linecap:butt;stroke-linejoin:miter;stroke-miterlimit:4;stroke-dasharray:none;stroke-opacity:1" />
      <path
         inkscape:original-d="m 138.31198,110.41246 c 2.62841,1.8929 5.25657,3.78605 7.88445,5.67948 0.35662,0.22245 0.71298,0.44518 1.06908,0.66817 0.0114,0.21128 2.6e-4,0.42291 0,0.63476 -0.36769,1.91757 -0.73473,3.83061 -1.10249,5.7463 -0.65688,0.91305 -1.31381,1.82608 -1.97111,2.73951 -0.73497,0.83523 -1.46972,1.67017 -2.20498,2.50566 0.0337,0.022 0.0671,0.0443 0.10023,0.0668 5.30859,-2.6e-4 10.63635,-2.6e-4 15.95413,0 0.0633,-0.003 0.12626,-0.005 0.18899,-0.007 -0.55639,-0.5334 -1.11791,-1.0712 -1.67727,-1.6064 -0.77932,-1.08696 -1.55889,-2.17363 -2.33873,-3.26005 -0.22808,-0.72468 -0.45645,-1.44917 -0.68508,-2.17336 -0.25953,-1.01584 -0.51945,-2.03188 -0.77957,-3.04743 -0.0234,-0.42541 -0.047,-0.85071 -0.0709,-1.27567 0.55115,-0.29932 1.10269,-0.59873 1.65364,-0.89769 1.44835,-1.12568 2.89808,-2.25238 4.34673,-3.37817 0.62222,-0.49625 1.86626,-1.48828 1.86626,-1.48828 0,0 1.52598,-2.07474 2.28857,-3.11171 -0.022,-1.63682 -0.0443,-3.27431 -0.0668,-4.91107 0.0671,-4.042077 0.1339,-8.085172 0.20045,-12.12736 2.7e-4,-0.100483 2.7e-4,-0.200715 0,-0.300678 -1.01046,0.02196 -2.02653,0.04428 -3.04019,0.06682 -7.69692,-2.64e-4 -15.39,-2.64e-4 -23.0854,0 -0.0109,-2.64e-4 -0.022,-2.64e-4 -0.0334,0 -0.0296,0.79678 -0.0581,1.55683 -0.0875,2.335639 0.0436,0.208483 0.0869,0.417084 0.12993,0.626022 0.0318,0.527836 0.0633,1.054921 0.0945,1.582778 0.0278,0.976632 0.0554,1.952611 0.0827,2.929315 2.6e-4,0.795269 2.6e-4,1.590384 0,2.385974 0.0121,1.24826 0.0239,2.49595 0.0354,3.74432 0.0515,0.46837 0.1105,0.93681 0.16536,1.4056 0.0199,0.27548 0.0396,0.55095 0.0591,0.82683 0.10666,0.51203 0.21287,1.02342 0.31892,1.53552 0.1263,0.51178 0.25224,1.02343 0.37797,1.53553 0.10932,0.18972 0.2183,0.37956 0.32705,0.56974 z"
         inkscape:path-effect="#path-effect843"
         inkscape:connector-curvature="0"
         id="path841"
         d="m 139.62608,111.35906 c 1.3141,0.94659 3.94225,2.83976 5.43451,3.8977 1.49226,1.05794 1.84863,1.28067 2.02677,1.49765 0.17815,0.21698 0.17815,0.42861 -0.006,1.4933 -0.18395,1.06469 -0.55099,2.97773 -1.06323,4.3921 -0.51224,1.41438 -1.16917,2.3274 -1.86529,3.20174 -0.69612,0.87434 -1.43087,1.70929 -1.78174,2.1382 -0.35088,0.42891 -0.31746,0.45118 2.35349,0.46229 2.67096,0.0111 7.99872,0.0111 10.68927,0.01 2.69055,-0.001 2.7535,-0.004 2.50654,-0.27123 -0.24697,-0.26773 -0.80849,-0.80553 -1.47785,-1.61664 -0.66936,-0.8111 -1.44893,-1.89778 -1.9529,-2.80338 -0.50397,-0.90561 -0.73234,-1.6301 -0.97642,-2.50012 -0.24407,-0.87003 -0.50399,-1.88607 -0.64572,-2.60658 -0.14172,-0.72052 -0.16536,-1.14581 0.0984,-1.50791 0.26379,-0.3621 0.81533,-0.66151 1.81497,-1.37386 0.99964,-0.71235 2.44937,-1.83905 3.4848,-2.65007 1.03543,-0.81103 1.65736,-1.307 2.27945,-1.80309 0.76286,-1.03724 1.52593,-2.07477 1.89612,-3.41165 0.37019,-1.33688 0.34791,-2.97437 0.37019,-5.81379 0.0223,-2.839422 0.0891,-6.882516 0.1225,-8.95385 0.0334,-2.071333 0.0334,-2.171565 -0.47182,-2.210442 -0.50522,-0.03888 -1.52129,-0.01654 -5.87659,-0.0054 -4.35529,0.01114 -12.04837,0.01114 -15.90152,0.01114 -3.85315,0 -3.86425,0 -3.88487,0.398385 -0.0206,0.398386 -0.0491,1.158437 -0.0421,1.65212 0.007,0.493683 0.0504,0.702285 0.0878,1.070647 0.0374,0.368362 0.0689,0.895449 0.0984,1.647687 0.0295,0.752238 0.0571,1.728219 0.0709,2.614201 0.0138,0.885983 0.0138,1.681098 0.0197,2.703028 0.006,1.02192 0.0177,2.26961 0.0511,3.12777 0.0334,0.85816 0.0886,1.32705 0.12601,1.69918 0.0374,0.37212 0.0571,0.6476 0.12015,1.04157 0.063,0.39398 0.16925,0.90537 0.28542,1.41732 0.11617,0.51195 0.24212,1.0236 0.35964,1.37456 0.11752,0.35096 0.22649,0.5408 0.28103,0.6358 0.0545,0.095 0.0545,0.0951 1.36859,1.0417 z"
         style="fill:#5d5d5a;fill-opacity:1;stroke:#5d5d5a;stroke-width:0.26458332px;stroke-linecap:butt;stroke-linejoin:miter;stroke-opacity:1" />
      <path
         sodipodi:nodetypes="cccccccccccccc"
         inkscape:original-d="m 159.5265,109.7944 c 0.0225,-2.6e-4 0.0668,0 0.0668,0 0,0 3.54158,0.13337 5.31198,0.20045 1.26391,-0.84084 2.52819,-1.68184 3.79188,-2.52236 0.82972,-1.25835 1.65956,-2.51705 2.48895,-3.77518 0.15613,-2.4719 0.31208,-4.900204 0.46772,-7.34991 -0.31151,-0.891061 -0.62336,-1.782061 -0.93544,-2.672693 -1.13544,-0.423371 -2.27153,-0.846619 -3.40769,-1.269532 -1.42535,0.0777 -2.85061,0.155644 -4.27631,0.23386 -0.022,0.378441 -0.0443,0.756999 -0.0668,1.135896 -0.0332,1.950013 -0.0666,3.897415 -0.10022,5.846522 -0.0332,2.416627 -0.0666,4.832857 -0.10023,7.249687 -0.86846,0.54547 -1.73661,1.09085 -2.60588,1.63702 -0.21141,0.42867 -0.42291,0.85723 -0.63476,1.28624 z"
         inkscape:path-effect="#path-effect847"
         inkscape:connector-curvature="0"
         id="path845"
         d="m 159.64362,109.57987 c -0.0946,0.21453 -0.0726,0.21453 -0.0503,0.21453 1.77066,0.0668 3.54157,0.13364 5.05875,-0.25334 1.51718,-0.38699 2.78146,-1.22799 3.82811,-2.27748 1.04665,-1.04949 1.8765,-2.30818 2.36987,-4.17314 0.49338,-1.86496 0.64791,-4.29335 0.56994,-5.963669 -0.078,-1.67032 -0.38982,-2.56132 -1.11348,-3.218218 -0.72366,-0.656898 -1.85975,-1.080147 -3.14044,-1.252788 -1.28069,-0.172642 -2.70595,-0.0947 -3.42993,0.133499 -0.72398,0.228197 -0.74625,0.606757 -0.7741,1.771217 -0.0279,1.164459 -0.0612,3.111861 -0.0947,5.294729 -0.0334,2.18287 -0.0668,4.5991 -0.51773,6.08028 -0.45092,1.48119 -1.31907,2.02657 -1.85948,2.51393 -0.54042,0.48735 -0.75192,0.91592 -0.84654,1.13045 z"
         style="fill:none;stroke:#5d5d5a;stroke-width:1.56500006;stroke-linecap:butt;stroke-linejoin:miter;stroke-miterlimit:4;stroke-dasharray:none;stroke-opacity:1" />
      <path
         inkscape:original-d="m 138.91334,128.45315 c 7.41699,-2.6e-4 14.83372,-2.6e-4 22.25018,0 0.0313,-0.009 0.0624,-0.0169 0.0932,-0.025 2.6e-4,2.18834 2.6e-4,4.4215 0,6.63265 -0.0479,0.0391 -0.096,0.0785 -0.14439,0.11811 -7.43025,-2.6e-4 -14.77231,-2.6e-4 -22.15886,0 -0.0391,0.0391 -0.0785,0.0785 -0.11811,0.11812 2.6e-4,-2.22787 2.6e-4,-4.42573 0,-6.63821 0.0262,-0.0688 0.0522,-0.13739 0.078,-0.20569 z"
         inkscape:path-effect="#path-effect851"
         inkscape:connector-curvature="0"
         id="path849"
         d="m 142.62183,128.45315 c 3.7085,0 11.12523,0 14.84919,-0.004 3.72395,-0.004 3.75494,-0.0125 3.77032,1.07752 0.0154,1.09004 0.0154,3.3232 -0.009,4.44835 -0.0239,1.12515 -0.0721,1.16452 -3.81138,1.18431 -3.73933,0.0198 -11.08139,0.0198 -14.79421,0.0394 -3.71283,0.0195 -3.75223,0.0589 -3.77203,-1.03517 -0.0198,-1.09413 -0.0198,-3.29199 -0.007,-4.43265 0.013,-1.14066 0.0391,-1.20924 0.052,-1.24338 0.0129,-0.0341 0.0129,-0.0341 3.72141,-0.0341 z"
         style="fill:#5d5d5a;fill-opacity:1;stroke:#5d5d5a;stroke-width:0.26458332px;stroke-linecap:butt;stroke-linejoin:miter;stroke-opacity:1" />
      <rect
         y="130.45767"
         x="140.51694"
         height="3.2072344"
         width="19.243404"
         id="rect864"
         style="fill:none;fill-opacity:1;stroke:none;stroke-width:1.56500006;stroke-linecap:round;stroke-linejoin:round;stroke-miterlimit:4;stroke-dasharray:none;stroke-dashoffset:0;stroke-opacity:1;paint-order:stroke fill markers" />
      <flowRoot
         transform="matrix(0.29063306,0,0,0.31857993,-12.689746,-22.448031)"
         style="font-style:normal;font-variant:normal;font-weight:normal;font-stretch:normal;font-size:40px;line-height:1.25;font-family:'Montserrat Alternates';-inkscape-font-specification:'Montserrat Alternates';letter-spacing:0px;word-spacing:0px;fill:#ffd6a5;fill-opacity:1;stroke:none"
         id="flowRoot866"
         xml:space="preserve"><flowRegion
           style="fill:#ffd6a5;fill-opacity:1"
           id="flowRegion868"><rect
             style="fill:#ffd6a5;fill-opacity:1"
             y="366.80539"
             x="535.71429"
             height="47.354736"
             width="67.663177"
             id="rect870" /></flowRegion><flowPara
           id="flowPara872">#1</flowPara></flowRoot>    </g>
  </g>
</svg>
