<?xml version="1.0" encoding="UTF-8"?>
<!-- Created with Inkscape (http://www.inkscape.org/) -->
<svg   viewBox="0 0 207.88 235.33" xmlns="http://www.w3.org/2000/svg" >
 
 <g transform="translate(116.74 -22.497)">
  <path d="m-105.36 256.51c0.0325 0.12786 0.0974 0.38379 0.31517 0.60643 0.21774 0.22265 0.58757 0.41149 0.89572 0.50006 0.30814 0.0886 0.55428 0.0768 19.78 0.0709 19.226-6e-3 57.517-6e-3 76.652-0.0294 19.135-0.0235 19.158-0.0703 19.155-0.22912-0.0028-0.1588-0.03081-0.4335-0.06698-1.2876-0.03617-0.85409-0.08075-2.2919-0.21158-4.6219-0.13084-2.33-0.34803-5.5545-0.41762-7.8847-0.06959-2.3302 0.0084-3.7669 0.04734-4.6466 0.03897-0.87972 0.03897-1.2027 0.12245-1.8761 0.08348-0.67335 0.25066-1.6987 0.47895-2.5617 0.22829-0.86297 0.51792-1.5648 0.81298-2.1827 0.29506-0.61794 0.59588-1.1527 0.98555-1.6648 0.38967-0.5121 0.86881-1.0024 1.4032-1.4366 0.5344-0.43417 1.1249-0.81301 1.6705-1.0802 0.54555-0.26718 1.0469-0.42317 1.776-0.47325 0.72909-0.0501 1.6874 6e-3 4.7993 0.17822 3.1119 0.17257 8.3807 0.46219 13.798 0.51787 5.4177 0.0557 10.986-0.12252 15.218-0.25615s7.1273-0.22273 8.7754-0.27782c1.6482-0.0551 2.0936-0.0785 2.4592-0.18714 0.36559-0.10861 0.67397-0.30363 1.1211-0.68824s1.0343-0.96002 1.4161-1.58c0.38178-0.61999 0.55904-1.2857 0.65743-1.8368 0.09839-0.55109 0.11809-0.98833 0.14563-1.9702 0.02755-0.98186 0.063-2.5105-0.06102-3.9592-0.12402-1.4488-0.40755-2.8192-0.56503-3.7759-0.15748-0.95673-0.18898-1.5002-0.20472-1.7876-0.01574-0.28744-0.01574-4.0987-0.0039-5.2404 0.01182-1.1418 0.03545-1.5041 0.1181-2.0039 0.08265-0.4998 0.2245-1.1381 0.4725-1.8348 0.248-0.69671 0.60253-1.453 1.1575-2.4843 0.55501-1.0313 1.3113-2.339 2.1853-3.3468 0.87401-1.0078 1.8664-1.7167 2.5593-2.2246 0.69289-0.50786 1.0867-0.81506 1.3307-1.1457s0.33853-0.68526 0.2913-1.0236c-0.04723-0.33835-0.23638-0.66149-0.46074-0.94096s-0.48429-0.51576-0.9489-0.95675-1.1339-1.0867-1.634-1.5946c-0.50004-0.50791-0.83077-0.87801-0.91733-1.3152-0.08657-0.43717 0.07093-0.94116 0.26778-1.3505 0.19685-0.40936 0.43324-0.72454 0.76381-1.0039 0.33058-0.27937 0.7562-0.52371 1.3072-0.71653 0.55096-0.19281 1.2287-0.33466 1.8309-0.45669 0.60228-0.12203 1.1301-0.22444 1.4371-0.35445 0.30702-0.13002 0.39369-0.2876 0.14611-1.2779-0.24758-0.99029-0.83146-2.8208-1.6819-5.1594-0.8504-2.3386-1.9687-5.1894-2.5356-7.103-0.56694-1.9135-0.58269-2.89-0.5118-3.7247 0.07089-0.83462 0.22842-1.5278 0.96058-2.189 0.73216-0.66124 2.0399-1.2915 4.7466-2.2121 2.7067-0.92064 6.8149-2.1326 9.2025-2.9835 2.3877-0.85087 3.0559-1.3409 3.6348-1.8642 0.57895-0.52331 1.0692-1.0804 1.3576-1.5872 0.2884-0.50679 0.37958-0.98548 0.31835-1.7312-0.06123-0.74575-0.27296-1.771-0.64597-2.7452s-0.90766-1.8988-1.552-2.9653c-0.6443-1.0665-1.4048-2.2855-3.4175-4.7749s-5.2812-6.2549-8.5496-10.02c-1.9371-2.1891-3.8743-4.3782-5.3547-6.15-1.4804-1.7718-2.5041-3.1262-3.2916-4.1735-0.78744-1.0473-1.3387-1.7875-1.7167-2.5356-0.37798-0.74813-0.58273-1.5041-0.67719-2.1813-0.09447-0.67718-0.07871-1.2758-0.01572-1.8899s0.17329-1.2443 0.57476-2.3779 1.0948-2.7722 1.4884-3.7959c0.39368-1.0236 0.4882-1.4332 0.4476-3.8256-0.0406-2.3924-0.21648-6.7743-0.2932-9.7097-0.07673-2.9354-0.05445-4.4277-0.26602-6.6213-0.21157-2.1936-0.6571-5.0895-1.3252-8.4191s-1.5591-7.0939-2.8843-11.069c-1.3252-3.9755-3.0848-8.1629-4.3766-11.036-1.2918-2.8731-2.1159-4.4322-3.7083-6.6371-1.5924-2.2048-3.9534-5.0559-5.2674-6.5258-1.314-1.4699-1.5813-1.559-1.9488-1.5257-0.36756 0.03338-0.835 0.18919-1.4255 0.30062-0.59048 0.11142-1.3027 0.1782-1.8486 0.12252-0.54584-0.05568-0.92432-0.23378-1.292-0.72399-0.36763-0.4902-0.72389-1.2918-1.1359-2.2049-0.412-0.91309-0.8798-1.9378-1.3362-2.4834-0.45642-0.5456-0.90192-0.61242-1.548-0.17803-0.6461 0.43439-1.492 1.3694-2.2829 2.951-0.79086 1.5817-1.5256 3.8082-2.1493 5.6124-0.62366 1.8042-1.1359 3.1849-1.4151 3.8661-0.27924 0.68119-0.32546 0.66231-1.0277 0.50677s-2.0527-0.44606-3.2123-0.75909c-1.1596-0.31303-2.1241-0.64765-3.4531-1.2462-1.329-0.59853-3.0217-1.4607-4.0967-2.1103-1.0749-0.64968-1.5316-1.0867-1.762-1.4707-0.23033-0.38402-0.23427-0.71474-0.18698-0.97849 0.04729-0.26375 0.1458-0.46076 0.33268-0.60823 0.18688-0.14747 0.46293-0.24606 0.76394-0.36607 0.30101-0.12002 0.62818-0.26192 1.0492-0.38586 0.42103-0.12393 0.93731-0.23034 1.4254-0.43703s0.94901-0.51397 1.2757-0.75214c0.32672-0.23817 0.51977-0.40758 0.69086-0.66722 0.17109-0.25964 0.32092-0.61056 0.42122-0.97235 0.10029-0.36178 0.1516-0.73669 0.15552-1.2738 0.0039-0.53714-0.03942-1.2385-0.19294-1.8289-0.15352-0.59043-0.41741-1.0709-0.93109-1.5531-0.51368-0.4822-1.2777-0.96657-1.9017-1.2697-0.62402-0.30317-1.1083-0.42522-1.7265-0.4469-0.61824-0.02168-1.37 0.05704-2.0355 0.30507-0.6655 0.24804-1.2441 0.66522-1.7527 1.2214s-0.94432 1.247-1.1373 1.8594-0.14186 1.1437 0.0334 1.8014c0.17526 0.65774 0.47436 1.4409 0.65746 2.0709 0.1831 0.62996 0.25002 1.1063 0.29531 1.4587 0.04529 0.35243 0.0689 0.58068-0.10042 0.77571-0.16932 0.19502-0.53117 0.35628-1.0414 0.39965-0.51021 0.04336-1.1671-0.03138-1.6614-0.15345-0.49425-0.12207-0.82486-0.29131-1.453-0.57486-0.62812-0.28354-1.5532-0.68114-2.4785-1.0788-1.5119-0.85444-3.0237-1.7088-4.1813-2.3584s-1.9607-1.0945-2.3703-1.4116-0.42528-0.50607-0.38588-0.69498c0.039402-0.18891 0.13402-0.37813 0.46964-0.89346s0.92434-1.3745 1.6546-2.5757c0.73025-1.2012 1.6163-2.7676 2.2541-4.114s1.0316-2.4806 1.252-3.3467c0.22044-0.86609 0.2677-1.4647 0.18896-1.9449s-0.28357-0.84256-0.68494-1.0394-0.99998-0.22832-1.441-0.19686c-0.441 0.031459-0.72436 0.12591-1.1341 0.28351s-0.94464 0.37784-1.4645 0.51177-1.0236 0.18115-1.4016 0.18117c-0.37809 1.9e-5 -0.62993-0.0472-1.0334-0.31866s-0.95743-0.76628-1.3377-1.1726c-0.38023-0.40635-0.58625-0.72373-0.69469-1.0106-0.10844-0.28683-0.11982-0.55414-0.52578-0.71267-0.40596-0.15853-1.2085-0.21426-2.8042-0.29502-1.5956-0.08076-3.9836-0.18652-5.203-0.23942-1.2194-0.0529-1.2807-0.0529-1.3114 0.01409-0.030764 0.067-0.036305 0.2 0.011096 0.43983s0.14742 0.58435 0.25046 0.93523c0.10304 0.35088 0.20878 0.70706 0.26727 1.161 0.058491 0.45389 0.069622 1.0049 0.070673 1.8039 0.00105 0.79899-0.00798 1.8448-0.16102 2.5269-0.15303 0.68213-0.45017 0.99998-0.84117 1.2036-0.391 0.20366-0.87501 0.29267-1.3736 0.28712-0.49856-0.0056-1.0105-0.10572-1.5118-0.29508-0.50129-0.18937-0.99109-0.46766-1.8181-0.93544-0.82697-0.46778-1.9905-1.1247-2.7645-1.5674s-1.1582-0.67095-1.9015-0.78234c-0.74336-0.11139-1.8456-0.10583-2.8173 0.12522-0.97171 0.23105-1.8123 0.68752-2.4082 1.0968-0.59588 0.40928-0.9468 0.77134-1.2976 1.1333-0.79624 0.91874-1.5922 1.8372-2.0823 2.6642-0.4901 0.82696-0.6738 1.5617-0.77128 2.581-0.09748 1.0193-0.10861 2.3216 0.01945 3.2851 0.12806 0.96342 0.39528 1.5869 0.91599 2.375s1.2945 1.74 1.8493 2.2735c0.55473 0.53356 0.89002 0.64843 1.3766 0.93923 0.48655 0.29081 1.1401 0.76899 2.3528 1.0997 1.2127 0.33072 2.9925 0.51972 4.3862 0.33854 1.3938-0.18118 2.4018-0.73246 3.197-1.4017s1.3781-1.457 1.9843-2.5749c0.60618-1.1179 1.2364-2.5674 1.5513-3.2917 0.31491-0.7243 1.4961-1.9055 1.7087-1.9527 0.21262-0.04725 0.63813-0.14181 0.98448-0.18114 0.34635-0.03934 0.61428-0.02357 0.91329 0.06299 0.29901 0.08657 0.63005 0.2442 0.85043 0.48815 0.22038 0.24395 0.33066 0.57479 0.61429 0.94508 0.28363 0.37029 0.74013 0.77956 1.2047 1.6378 0.46455 0.85822 0.93704 2.1654 1.2757 3.197 0.33862 1.0316 0.54333 1.7875 1.0868 3.7801s1.4252 5.2204 1.9213 7.9371 0.60635 4.9215 0.72446 6.2602 0.24408 1.8111-0.078757 2.0632c-0.32284 0.25208-1.0942 0.28356-2.6853 0.49623-1.5911 0.21266-3.9998 0.60625-7.1026 1.2992-3.1028 0.693-6.8978 1.6851-9.7091 2.7087-2.8113 1.0237-4.638 2.0788-5.6201 2.8197-0.98214 0.74091-1.1284 1.1961-1.0969 1.7319 0.03149 0.53577 0.23608 1.1653 0.5354 1.6458s0.69294 0.81112 1.2048 1.1025c0.51188 0.29136 1.1419 0.54336 1.8741 0.88979 0.73222 0.34643 1.5671 0.7875 2.197 1.1103 0.62994 0.32284 1.0552 0.5276 1.5275 0.98418 0.47233 0.45658 0.99218 1.1655 1.3877 2.0863s0.65966 2.0241 0.79355 2.843c0.13389 0.81896 0.13389 1.3386-0.09452 2.1735-0.22841 0.83496-0.6849 1.9841-1.22 2.9313-0.53511 0.94727-1.1484 1.6917-2.0009 2.3426-0.85256 0.65089-1.9435 1.2075-2.8679 1.5751s-1.6815 0.5457-2.5058 0.61255c-0.82429 0.06685-1.7148 0.02232-2.5502-0.17816-0.83539-0.20048-1.6147-0.55674-2.3164-0.94655-0.70166-0.38981-1.3252-0.81292-1.9155-1.4255-0.59029-0.61258-1.1471-1.4143-1.5145-2.1716s-0.54569-1.4701-0.64589-2.2384-0.12248-1.5926 0.36744-2.9844 1.4925-3.3523 2.1384-4.722 0.93544-2.1494 0.92712-2.8013c-0.0083-0.65197-0.32592-1.1964-0.63769-1.6084-0.31176-0.41197-0.62362-0.70156-3.2851-0.31181-2.6615 0.38975-7.6726 1.4588-11.236 2.5724s-5.6794 2.2717-7.5059 3.2963c-1.8265 1.0246-3.363 1.9154-4.2653 2.1158-0.90224 0.20045-1.1695-0.28945-1.7151-1.4697-0.5456-1.1803-1.3698-3.0515-2.3275-5.2675-0.95768-2.216-2.0491-4.7775-2.9256-7.106-0.87655-2.3284-1.5512-4.4647-1.8852-6.1463-0.33406-1.6816-0.33406-2.9289-0.32292-3.8532 0.01114-0.92425 0.03342-1.5257 0.12253-2.0157 0.08912-0.48993 0.2451-0.86874 0.65694-1.1469 0.41185-0.27821 1.0806-0.45654 1.6038-0.412 0.52318 0.04454 0.90199 0.31194 1.8262 0.75735 0.92425 0.44542 2.3944 1.0691 3.7196 1.6148 1.3252 0.54565 2.5057 1.0134 3.6973 1.1247 1.1916 0.11132 2.3944-0.13371 3.4411-0.66824 1.0467-0.53453 1.9378-1.3588 2.7171-2.873s1.4477-3.7199 1.7595-5.0896c0.31176-1.3697 0.26721-1.9043-0.07789-2.806-0.34509-0.90168-0.99129-2.1718-1.871-3.2185-0.87967-1.0467-1.9934-1.8709-3.2183-2.4277-1.2249-0.55681-2.5612-0.84634-3.8753-0.87978-1.3141-0.03344-2.6057 0.18925-3.5078 0.56784-0.90212 0.37858-1.4143 0.913-1.9601 1.6371-0.54585 0.72407-1.1246 1.6368-1.5813 2.5947-0.45669 0.95788-0.79066 1.9598-1.1248 2.7394-0.3341 0.77963-0.66808 1.3363-1.0301 1.7122-0.36197 0.37598-0.75152 0.57075-1.239 0.62092-0.4875 0.05017-1.0717-0.04441-1.5034-0.21986s-0.71-0.4315-0.9884-0.68764c-0.77397-1.3698-1.548-2.7396-2.1354-4.0091-0.58742-1.2695-0.98835-2.4389-1.2445-3.2964s-0.3675-1.4032-0.4565-1.6926c-0.089-0.28941-0.15585-0.32283-0.40108-0.21138-0.24523 0.11144-0.66774 0.36717-2.902 1.9774-2.2343 1.6103-6.2738 4.5703-9.0468 6.8087-2.773 2.2384-4.2763 3.7528-5.1783 4.6438-0.90205 0.89093-1.2027 1.1582-1.3086 1.3365-0.10589 0.17835-0.01689 0.26735 0.36179 0.50124 0.37868 0.23389 1.0468 0.61252 1.6334 0.98846 0.58656 0.37594 1.1061 0.75994 1.4513 1.2108 0.34517 0.4509 0.52336 0.97435 0.48449 1.3919-0.03887 0.41759-0.29493 0.72931-0.77408 0.92993-0.47915 0.20062-1.1801 0.28963-1.7871 0.4177-0.60702 0.12807-1.1191 0.29504-1.4756 0.54561-0.35649 0.25056-0.55681 0.58444-0.72952 0.91868-0.1727 0.33424-0.31734 0.66801-0.38422 1.0302-0.06688 0.36214-0.05576 0.75154-5.7e-5 1.3086 0.0557 0.55707 0.15586 1.2804 0.38423 1.8152 0.22836 0.53471 0.58462 0.87982 0.8853 1.1527 0.30069 0.27284 0.54569 0.4733 1.0079 0.64034 0.4622 0.16704 1.1416 0.3007 1.8153 0.30623 0.67369 0.0055 1.3421-0.117 1.9544-0.46776 0.61234-0.35077 1.1694-0.93011 1.4867-1.4089 0.31727-0.47879 0.39526-0.8576 0.35629-1.4196-0.03897-0.56202-0.195-1.3088-0.32305-1.9156-0.12805-0.60686-0.22831-1.0747-0.2784-1.47-0.05009-0.3953-0.05009-0.71839 0.0335-0.95218s0.25078-0.37868 0.45102-0.45094c0.20025-0.07226 0.4345-0.07226 0.71829-0.07783 0.28379-0.0056 0.61825-0.01672 1.0801 0.14465 0.46182 0.16137 1.0525 0.49573 1.9934 1.0358 0.94092 0.54005 2.2329 1.2863 3.4912 2.1493s2.4834 1.8431 3.1218 2.3694 0.69786 0.60952 0.68682 0.70966c-0.01105 0.10014-0.08895 0.22256-0.55773 0.77505-0.46878 0.55249-1.3241 1.53-2.1929 2.6884-0.86877 1.1583-1.7483 2.4943-2.3497 3.5523-0.60143 1.058-0.92431 1.8374-1.0858 2.5336-0.16154 0.69617-0.16154 1.3084 0.06691 1.7207 0.22845 0.41224 0.68484 0.62374 1.1916 0.62925 0.50673 0.0055 1.0637-0.195 1.6092-0.35641 0.54552-0.16142 1.0804-0.28399 1.5479-0.31179 0.46756-0.02781 0.86869 0.03905 1.2917 0.2561 0.42296 0.21705 0.86865 0.58474 1.2472 1.1081 0.37858 0.52331 0.69042 1.2027 0.76841 1.9655 0.078 0.76281-0.07789 1.609-0.40082 2.2829-0.32294 0.67385-0.81275 1.1748-1.3028 1.4979s-0.97983 0.46777-1.5201 0.56805c-0.54031 0.10028-1.1302 0.15592-1.6148 0.09467-0.4846-0.06125-0.86305-0.23934-1.2697-0.57354-0.4066-0.3342-0.84079-0.82404-1.0802-1.3754s-0.28398-1.1639-0.38419-1.6983-0.25618-0.99117-0.4788-1.3196-0.51226-0.52891-0.82399-0.6069c-0.31173-0.07799-0.64575-0.03345-0.9354 0.08904-0.28965 0.12249-0.53444 0.32276-0.83537 0.70169-0.30093 0.37892-0.65687 0.93508-0.99663 1.5032-0.33976 0.5681-0.66253 1.1469-0.99671 1.7484-0.33418 0.60153-0.67922 1.2248-1.1805 2.4447-0.50133 1.2199-1.158 3.0342-1.6703 3.8751-0.51228 0.84096-0.87972 0.70735-1.4534 0.44557-0.57369-0.26178-1.3529-0.65139-2.8398-1.4143-1.4868-0.76291-3.6804-1.8986-4.9555-2.6114-1.2751-0.71274-1.6315-1.0023-1.8208-1.3309-0.18934-0.32867-0.21161-0.69613-0.17816-0.98564 0.03345-0.28951 0.1226-0.50124 0.33403-0.67365 0.21143-0.17242 0.54602-0.30625 1.0134-0.4064 0.46742-0.10015 1.0694-0.16703 1.793-0.46766 0.72366-0.30063 1.5704-0.83543 2.0213-1.3866s0.50657-1.1193 0.51769-1.6816c0.01112-0.56222-0.0223-1.1193-0.17816-1.6481-0.15586-0.52878-0.43439-1.0301-0.72945-1.4365-0.29506-0.4064-0.60693-0.71827-0.99109-1.0189-0.38417-0.30066-0.84075-0.5902-1.3418-0.67934-0.50105-0.08913-1.0466 0.02221-1.6983 0.1893-0.65168 0.16709-1.4085 0.38969-1.9432 0.75161-0.53466 0.36192-0.84634 0.86284-1.0524 1.2416-0.20608 0.3787-0.30625 0.63468-0.33414 0.89661-0.0279 0.26192 0.0166 0.52886 0.0946 1.0581s0.18927 1.3193 0.30064 1.8873c0.11136 0.56803 0.22269 0.91315 0.22833 1.2082 6e-3 0.29509-0.0945 0.53997-0.28395 0.69604-0.1894 0.15607-0.46744 0.2228-0.73488 0.25625-0.26744 0.03345-0.54556 0.03345-1.2534-0.23963-0.70779-0.27308-1.8537-0.81822-2.8115-1.3695-0.95779-0.55128-1.7261-1.108-2.2551-1.5145-0.529-0.40649-0.81853-0.66261-1.0579-0.65719-0.23933 0.0054-0.42864 0.27268-0.84666 1.3316-0.41803 1.059-1.0632 2.9055-1.9096 5.4003-0.84645 2.4948-1.8931 5.6347-2.5056 7.9845-0.61253 2.3498-0.7907 3.9088-0.97446 5.4902-0.18377 1.5815-0.37305 3.1848-0.49 5.2452-0.11695 2.0604-0.16148 4.5768-0.0716 6.6258 0.0898 2.0491 0.31101 3.6082 0.48367 4.4324 0.17267 0.82422 0.29515 0.90216 0.4288 0.8074 0.13365-0.0948 0.2785-0.36218 0.57888-0.3844 0.30038-0.0222 0.7575 0.20077 1.1082 0.54586s0.59574 0.81292 0.85747 1.5201c0.26173 0.70721 0.54008 1.6536 0.79623 2.5501 0.25616 0.89654 0.48998 1.7427 0.82412 2.4222 0.33415 0.67944 0.76838 1.1916 1.342 1.6092 0.5736 0.41766 1.2863 0.7406 2.2217 0.94659 0.93541 0.20599 2.0938 0.2951 3.1071 0.0835 1.0133-0.21163 1.8822-0.72401 2.6504-1.2863s1.4367-1.175 1.9098-1.8598c0.47315-0.68476 0.75167-1.4423 0.89638-2.4944 0.14471-1.0521 0.15585-2.4001-0.04458-3.4468-0.20044-1.0466-0.61256-1.7929-1.1415-2.4944-0.52891-0.7015-1.1749-1.3586-2.0156-1.7706-0.84068-0.41202-1.8764-0.57906-2.9455-0.43989s-2.1714 0.58452-3.0123 0.8237c-0.84091 0.23917-1.4421 0.2732-1.9768 0.25093-0.53469-0.0223-1.0133-0.10018-1.3363-0.167-0.32302-0.0668-0.48998-0.12248-0.5903-0.51832-0.10033-0.39584-0.1337-1.1301-0.0947-1.8149 0.039-0.6848 0.15039-1.3198 0.90182-2.8449 0.75143-1.5251 2.1441-3.9428 3.4526-6.014 1.3084-2.0712 2.5338-3.7979 3.4111-4.9742 0.8773-1.1763 1.4073-1.8034 1.882-2.161s0.89415-0.44619 1.2205-0.34994c0.32639 0.09624 0.56042 0.37764 1.0696 0.86682 0.50913 0.48918 1.3021 1.194 2.2438 1.9185 0.94163 0.72452 2.0362 1.4726 3.0559 2.1656 1.0197 0.69294 1.9647 1.3308 2.9581 1.9904 0.99334 0.65963 2.0462 1.3483 3.0935 2.0334 1.0709 0.4331 2.142 0.86625 3.0948 1.0867 0.95283 0.22046 1.7876 0.22833 2.323 0.0825 0.53541-0.14578 0.77172-0.44511 0.94484-0.77174s0.28347-0.68133 0.29919-1.1535c0.01572-0.47216-0.0631-1.0633-0.18513-1.6577-0.12203-0.59439-0.28746-1.1931-0.45674-1.8426-0.16928-0.64955-0.34257-1.3506-0.42128-1.9963-0.07872-0.64567-0.06297-1.2364 0.07486-1.76 0.13783-0.52357 0.39781-0.9805 0.7009-1.3898 0.30309-0.40933 0.64955-0.77153 0.99602-1.1338 0.7402-0.54334 1.4807-1.0869 2.1105-1.3506 0.62984-0.26369 1.1498-0.24793 1.8464-0.2125 0.69667 0.03543 1.5712 0.09058 2.4096 0.3189 0.83845 0.22832 1.6419 0.63004 2.2993 1.1182 0.65743 0.48815 1.1694 1.0631 1.6812 1.6379 0.39372 1.189 0.7874 2.3779 0.83862 3.6458 0.05123 1.2678-0.24009 2.6142-0.68101 3.4883-0.44092 0.87417-1.0314 1.2757-1.7048 1.5789-0.67346 0.30329-1.429 0.50792-2.0315 0.66544-0.60249 0.15751-1.0512 0.26771-1.4805 0.36618-0.4293 0.0985-0.8385 0.18502-1.39 0.44892s-1.2439 0.70454-1.563 1.0589c-0.31908 0.35441-0.26398 0.62203-0.17338 1.0396 0.0906 0.41756 0.2165 0.9841 0.67339 1.6104 0.45689 0.62624 1.2441 1.3111 2.5158 2.1694 1.2717 0.85832 3.0278 1.8899 5.3355 2.9663s5.1674 2.1977 6.9214 2.8749c1.754 0.67721 2.4026 0.91035 2.7357 1.0543 0.33304 0.144 0.35077 0.19916 0.2294 0.55045-0.12136 0.3513-0.38045 0.9951-1.3488 3.1626-0.96832 2.1676-2.6435 5.8533-3.9102 8.382-1.2667 2.5287-2.1242 3.8984-2.8313 4.7949-0.70716 0.89656-1.2638 1.3196-1.7595 1.5703s-0.92976 0.32858-1.3643 0.31189c-0.43452-0.0167-0.86853-0.12797-1.1916-0.49013-0.32312-0.36216-0.53461-0.97439-0.72946-1.8485s-0.37308-2.0103-0.64032-2.9289c-0.26724-0.91861-0.62367-1.6203-1.0357-2.216s-0.87977-1.0858-1.5256-1.4421-1.4699-0.57906-2.7507-0.47885-3.0177 0.5233-4.1648 1.1135c-1.1471 0.59018-1.7038 1.3473-2.194 2.3108-0.49013 0.96351-0.91314 2.1324-0.99114 3.235-0.078 1.1027 0.1892 2.1381 0.52332 2.9734 0.33412 0.83533 0.73496 1.47 1.4144 2.0937 0.67942 0.62372 1.637 1.2361 2.5503 1.5368 0.91324 0.30065 1.7819 0.28952 2.6671 0.13918 0.88522-0.15035 1.7875-0.43998 2.5113-0.69052 0.72376-0.25054 1.2696-0.4622 1.8874-0.43992 0.61777 0.0223 1.3086 0.27857 1.6816 0.84071s0.42867 1.431 0.30066 2.1047c-0.128 0.67378-0.43973 1.1525-0.99683 2.3502-0.5571 1.1978-1.3584 3.112-2.0878 4.3816-0.72941 1.2696-1.3863 1.8931-2.2274 2.9736s-1.8651 2.6167-2.7505 3.8473c-0.88539 1.2307-1.6314 2.1548-2.0769 2.5893-0.44552 0.43447-0.59024 0.37881-0.85218 0.18932-0.26195-0.1895-0.6402-0.51213-1.7817-1.4755s-3.0457-2.5668-5.3509-4.1204-5.0113-3.0569-6.793-3.881c-1.7817-0.82409-2.6392-0.96886-3.3074-0.99674-0.66819-0.0279-1.1469 0.0612-1.3642 0.26723-0.21731 0.20605-0.1728 0.52878 0.0835 0.92997 0.25631 0.40118 0.72371 0.87971 1.3362 1.6704s1.3697 1.8931 2.2495 3.1738c0.87978 1.2807 1.882 2.7395 2.7451 4.2651s1.5869 3.1181 2.1549 5.028c0.56797 1.9099 0.97998 4.137 1.392 6.2028 0.41206 2.0659 0.82406 3.97 1.1248 6.0358s0.49 4.2929 0.75728 7.634 0.61248 7.7951 0.79062 10.668c0.17814 2.8732 0.18937 4.1872 0.13369 6.0249-0.05568 1.8377-0.17816 4.2093-0.55123 6.7485s-0.99663 5.245-1.921 8.9202c-0.92437 3.6752-2.1492 8.3185-3.068 11.849s-1.5312 5.9467-2.0546 7.7842-0.95767 3.0958-1.5703 5.0784c-0.6126 1.9826-1.4031 4.688-2.1882 7.4778s-1.5646 5.6626-2.0713 7.4389c-0.5067 1.7763-0.74053 2.4555-0.85618 2.8637-0.11566 0.40824-0.11299 0.54523-0.11166 0.61388 1e-3 0.0686 1e-3 0.0687 0.0339 0.19655z" fill="#5d5d5a" stroke="#5d5d5a" stroke-width=".26458px"/>
 </g>
</svg>
