<?xml version="1.0" encoding="UTF-8" standalone="no"?>
<!-- Created with Inkscape (http://www.inkscape.org/) -->

<svg
   xmlns:dc="http://purl.org/dc/elements/1.1/"
   xmlns:cc="http://creativecommons.org/ns#"
   xmlns:rdf="http://www.w3.org/1999/02/22-rdf-syntax-ns#"
   xmlns:svg="http://www.w3.org/2000/svg"
   xmlns="http://www.w3.org/2000/svg"
   xmlns:sodipodi="http://sodipodi.sourceforge.net/DTD/sodipodi-0.dtd"
   xmlns:inkscape="http://www.inkscape.org/namespaces/inkscape"
   width="117.26612mm"
   height="212.53517mm"
   viewBox="0 0 117.26612 212.53517"
   version="1.1"
   id="svg8"
   inkscape:version="0.92.4 (f8dce91, 2019-08-02)"
   sodipodi:docname="rotacionars.svg">
  <defs
     id="defs2">
    <inkscape:path-effect
       effect="bspline"
       id="path-effect832"
       is_visible="true"
       weight="33.333333"
       steps="2"
       helper_size="0"
       apply_no_weight="true"
       apply_with_weight="true"
       only_selected="false" />
    <inkscape:path-effect
       effect="bspline"
       id="path-effect828"
       is_visible="true"
       weight="33.333333"
       steps="2"
       helper_size="0"
       apply_no_weight="true"
       apply_with_weight="true"
       only_selected="false" />
  </defs>
  <sodipodi:namedview
     id="base"
     pagecolor="#ffffff"
     bordercolor="#666666"
     borderopacity="1.0"
     inkscape:pageopacity="0.0"
     inkscape:pageshadow="2"
     inkscape:zoom="0.24748737"
     inkscape:cx="476.44805"
     inkscape:cy="482.47303"
     inkscape:document-units="mm"
     inkscape:current-layer="layer1"
     showgrid="false"
     inkscape:window-width="1360"
     inkscape:window-height="700"
     inkscape:window-x="0"
     inkscape:window-y="36"
     inkscape:window-maximized="1" />
  <metadata
     id="metadata5">
    <rdf:RDF>
      <cc:Work
         rdf:about="">
        <dc:format>image/svg+xml</dc:format>
        <dc:type
           rdf:resource="http://purl.org/dc/dcmitype/StillImage" />
        <dc:title></dc:title>
      </cc:Work>
    </rdf:RDF>
  </metadata>
  <g
     inkscape:label="Camada 1"
     inkscape:groupmode="layer"
     id="layer1"
     transform="translate(25.450115,-70.828485)">
    <path
       style="fill:#545452;fill-opacity:1;stroke:#545452;stroke-width:0.99999994px;stroke-linecap:butt;stroke-linejoin:miter;stroke-opacity:1"
       d="m 305.82422,269.99916 c -119.57681,0.0842 -239.2118,-2.15272 -300.1699231,-1.75307 -60.9581229,0.39966 -63.3584249,1.1149 -66.6621089,2.39844 -3.303693,1.28355 -7.514443,3.13647 -11.259766,5.3457 -3.745323,2.20923 -7.028665,4.77721 -10.164063,8.20704 -3.135401,3.42982 -6.124123,7.72504 -8.228515,12.39648 -2.104392,4.67144 -3.332442,9.74777 -4.023438,12.36523 -0.691011,2.61747 -0.858736,2.82781 -0.943359,2.9336 -0.08466,0.10578 -0.08441,0.10613 0.0078,117.85156 0.09226,117.7454 0.276921,353.27005 0.369141,474.61133 0.09222,121.34123 0.09213,128.56393 3.113281,135.19723 3.021147,6.6333 9.061978,12.6759 15.578125,17.7149 6.516144,5.039 13.505159,9.0742 71.8203128,11.0918 58.3151552,2.0174 167.9453232,2.0164 227.9492232,2.0761 60.0039,0.06 70.35868,0.1803 78.06836,-0.5937 7.70967,-0.774 12.7684,-2.4408 18.18554,-5.3281 5.41715,-2.8873 11.18978,-6.9939 15.6543,-12.3516 4.46452,-5.3577 7.61842,-11.9642 9.33594,-24.8164 1.71753,-12.8521 1.99852,-31.94902 2.05469,-55.05078 0.0562,-23.10172 -0.1122,-50.20615 -0.1543,-100.67187 -0.0421,-50.46573 0.0419,-124.29136 0.084,-203.63086 0.0421,-79.3395 0.043,-164.19016 0.043,-249.04297 -0.0774,-36.39885 -0.15453,-72.79469 -0.81836,-92.88672 -0.66382,-20.09203 0.40674,-25.12117 -1.98911,-29.80859 -2.39585,-4.68742 -5.93645,-10.28224 -12.04883,-15.4043 -6.11239,-5.12207 -11.22527,-9.05801 -25.8019,-10.85045 z M 192.43359,286.3418 c 3.08239,-6.7e-4 5.58162,2.49769 5.58203,5.58008 -4.1e-4,3.08238 -2.49965,5.58074 -5.58203,5.58007 -3.08162,-4.1e-4 -5.57966,-2.49845 -5.58007,-5.58007 4.1e-4,-3.08162 2.49845,-5.57967 5.58007,-5.58008 z m 30.55664,0.25195 c 3.08239,-6.7e-4 5.58163,2.49769 5.58204,5.58008 6.7e-4,3.08315 -2.49889,5.5827 -5.58204,5.58203 -3.08238,-4.1e-4 -5.58074,-2.49965 -5.58007,-5.58203 4.1e-4,-3.08162 2.49845,-5.57967 5.58007,-5.58008 z m -202.808589,0.0254 H 125.28125 c 5.44403,0 9.82617,2.19009 9.82617,4.91211 v 1.53711 c 0,2.72202 -4.38214,4.91406 -9.82617,4.91406 H 20.181641 c -5.444032,0 -9.828125,-2.19204 -9.828125,-4.91406 v -1.53711 c 0,-2.72202 4.384093,-4.91211 9.828125,-4.91211 z m 199.445309,29.125 c 55.91703,0 65.02899,-10e-4 70.49219,0.52148 5.4632,0.52289 7.27591,1.57061 8.45898,3.13086 1.18312,1.56026 1.73933,3.6349 2.01758,107.42579 0.27825,103.79081 0.27735,309.36115 0.27735,413.71875 0,104.35759 0.002,107.62938 -1.33399,109.62304 -1.33553,1.9937 -4.00884,2.71006 -8.64844,3.06836 -4.63955,0.3583 -11.2477,0.35887 -64.20898,0.34375 -52.96127,-0.0147 -152.289984,-0.0456 -205.199218,-0.13476 -52.909235,-0.0893 -59.430016,-0.23626 -62.986328,-0.54883 -3.556313,-0.31246 -4.15142,-0.79012 -5.267578,-1.90625 -1.116155,-1.11617 -2.737029,-2.85592 -3.652344,-4.29297 -0.915322,-1.43701 -1.094359,-2.53771 -1.183594,-3.08789 -0.08924,-0.55019 -0.08976,-0.55001 0.101563,-103.83985 0.191297,-103.28976 0.575251,-309.75002 1.359375,-414.125 0.784123,-104.37492 1.967344,-106.42462 3.443359,-107.6875 1.476015,-1.26283 3.268996,-1.74385 55.4921875,-1.97656 52.2231905,-0.2327 154.9208575,-0.23242 210.8378875,-0.23242 z m -94.80468,663.91797 c 15.87818,0 28.75,12.87181 28.75,28.74998 0,15.8782 -12.87181,28.75 -28.75,28.75 -15.87819,0 -28.750005,-12.8718 -28.750004,-28.75 5e-6,-15.87817 12.871824,-28.74998 28.750004,-28.74998 z"
       transform="scale(0.26458333)"
       id="path826"
       inkscape:connector-curvature="0"
       sodipodi:nodetypes="cscscsccssssccssscssscssscccccccscccssssssssssscsscsccccccsscssssssss" />
  </g>
</svg>
