<?xml version="1.0" encoding="UTF-8"?>
<!-- Created with Inkscape (http://www.inkscape.org/) -->
<svg width="117.27mm" height="212.54mm" version="1.1" viewBox="0 0 117.27 212.54" xmlns="http://www.w3.org/2000/svg" xmlns:cc="http://creativecommons.org/ns#" xmlns:dc="http://purl.org/dc/elements/1.1/" xmlns:rdf="http://www.w3.org/1999/02/22-rdf-syntax-ns#">
 <metadata>
  <rdf:RDF>
   <cc:Work rdf:about="">
    <dc:format>image/svg+xml</dc:format>
    <dc:type rdf:resource="http://purl.org/dc/dcmitype/StillImage"/>
    <dc:title/>
   </cc:Work>
  </rdf:RDF>
 </metadata>
 <g transform="translate(25.45 -70.828)">
  <path transform="scale(.26458)" d="m305.82 270c-119.58 0.0842-239.21-2.1527-300.17-1.7531-60.958 0.39966-63.358 1.1149-66.662 2.3984-3.3037 1.2836-7.5144 3.1365-11.26 5.3457s-7.0287 4.7772-10.164 8.207c-3.1354 3.4298-6.1241 7.725-8.2285 12.396s-3.3324 9.7478-4.0234 12.365c-0.69101 2.6175-0.85874 2.8278-0.94336 2.9336-0.08466 0.10578-0.08441 0.10613 0.0078 117.85 0.09226 117.75 0.27692 353.27 0.36914 474.61 0.09222 121.34 0.09213 128.56 3.1133 135.2 3.0211 6.6333 9.062 12.676 15.578 17.715 6.5161 5.039 13.505 9.0742 71.82 11.092 58.315 2.0174 167.95 2.0164 227.95 2.0761 60.004 0.06 70.359 0.1803 78.068-0.5937 7.7097-0.774 12.768-2.4408 18.186-5.3281 5.4172-2.8873 11.19-6.9939 15.654-12.352s7.6184-11.964 9.3359-24.816c1.7175-12.852 1.9985-31.949 2.0547-55.051 0.0562-23.102-0.1122-50.206-0.1543-100.67-0.0421-50.466 0.0419-124.29 0.084-203.63s0.043-164.19 0.043-249.04c-0.0774-36.399-0.15453-72.795-0.81836-92.887-0.66382-20.092 0.40674-25.121-1.9891-29.809s-5.9364-10.282-12.049-15.404c-6.1124-5.1221-11.225-9.058-25.802-10.85zm-113.39 16.343c3.0824-6.7e-4 5.5816 2.4977 5.582 5.5801-4.1e-4 3.0824-2.4996 5.5807-5.582 5.5801-3.0816-4.1e-4 -5.5797-2.4984-5.5801-5.5801 4.1e-4 -3.0816 2.4984-5.5797 5.5801-5.5801zm30.557 0.25195c3.0824-6.7e-4 5.5816 2.4977 5.582 5.5801 6.7e-4 3.0832-2.4989 5.5827-5.582 5.582-3.0824-4.1e-4 -5.5807-2.4996-5.5801-5.582 4.1e-4 -3.0816 2.4984-5.5797 5.5801-5.5801zm-202.81 0.0254h105.1c5.444 0 9.8262 2.1901 9.8262 4.9121v1.5371c0 2.722-4.3821 4.9141-9.8262 4.9141h-105.1c-5.444 0-9.8281-2.192-9.8281-4.9141v-1.5371c0-2.722 4.3841-4.9121 9.8281-4.9121zm199.45 29.125c55.917 0 65.029-1e-3 70.492 0.52148 5.4632 0.52289 7.2759 1.5706 8.459 3.1309 1.1831 1.5603 1.7393 3.6349 2.0176 107.43 0.27825 103.79 0.27735 309.36 0.27735 413.72 0 104.36 2e-3 107.63-1.334 109.62-1.3355 1.9937-4.0088 2.7101-8.6484 3.0684-4.6396 0.3583-11.248 0.35887-64.209 0.34375-52.961-0.0147-152.29-0.0456-205.2-0.13476-52.909-0.0893-59.43-0.23626-62.986-0.54883-3.5563-0.31246-4.1514-0.79012-5.2676-1.9062-1.1162-1.1162-2.737-2.8559-3.6523-4.293-0.91532-1.437-1.0944-2.5377-1.1836-3.0879-0.08924-0.55019-0.08976-0.55001 0.10156-103.84 0.1913-103.29 0.57525-309.75 1.3594-414.12 0.78412-104.37 1.9673-106.42 3.4434-107.69 1.476-1.2628 3.269-1.7438 55.492-1.9766 52.223-0.2327 154.92-0.23242 210.84-0.23242zm-94.805 663.92c15.878 0 28.75 12.872 28.75 28.75 0 15.878-12.872 28.75-28.75 28.75s-28.75-12.872-28.75-28.75c5e-6 -15.878 12.872-28.75 28.75-28.75z" fill="#545452" stroke="#545452" stroke-width="1px"/>
 </g>
</svg>
