<?xml version="1.0" encoding="UTF-8" standalone="no"?>
<!-- Created with Inkscape (http://www.inkscape.org/) -->

<svg
   xmlns:dc="http://purl.org/dc/elements/1.1/"
   xmlns:cc="http://creativecommons.org/ns#"
   xmlns:rdf="http://www.w3.org/1999/02/22-rdf-syntax-ns#"
   xmlns:svg="http://www.w3.org/2000/svg"
   xmlns="http://www.w3.org/2000/svg"
   xmlns:sodipodi="http://sodipodi.sourceforge.net/DTD/sodipodi-0.dtd"
   xmlns:inkscape="http://www.inkscape.org/namespaces/inkscape"
   width="178.41597mm"
   height="172.47449mm"
   viewBox="0 0 178.41597 172.47449"
   version="1.1"
   id="svg8"
   inkscape:version="0.92.4 (f8dce91, 2019-08-02)"
   sodipodi:docname="startsvg.svg">
  <defs
     id="defs2">
    <inkscape:path-effect
       effect="bspline"
       id="path-effect830"
       is_visible="true"
       weight="33.333333"
       steps="2"
       helper_size="0"
       apply_no_weight="true"
       apply_with_weight="true"
       only_selected="false" />
  </defs>
  <sodipodi:namedview
     id="base"
     pagecolor="#ffffff"
     bordercolor="#666666"
     borderopacity="1.0"
     inkscape:pageopacity="0.0"
     inkscape:pageshadow="2"
     inkscape:zoom="0.35"
     inkscape:cx="759.12649"
     inkscape:cy="155.51179"
     inkscape:document-units="mm"
     inkscape:current-layer="layer1"
     showgrid="false"
     inkscape:window-width="1360"
     inkscape:window-height="700"
     inkscape:window-x="0"
     inkscape:window-y="36"
     inkscape:window-maximized="1" />
  <metadata
     id="metadata5">
    <rdf:RDF>
      <cc:Work
         rdf:about="">
        <dc:format>image/svg+xml</dc:format>
        <dc:type
           rdf:resource="http://purl.org/dc/dcmitype/StillImage" />
        <dc:title></dc:title>
      </cc:Work>
    </rdf:RDF>
  </metadata>
  <g
     inkscape:label="Camada 1"
     inkscape:groupmode="layer"
     id="layer1"
     transform="translate(-39.971369,-38.140617)">
    <path
       style="fill:#ffc107;fill-opacity:1;stroke:#ffc107;stroke-width:0.26458332px;stroke-linecap:butt;stroke-linejoin:miter;stroke-opacity:1"
       d="m 14.254506,89.526326 c -0.979857,0.996559 -2.939835,2.989945 -3.630393,5.456848 -0.6905586,2.466903 -0.111552,5.406476 4.282815,10.460486 4.394367,5.05401 12.602822,12.22086 19.116924,17.94639 6.514101,5.72553 11.333309,10.00927 13.943692,12.3716 2.610383,2.36234 3.011981,2.80331 3.256112,3.05925 0.244131,0.25594 0.330752,0.32682 0.303273,0.51558 -0.02748,0.18877 -0.169268,0.49598 -0.51213,1.86347 -0.342861,1.36749 -0.885639,3.79032 -1.346317,5.7551 -0.460679,1.96478 -0.838607,3.46862 -1.275701,5.45719 -0.437094,1.98857 -0.933087,4.46066 -1.602464,7.46893 -0.669378,3.00827 -1.511846,6.55136 -2.161515,9.35478 -0.649669,2.80342 -1.10635,4.86636 -1.503158,6.61481 -0.396808,1.74845 -0.737117,3.19674 -1.292355,5.65002 -0.555237,2.45328 -1.326774,5.91732 -1.728404,8.14586 -0.40163,2.22854 -0.433124,3.22064 -0.0078,4.57538 0.425313,1.35473 1.307016,3.0709 2.921449,4.4333 1.614433,1.3624 3.960897,2.37028 6.299658,2.44896 2.338762,0.0787 4.66974,-0.77181 12.673307,-5.33397 8.003567,-4.56215 21.683592,-12.8382 28.784916,-17.09977 7.101323,-4.26156 7.625831,-4.50981 7.911681,-4.6388 0.28585,-0.12899 0.333142,-0.13883 0.393833,-0.12657 0.06069,0.0123 0.135851,0.0469 0.210658,0.0813 0.383881,0.30415 0.767794,0.60832 1.908874,1.29362 1.14109,0.6853 3.03965,1.75191 5.86521,3.42101 2.82556,1.6691 6.57857,3.94095 10.33148,6.21274 8.88671,5.28971 17.7735,10.57947 22.99086,13.45818 5.21736,2.87872 6.76532,3.34644 8.41644,3.31922 1.65111,-0.0272 3.41427,-0.55191 4.76596,-1.25456 1.3517,-0.70265 2.29681,-1.58475 2.99751,-2.49809 0.7007,-0.91334 1.15755,-1.85856 1.38584,-3.0867 0.22828,-1.22814 0.22828,-2.74055 -0.13391,-5.12621 -0.36218,-2.38565 -1.08676,-5.64626 -2.41749,-11.44165 -1.33074,-5.79538 -3.26798,-14.12711 -4.66963,-20.42667 -1.40165,-6.29956 -2.26787,-10.56764 -2.91357,-13.32366 -0.64571,-2.75602 -1.07095,-4.00025 -1.12592,-4.76411 -0.055,-0.76386 0.26004,-1.04738 1.28297,-1.95227 1.02292,-0.90489 2.75683,-2.43389 9.06343,-7.92953 6.30659,-5.49563 17.19093,-14.96232 23.09678,-20.17524 5.90586,-5.21292 6.83507,-6.17364 7.50425,-7.6774 0.66917,-1.50376 1.07876,-3.551702 0.80316,-5.590952 -0.27559,-2.03925 -1.23642,-4.071173 -2.68518,-5.464856 -1.44875,-1.393683 -3.38599,-2.149674 -6.2052,-2.684507 -2.81922,-0.534832 -6.55134,-0.851115 -15.26523,-1.599216 -8.71388,-0.748101 -22.42311,-1.92917 -29.30615,-2.659059 -6.88304,-0.729888 -6.93873,-1.008294 -7.30598,-2.026584 -0.36726,-1.018289 -1.04706,-2.7791 -1.89894,-4.928287 -0.85188,-2.149188 -1.8765,-4.688454 -3.10702,-7.64503 -1.23051,-2.956576 -2.66716,-6.331033 -5.44,-12.717479 -2.77284,-6.386447 -6.88227,-15.785785 -9.28205,-20.685639 -2.39979,-4.899854 -3.09024,-5.300761 -4.2596,-5.723964 -1.16935,-0.423204 -2.81731,-0.868598 -4.599148,-0.824093 -1.781833,0.04451 -3.697058,0.578987 -5.233993,1.570128 -1.536936,0.991141 -2.694913,2.438613 -4.755464,6.793593 -2.06055,4.35498 -5.022193,11.614347 -8.062449,18.853056 -3.040256,7.238709 -6.158263,14.454668 -8.05144,18.875787 -1.893178,4.42112 -2.561322,6.046936 -2.95102,6.904478 -0.389699,0.857542 -0.501041,0.946615 -2.008213,1.08059 -1.507171,0.133975 -4.39504,0.311689 -9.930138,0.779443 -5.535098,0.467753 -13.708302,1.224944 -21.292196,1.971082 -7.583894,0.746139 -14.577201,1.481104 -18.074122,1.848615 -3.496921,0.367511 -3.496924,0.367481 -4.476781,1.36404 z"
       id="path828"
       inkscape:connector-curvature="0"
       inkscape:path-effect="#path-effect830"
       inkscape:original-d="m 15.234363,88.529767 c -1.959712,1.99312 -3.919689,3.986507 -5.8799297,5.980155 0.5794261,2.940095 1.1584327,5.879668 1.7372517,8.819898 8.209858,7.16757 16.418309,14.33442 24.627065,21.50202 4.819448,4.28346 9.638656,8.5672 14.457589,12.85119 0.401863,0.44071 0.803463,0.88168 1.204799,1.32292 0.08689,0.0706 0.173503,0.14148 0.259858,0.21261 -0.141428,0.30674 -0.283218,0.61395 -0.425222,0.92132 -0.54364,2.4276 -1.086417,4.85043 -1.630024,7.27604 -0.377759,1.50396 -0.755687,3.0078 -1.133928,4.51209 -0.495932,2.47284 -0.991923,4.94493 -1.488281,7.41778 -0.842412,3.5437 -1.68488,7.08679 -2.527715,10.63058 -0.456496,2.06304 -0.913178,4.12598 -1.370164,6.18937 -0.338391,1.4331 -0.676944,2.8818 -1.015812,4.3231 -0.771601,3.46526 -1.543137,6.9293 -2.315104,10.39434 -0.03124,0.99201 -0.06273,1.98411 -0.09449,2.97657 0.882451,1.71684 1.764154,3.43301 2.645833,5.14992 2.347005,1.00773 4.693468,2.01561 7.039806,3.02381 2.330992,-0.85067 4.661971,-1.70116 6.992559,-2.55134 13.676553,-8.27406 27.35658,-16.55011 41.034475,-24.82477 0.524745,-0.2485 1.049252,-0.49675 1.573482,-0.74473 0.04748,-0.0101 0.09476,-0.02 0.141743,-0.0295 0.07459,0.034 0.224422,0.10336 0.224422,0.10336 0,0 0.768024,0.60803 1.151644,0.91245 1.89849,1.06616 3.79706,2.13277 5.69519,3.19955 3.753,2.27142 11.25873,6.81537 11.25873,6.81537 0,0 17.77369,10.57915 26.66013,15.86913 1.54819,0.46745 3.09614,0.93518 4.64381,1.40316 1.75873,-0.50781 3.51758,-1.04697 5.27597,-1.57006 0.94504,-0.88205 1.89014,-1.76416 2.83482,-2.64583 0.45685,-0.94494 0.91371,-1.89015 1.37016,-2.83483 2.7e-4,-1.51166 2.7e-4,-3.02407 0,-4.53571 -0.72406,-3.25974 -1.44864,-6.52035 -2.17336,-9.78013 -1.93675,-8.33099 -3.87399,-16.66272 -5.81138,-24.99368 -0.86591,-4.26815 -1.73213,-8.53623 -2.59859,-12.80394 -0.42494,-1.24438 -0.85018,-2.48861 -1.27567,-3.73252 0.31521,-0.28371 0.63023,-0.56723 0.94494,-0.85044 1.73113,-1.52658 3.46505,-3.05558 5.19717,-4.58297 10.88107,-9.46388 21.7654,-18.93057 32.6477,-28.39546 0.92943,-0.96093 1.85865,-1.92164 2.78757,-2.88207 0.40963,-2.04706 0.81921,-4.095002 1.22842,-6.142107 -0.96028,-2.031585 -1.92111,-4.063508 -2.88206,-6.094868 -1.93676,-0.756174 -3.87399,-1.512168 -5.81139,-2.267855 -3.70102,-0.315269 -7.43326,-0.630227 -11.1503,-0.944941 -13.71073,-1.181486 -27.41996,-2.362557 -41.13034,-3.543437 -0.0554,-0.278675 -0.1111,-0.557078 -0.16705,-0.835218 -0.67854,-1.758503 -1.35835,-3.519313 -2.03793,-5.278573 -1.02418,-2.539121 -2.0488,-5.078386 -3.0736,-7.617182 -1.43623,-3.374363 -2.87288,-6.748819 -4.30972,-10.122834 -4.10884,-9.398883 -8.21827,-18.798219 -12.3278,-28.196934 -0.69018,-0.401163 -1.38063,-0.802073 -2.07134,-1.202713 -1.6481,-0.445768 -3.29606,-0.891162 -4.944487,-1.336347 -1.915374,0.534331 -3.830598,1.068813 -5.746295,1.603616 -1.158091,1.447683 -2.316069,2.895155 -3.474503,4.34313 -2.962566,7.262013 -5.924208,14.52138 -8.886711,21.782468 -3.118016,7.21633 -6.236025,14.432288 -9.354433,21.64883 -0.667938,1.625698 -1.336083,3.251514 -2.004523,4.87767 -0.111117,0.08884 -0.222459,0.177914 -0.334087,0.267269 -2.902704,0.178379 -5.790573,0.356095 -8.686258,0.534538 -8.174518,0.757073 -16.347722,1.514263 -24.521979,2.271791 -6.993533,0.734754 -13.986841,1.469719 -20.980658,2.204974 z"
       transform="translate(29.723021,8.7904837)" />
  </g>
</svg>
