<?xml version="1.0" encoding="UTF-8" standalone="no"?>
<svg
   xmlns:dc="http://purl.org/dc/elements/1.1/"
   xmlns:cc="http://creativecommons.org/ns#"
   xmlns:rdf="http://www.w3.org/1999/02/22-rdf-syntax-ns#"
   xmlns:svg="http://www.w3.org/2000/svg"
   xmlns="http://www.w3.org/2000/svg"
   xmlns:sodipodi="http://sodipodi.sourceforge.net/DTD/sodipodi-0.dtd"
   xmlns:inkscape="http://www.inkscape.org/namespaces/inkscape"
   version="1.1"
   width="24"
   height="24"
   viewBox="0 0 24 24"
   id="svg7574"
   sodipodi:docname="alarm-light-outline.svg"
   inkscape:version="0.92.4 (f8dce91, 2019-08-02)">
  <metadata
     id="metadata7580">
    <rdf:RDF>
      <cc:Work
         rdf:about="">
        <dc:format>image/svg+xml</dc:format>
        <dc:type
           rdf:resource="http://purl.org/dc/dcmitype/StillImage" />
      </cc:Work>
    </rdf:RDF>
  </metadata>
  <defs
     id="defs7578" />
  <sodipodi:namedview
     pagecolor="#ffffff"
     bordercolor="#666666"
     borderopacity="1"
     objecttolerance="10"
     gridtolerance="10"
     guidetolerance="10"
     inkscape:pageopacity="0"
     inkscape:pageshadow="2"
     inkscape:window-width="1360"
     inkscape:window-height="700"
     id="namedview7576"
     showgrid="false"
     inkscape:zoom="9.8333333"
     inkscape:cx="12"
     inkscape:cy="12"
     inkscape:window-x="0"
     inkscape:window-y="36"
     inkscape:window-maximized="1"
     inkscape:current-layer="svg7574" />
  <path
     d="M6,6.9L3.87,4.78L5.28,3.37L7.4,5.5L6,6.9M13,1V4H11V1H13M20.13,4.78L18,6.9L16.6,5.5L18.72,3.37L20.13,4.78M4.5,10.5V12.5H1.5V10.5H4.5M19.5,10.5H22.5V12.5H19.5V10.5M6,20H18A2,2 0 0,1 20,22H4A2,2 0 0,1 6,20M12,5A6,6 0 0,1 18,11V19H6V11A6,6 0 0,1 12,5M12,7A4,4 0 0,0 8,11V17H16V11A4,4 0 0,0 12,7Z"
     id="path7572"
     style="fill:#707070;fill-opacity:1" />
</svg>
