<?xml version="1.0" encoding="UTF-8" standalone="no"?>
<svg
   xmlns:dc="http://purl.org/dc/elements/1.1/"
   xmlns:cc="http://creativecommons.org/ns#"
   xmlns:rdf="http://www.w3.org/1999/02/22-rdf-syntax-ns#"
   xmlns:svg="http://www.w3.org/2000/svg"
   xmlns="http://www.w3.org/2000/svg"
   xmlns:sodipodi="http://sodipodi.sourceforge.net/DTD/sodipodi-0.dtd"
   xmlns:inkscape="http://www.inkscape.org/namespaces/inkscape"
   height="24"
   viewBox="0 0 24 24"
   width="24"
   version="1.1"
   id="svg877"
   sodipodi:docname="broken_image-24px.svg"
   inkscape:version="0.92.4 (f8dce91, 2019-08-02)">
  <metadata
     id="metadata883">
    <rdf:RDF>
      <cc:Work
         rdf:about="">
        <dc:format>image/svg+xml</dc:format>
        <dc:type
           rdf:resource="http://purl.org/dc/dcmitype/StillImage" />
      </cc:Work>
    </rdf:RDF>
  </metadata>
  <defs
     id="defs881" />
  <sodipodi:namedview
     pagecolor="#ffffff"
     bordercolor="#666666"
     borderopacity="1"
     objecttolerance="10"
     gridtolerance="10"
     guidetolerance="10"
     inkscape:pageopacity="0"
     inkscape:pageshadow="2"
     inkscape:window-width="1360"
     inkscape:window-height="700"
     id="namedview879"
     showgrid="false"
     inkscape:zoom="15.409035"
     inkscape:cx="-1.5252502"
     inkscape:cy="14.420404"
     inkscape:window-x="0"
     inkscape:window-y="36"
     inkscape:window-maximized="1"
     inkscape:current-layer="svg877" />
  <path
     d="M0 0h24v24H0zm0 0h24v24H0zm21 19c0 1.1-.9 2-2 2H5c-1.1 0-2-.9-2-2V5c0-1.1.9-2 2-2h14c1.1 0 2 .9 2 2"
     fill="none"
     id="path871" />
  <path
     d="M0 0h24v24H0z"
     fill="none"
     id="path873" />
  <path
     d="M21 5v6.59l-3-3.01-4 4.01-4-4-4 4-3-3.01V5c0-1.1.9-2 2-2h14c1.1 0 2 .9 2 2zm-3 6.42l3 3.01V19c0 1.1-.9 2-2 2H5c-1.1 0-2-.9-2-2v-6.58l3 2.99 4-4 4 4 4-3.99z"
     id="path875"
     style="fill:#ff9c59;fill-opacity:1" />
</svg>
