<?xml version="1.0" encoding="UTF-8" standalone="no"?>
<svg
   xmlns:dc="http://purl.org/dc/elements/1.1/"
   xmlns:cc="http://creativecommons.org/ns#"
   xmlns:rdf="http://www.w3.org/1999/02/22-rdf-syntax-ns#"
   xmlns:svg="http://www.w3.org/2000/svg"
   xmlns="http://www.w3.org/2000/svg"
   xmlns:sodipodi="http://sodipodi.sourceforge.net/DTD/sodipodi-0.dtd"
   xmlns:inkscape="http://www.inkscape.org/namespaces/inkscape"
   version="1.1"
   width="24"
   height="24"
   viewBox="0 0 24 24"
   id="svg6321"
   sodipodi:docname="controller-classic.svg"
   inkscape:version="0.92.4 (f8dce91, 2019-08-02)">
  <metadata
     id="metadata6327">
    <rdf:RDF>
      <cc:Work
         rdf:about="">
        <dc:format>image/svg+xml</dc:format>
        <dc:type
           rdf:resource="http://purl.org/dc/dcmitype/StillImage" />
      </cc:Work>
    </rdf:RDF>
  </metadata>
  <defs
     id="defs6325" />
  <sodipodi:namedview
     pagecolor="#ffffff"
     bordercolor="#666666"
     borderopacity="1"
     objecttolerance="10"
     gridtolerance="10"
     guidetolerance="10"
     inkscape:pageopacity="0"
     inkscape:pageshadow="2"
     inkscape:window-width="1360"
     inkscape:window-height="700"
     id="namedview6323"
     showgrid="false"
     inkscape:zoom="9.8333333"
     inkscape:cx="12"
     inkscape:cy="12"
     inkscape:window-x="0"
     inkscape:window-y="36"
     inkscape:window-maximized="1"
     inkscape:current-layer="svg6321" />
  <path
     d="M6,7H18A5,5 0 0,1 23,12A5,5 0 0,1 18,17C16.36,17 14.91,16.21 14,15H10C9.09,16.21 7.64,17 6,17A5,5 0 0,1 1,12A5,5 0 0,1 6,7M19.75,9.5A1.25,1.25 0 0,0 18.5,10.75A1.25,1.25 0 0,0 19.75,12A1.25,1.25 0 0,0 21,10.75A1.25,1.25 0 0,0 19.75,9.5M17.25,12A1.25,1.25 0 0,0 16,13.25A1.25,1.25 0 0,0 17.25,14.5A1.25,1.25 0 0,0 18.5,13.25A1.25,1.25 0 0,0 17.25,12M5,9V11H3V13H5V15H7V13H9V11H7V9H5Z"
     id="path6319"
     style="fill:#5d5d5a;fill-opacity:1" />
</svg>
