<?xml version="1.0" encoding="UTF-8" standalone="no"?>
<svg
   xmlns:dc="http://purl.org/dc/elements/1.1/"
   xmlns:cc="http://creativecommons.org/ns#"
   xmlns:rdf="http://www.w3.org/1999/02/22-rdf-syntax-ns#"
   xmlns:svg="http://www.w3.org/2000/svg"
   xmlns="http://www.w3.org/2000/svg"
   xmlns:sodipodi="http://sodipodi.sourceforge.net/DTD/sodipodi-0.dtd"
   xmlns:inkscape="http://www.inkscape.org/namespaces/inkscape"
   inkscape:version="1.0 (6e3e5246a0, 2020-05-07)"
   sodipodi:docname="controller-classic-white.svg"
   id="svg6321"
   viewBox="0 0 22 10"
   height="10"
   width="22"
   version="1.1">
  <metadata
     id="metadata6327">
    <rdf:RDF>
      <cc:Work
         rdf:about="">
        <dc:format>image/svg+xml</dc:format>
        <dc:type
           rdf:resource="http://purl.org/dc/dcmitype/StillImage" />
        <dc:title></dc:title>
      </cc:Work>
    </rdf:RDF>
  </metadata>
  <defs
     id="defs6325" />
  <sodipodi:namedview
     inkscape:document-rotation="0"
     inkscape:current-layer="svg6321"
     inkscape:window-maximized="1"
     inkscape:window-y="36"
     inkscape:window-x="0"
     inkscape:cy="5.5319257"
     inkscape:cx="11.024431"
     inkscape:zoom="23.977348"
     showgrid="false"
     id="namedview6323"
     inkscape:window-height="700"
     inkscape:window-width="1360"
     inkscape:pageshadow="2"
     inkscape:pageopacity="0"
     guidetolerance="10"
     gridtolerance="10"
     objecttolerance="10"
     borderopacity="1"
     bordercolor="#666666"
     pagecolor="#ffffff" />
  <path
     style="fill:#ffcd9b;fill-opacity:1"
     id="path6319"
     d="m 5,0 h 12 a 5,5 0 0 1 5,5 5,5 0 0 1 -5,5 C 15.36,10 13.91,9.21 13,8 H 9 C 8.09,9.21 6.64,10 5,10 A 5,5 0 0 1 0,5 5,5 0 0 1 5,0 M 18.75,2.5 A 1.25,1.25 0 0 0 17.5,3.75 1.25,1.25 0 0 0 18.75,5 1.25,1.25 0 0 0 20,3.75 1.25,1.25 0 0 0 18.75,2.5 M 16.25,5 A 1.25,1.25 0 0 0 15,6.25 1.25,1.25 0 0 0 16.25,7.5 1.25,1.25 0 0 0 17.5,6.25 1.25,1.25 0 0 0 16.25,5 M 4,2 V 4 H 2 V 6 H 4 V 8 H 6 V 6 H 8 V 4 H 6 V 2 Z" />
</svg>
