<?xml version="1.0" encoding="UTF-8" standalone="no"?>
<svg
   xmlns:dc="http://purl.org/dc/elements/1.1/"
   xmlns:cc="http://creativecommons.org/ns#"
   xmlns:rdf="http://www.w3.org/1999/02/22-rdf-syntax-ns#"
   xmlns:svg="http://www.w3.org/2000/svg"
   xmlns="http://www.w3.org/2000/svg"
   xmlns:sodipodi="http://sodipodi.sourceforge.net/DTD/sodipodi-0.dtd"
   xmlns:inkscape="http://www.inkscape.org/namespaces/inkscape"
   version="1.1"
   width="24"
   height="24"
   viewBox="0 0 24 24"
   id="svg1172"
   sodipodi:docname="eye-settings-outline.svg"
   inkscape:version="0.92.4 (f8dce91, 2019-08-02)">
  <metadata
     id="metadata1178">
    <rdf:RDF>
      <cc:Work
         rdf:about="">
        <dc:format>image/svg+xml</dc:format>
        <dc:type
           rdf:resource="http://purl.org/dc/dcmitype/StillImage" />
      </cc:Work>
    </rdf:RDF>
  </metadata>
  <defs
     id="defs1176">
    <inkscape:path-effect
       effect="bspline"
       id="path-effect1205"
       is_visible="true"
       weight="33.333333"
       steps="2"
       helper_size="0"
       apply_no_weight="true"
       apply_with_weight="true"
       only_selected="false" />
  </defs>
  <sodipodi:namedview
     pagecolor="#ffffff"
     bordercolor="#666666"
     borderopacity="1"
     objecttolerance="10"
     gridtolerance="10"
     guidetolerance="10"
     inkscape:pageopacity="0"
     inkscape:pageshadow="2"
     inkscape:window-width="1360"
     inkscape:window-height="700"
     id="namedview1174"
     showgrid="false"
     inkscape:zoom="7.7045176"
     inkscape:cx="-3.7944286"
     inkscape:cy="13.579409"
     inkscape:window-x="0"
     inkscape:window-y="36"
     inkscape:window-maximized="1"
     inkscape:current-layer="svg1172" />
  <path
     id="path1170"
     style="fill:#ffcdab;fill-opacity:1"
     d="m 11.632812,5.96875 c -4.8599978,0 -9.2199995,3.0000002 -10.9999995,7.5 1.2,3.06 3.6199219,5.469922 6.6699219,6.669922 6.0800006,2.39 12.9400776,-0.589922 15.3300776,-6.669922 -1.779999,-4.4999998 -6.139997,-7.5 -11,-7.5 z m 0.40625,2.0039062 c 3.48227,0.1470606 6.777813,2.1479688 8.414063,5.4960938 -0.96,1.96 -2.54,3.54 -4.5,4.5 -4.870001,2.39 -10.760625,0.37 -13.140625,-4.5 0.96,-1.96 2.54,-3.54 4.5,-4.5 1.5218749,-0.746875 3.143715,-1.0629391 4.726562,-0.9960938 z m -0.40625,2.4960938 c -1.6568518,0 -2.9999995,1.343146 -2.9999995,3 0,1.656854 1.3431477,3 2.9999995,3 1.656856,0 3,-1.343146 3,-3 0,-1.656854 -1.343144,-3 -3,-3 z m -5.6621089,10.640625 0.00781,0.04492 c 0.011174,-0.0024 0.021994,-0.0056 0.033203,-0.0078 z m 4.2812499,6.398437 c 0.0068,0.0448 0.0097,0.08994 0.01563,0.134766 l 0.578125,0.345703 c 0.01841,-0.04218 0.02065,-0.04799 0.04883,-0.111328 0.004,-0.01431 0.0076,-0.02869 0.01172,-0.04297 -0.10034,-0.0445 -0.202326,-0.08624 -0.300781,-0.134765 -0.159358,-0.07854 -0.233231,-0.127632 -0.353516,-0.191407 z" />
</svg>
