<?xml version="1.0" encoding="UTF-8" standalone="no"?>
<svg
   xmlns:dc="http://purl.org/dc/elements/1.1/"
   xmlns:cc="http://creativecommons.org/ns#"
   xmlns:rdf="http://www.w3.org/1999/02/22-rdf-syntax-ns#"
   xmlns:svg="http://www.w3.org/2000/svg"
   xmlns="http://www.w3.org/2000/svg"
   xmlns:sodipodi="http://sodipodi.sourceforge.net/DTD/sodipodi-0.dtd"
   xmlns:inkscape="http://www.inkscape.org/namespaces/inkscape"
   inkscape:version="1.0 (6e3e5246a0, 2020-05-07)"
   sodipodi:docname="help.svg"
   id="svg1372"
   viewBox="0 0 11.943048 20"
   height="20"
   width="11.943048"
   version="1.1">
  <metadata
     id="metadata1378">
    <rdf:RDF>
      <cc:Work
         rdf:about="">
        <dc:format>image/svg+xml</dc:format>
        <dc:type
           rdf:resource="http://purl.org/dc/dcmitype/StillImage" />
        <dc:title />
      </cc:Work>
    </rdf:RDF>
  </metadata>
  <defs
     id="defs1376" />
  <sodipodi:namedview
     inkscape:document-rotation="0"
     inkscape:current-layer="svg1372"
     inkscape:window-maximized="1"
     inkscape:window-y="36"
     inkscape:window-x="0"
     inkscape:cy="11.514888"
     inkscape:cx="3.4873032"
     inkscape:zoom="13.906434"
     showgrid="false"
     id="namedview1374"
     inkscape:window-height="700"
     inkscape:window-width="1360"
     inkscape:pageshadow="2"
     inkscape:pageopacity="0"
     guidetolerance="10"
     gridtolerance="10"
     objecttolerance="10"
     borderopacity="1"
     bordercolor="#666666"
     pagecolor="#ffffff" />
  <path
     style="fill:#ffcdab;fill-opacity:1"
     id="path1370"
     d="m 4,17 h 3 v 3 H 4 V 17 M 6,0 c 5.35,0.22 7.68,5.62 4.5,9.67 -0.83,1 -2.17,1.66 -2.83,2.5 C 7,13 7,14 7,15 H 4 C 4,13.33 4,11.92 4.67,10.92 5.33,9.92 6.67,9.33 7.5,8.67 9.92,6.43 9.32,3.26 6,3 A 3,3 0 0 0 3,6 H 0 A 6,6 0 0 1 6,0 Z" />
</svg>
