<?xml version="1.0" encoding="UTF-8" standalone="no"?>
<!-- Created with Inkscape (http://www.inkscape.org/) -->

<svg
   xmlns:dc="http://purl.org/dc/elements/1.1/"
   xmlns:cc="http://creativecommons.org/ns#"
   xmlns:rdf="http://www.w3.org/1999/02/22-rdf-syntax-ns#"
   xmlns:svg="http://www.w3.org/2000/svg"
   xmlns="http://www.w3.org/2000/svg"
   xmlns:sodipodi="http://sodipodi.sourceforge.net/DTD/sodipodi-0.dtd"
   xmlns:inkscape="http://www.inkscape.org/namespaces/inkscape"
   width="47.286133mm"
   height="32.202522mm"
   viewBox="0 0 47.286133 32.202522"
   version="1.1"
   id="svg8"
   inkscape:version="0.92.4 (fd57863, 2020-04-02)"
   sodipodi:docname="manuel.svg">
  <defs
     id="defs2">
    <inkscape:path-effect
       effect="bspline"
       id="path-effect840"
       is_visible="true"
       weight="33.333333"
       steps="2"
       helper_size="0"
       apply_no_weight="true"
       apply_with_weight="true"
       only_selected="false" />
    <inkscape:path-effect
       effect="bspline"
       id="path-effect836"
       is_visible="true"
       weight="33.333333"
       steps="2"
       helper_size="0"
       apply_no_weight="true"
       apply_with_weight="true"
       only_selected="false" />
    <inkscape:path-effect
       effect="bspline"
       id="path-effect832"
       is_visible="true"
       weight="33.333333"
       steps="2"
       helper_size="0"
       apply_no_weight="true"
       apply_with_weight="true"
       only_selected="false" />
    <inkscape:path-effect
       effect="bspline"
       id="path-effect828"
       is_visible="true"
       weight="33.333333"
       steps="2"
       helper_size="0"
       apply_no_weight="true"
       apply_with_weight="true"
       only_selected="false" />
  </defs>
  <sodipodi:namedview
     id="base"
     pagecolor="#ffffff"
     bordercolor="#666666"
     borderopacity="1.0"
     inkscape:pageopacity="0.0"
     inkscape:pageshadow="2"
     inkscape:zoom="1.979899"
     inkscape:cx="23.300159"
     inkscape:cy="60.216637"
     inkscape:document-units="mm"
     inkscape:current-layer="layer1"
     showgrid="false"
     inkscape:window-width="1360"
     inkscape:window-height="700"
     inkscape:window-x="0"
     inkscape:window-y="36"
     inkscape:window-maximized="1" />
  <metadata
     id="metadata5">
    <rdf:RDF>
      <cc:Work
         rdf:about="">
        <dc:format>image/svg+xml</dc:format>
        <dc:type
           rdf:resource="http://purl.org/dc/dcmitype/StillImage" />
        <dc:title></dc:title>
      </cc:Work>
    </rdf:RDF>
  </metadata>
  <g
     inkscape:label="Camada 1"
     inkscape:groupmode="layer"
     id="layer1"
     transform="translate(-36.779067,-111.24718)">
    <path
       style="fill:none;stroke:#808080;stroke-width:1.26499999;stroke-linecap:butt;stroke-linejoin:miter;stroke-miterlimit:4;stroke-dasharray:none;stroke-opacity:1"
       d="m 40.758752,142.37342 c 3.140566,-0.47888 9.4214,-1.4366 12.583915,-1.83757 3.162515,-0.40097 3.20706,-0.24506 3.485772,0.11169 0.278712,0.35676 0.790404,0.91294 1.436431,1.24705 0.646027,0.33411 1.425548,0.44547 2.12707,0.47886 0.701522,0.0334 1.325327,-0.0112 1.971059,-0.42316 0.645733,-0.412 1.314209,-1.19189 1.81528,-1.57038 0.501072,-0.37849 0.835281,-0.35621 3.906728,0.0778 3.071447,0.434 8.888837,1.28098 11.895658,1.68183 3.006821,0.40086 3.207291,0.35631 3.318478,-3.9358 0.111187,-4.29211 0.133494,-12.85788 0.133502,-17.14519 7e-6,-4.2873 -0.02228,-4.30958 -7.372061,-4.30958 -7.34978,0 -22.027331,0.0223 -29.689045,0.0779 -7.661714,0.0557 -8.307609,0.14475 -8.619569,0.52342 -0.311961,0.37868 -0.289698,1.04655 -0.300837,5.2798 -0.01114,4.23326 -0.05567,12.02564 -0.03341,15.99024 0.02225,3.9646 0.111339,4.09823 0.155904,4.16508 0.04456,0.0669 0.04456,0.0669 3.185128,-0.41201 z"
       id="path826"
       inkscape:connector-curvature="0"
       inkscape:path-effect="#path-effect828"
       inkscape:original-d="m 37.618185,142.8523 c 6.2811,-0.95798 12.561933,-1.9157 18.842503,-2.87315 0.04481,0.15564 0.08935,0.31155 0.133633,0.46772 0.513107,0.55717 1.024798,1.11336 1.536801,1.67044 0.779817,0.1111 1.559338,0.22246 2.338607,0.33408 0.623715,-0.0448 1.247524,-0.0893 1.870887,-0.13363 0.668137,-0.77945 1.336612,-1.55934 2.004523,-2.33861 0.33423,0.022 0.668438,0.0443 1.00226,0.0668 5.809099,0.84546 11.626488,1.69244 17.439336,2.53906 0.20071,-0.0448 0.401169,-0.0894 0.601355,-0.13364 0.02249,-8.53974 0.04481,-17.10551 0.06682,-25.65787 -0.02201,-0.0225 -0.04428,-0.0448 -0.06682,-0.0668 -14.677286,0.022 -29.354837,0.0443 -44.032653,0.0668 -0.645647,0.0888 -1.291537,0.17792 -1.937703,0.26727 0.02254,0.66821 0.04481,1.33608 0.06682,2.00452 -0.0443,7.79808 -0.08882,15.59046 -0.133634,23.38608 0.08936,0.13338 0.178443,0.26701 0.267269,0.40091 z" />
    <path
       style="fill:#868682;fill-opacity:1;stroke:#868682;stroke-width:0.26458332px;stroke-linecap:butt;stroke-linejoin:miter;stroke-opacity:1"
       d="m 41.282142,115.80239 c -0.345087,0.0111 -1.035534,0.0334 -1.347478,0.65714 -0.311944,0.62375 -0.245154,1.84825 -0.167186,5.96936 0.07797,4.12111 0.167039,11.13551 0.267371,14.65471 0.100332,3.5192 0.211697,3.54147 0.889907,3.48587 0.678209,-0.0556 1.927746,-0.18948 3.341868,-0.36764 1.414122,-0.17816 2.995832,-0.40094 4.276414,-0.62366 1.280582,-0.22272 2.260753,-0.44548 3.563439,-0.82405 1.302686,-0.37856 2.929091,-0.91327 3.964696,-1.19162 1.035604,-0.27836 1.481141,-0.30063 1.915219,-0.17818 0.434079,0.12245 0.857516,0.38988 1.236134,0.6126 0.378618,0.22271 0.712762,0.40091 0.969073,0.4999 0.256312,0.099 0.478819,0.1237 0.734807,0.0346 0.255988,-0.0891 0.568168,-0.28977 0.946578,-0.53462 0.378409,-0.24486 0.824298,-0.53469 1.425352,-0.6237 0.601053,-0.089 1.358838,0.0224 2.928664,0.49004 1.569827,0.46761 3.953678,1.29193 6.314526,1.80418 2.360848,0.51224 4.699607,0.71271 6.102772,0.79064 1.403164,0.0779 1.870937,0.0334 2.160366,-0.12259 0.289428,-0.15597 0.400858,-0.42341 0.423103,-4.59463 0.02225,-4.17123 -0.04465,-12.2658 -0.111382,-16.31922 -0.06673,-4.05343 -0.133561,-4.0757 -0.546449,-4.08686 -0.412887,-0.0112 -1.168349,-0.0112 -7.718608,0.0668 -6.550259,0.078 -18.88489,0.23383 -25.054494,0.31178 -6.169605,0.078 -6.169605,0.078 -6.514692,0.0891 z"
       id="path830"
       inkscape:connector-curvature="0"
       inkscape:path-effect="#path-effect832"
       inkscape:original-d="m 41.627229,115.79126 c -0.690182,0.022 -1.380628,0.0443 -2.071339,0.0668 0.06711,1.2252 0.133898,2.4497 0.200451,3.67495 0.08937,7.01699 0.178446,14.03139 0.267269,21.04748 0.111633,0.022 0.222991,0.0443 0.334087,0.0668 1.245243,-0.13366 2.49478,-0.26754 3.741775,-0.40091 1.581242,-0.22294 3.162953,-0.44571 4.744034,-0.66817 0.98007,-0.22295 1.96024,-0.44572 2.939965,-0.66818 1.62564,-0.53463 3.252044,-1.06934 4.877668,-1.60361 0.445627,-0.0225 0.891162,-0.0448 1.336347,-0.0668 0.42318,0.26684 0.846619,0.53427 1.269532,0.80181 0.334296,0.17788 0.668438,0.35609 1.00226,0.53453 0.178393,0.022 0.401169,0.0443 0.601356,0.0668 0.311718,-0.20048 0.623895,-0.40117 0.935445,-0.60135 0.445272,-0.28952 0.891161,-0.57935 1.336346,-0.86863 0.757008,0.11102 1.514793,0.22246 2.271792,0.33409 2.382721,0.82357 4.766569,1.6479 7.14946,2.47224 2.338721,0.20018 4.677481,0.40064 7.015824,0.60136 0.467939,-0.0448 0.935707,-0.0894 1.403165,-0.13364 0.111558,-0.26737 0.22299,-0.5348 0.334086,-0.80181 -0.06647,-8.0755 -0.133368,-16.17007 -0.200451,-24.25471 -0.06655,-0.0225 -0.133371,-0.0448 -0.200453,-0.0668 -0.758799,-2.7e-4 -1.514261,-2.7e-4 -2.27179,0 -12.342992,0.15569 -24.677623,0.31155 -37.016829,0.46772 z" />
    <path
       style="fill:#5d5d5a;fill-opacity:1;stroke:#5d5d5a;stroke-width:0.26458332px;stroke-linecap:butt;stroke-linejoin:miter;stroke-opacity:1"
       d="m 60.146811,136.1149 c -0.389736,-0.25612 -1.169272,-0.76838 -2.249421,-0.87978 -1.080149,-0.11141 -2.460931,0.17811 -4.153854,0.70157 -1.692923,0.52346 -3.696999,1.28056 -5.523488,1.7372 -1.82649,0.45664 -3.474389,0.61253 -4.44343,0.4677 -0.969041,-0.14483 -1.258532,-0.5902 -1.347608,-4.55425 -0.08908,-3.96405 0.0223,-11.4487 0.08914,-15.25731 0.06684,-3.8086 0.08911,-3.94224 0.80036,-3.98668 0.711245,-0.0444 2.117563,2e-4 3.988263,-0.23365 1.870699,-0.23385 4.209733,-0.74621 5.868971,-1.25849 1.659238,-0.51228 2.639353,-1.02462 3.585762,-1.28067 0.946409,-0.25605 1.859875,-0.25605 2.461031,0.0222 0.601156,0.27827 0.89078,0.83524 1.091267,4.25455 0.200486,3.4193 0.311828,9.69901 0.334107,13.59672 0.02228,3.89771 -0.04454,5.41217 -0.07795,6.16957 -0.03341,0.7574 -0.03342,0.7574 -0.423153,0.50129 z"
       id="path834"
       inkscape:connector-curvature="0"
       inkscape:path-effect="#path-effect836"
       inkscape:original-d="m 60.536547,136.37101 c -0.779272,-0.51253 -1.558806,-1.0248 -2.338607,-1.5368 -1.380742,0.2893 -2.761523,0.57882 -4.142679,0.86863 -2.004701,0.75717 -4.008779,1.51426 -6.013564,2.27179 -1.648161,0.15567 -3.29606,0.31155 -4.944486,0.46772 -0.289327,-0.44579 -0.578821,-0.89116 -0.868627,-1.33635 0.111612,-7.48271 0.222991,-14.96736 0.334087,-22.45064 0.02254,-0.13389 0.04481,-0.26753 0.06682,-0.4009 1.400275,0.0442 2.806594,0.0888 4.209494,0.13363 2.338449,-0.51243 4.677482,-1.02479 7.015827,-1.5368 0.980122,-0.51246 1.960239,-1.02479 2.939965,-1.5368 0.913141,-2.6e-4 1.826607,-2.6e-4 2.739512,0 0.289721,0.55639 0.579347,1.11336 0.868627,1.67044 0.111646,6.28169 0.222988,12.5614 0.334086,18.8425 -0.06656,1.51433 -0.133371,3.02879 -0.200453,4.54358 z" />
    <path
       style="fill:#5d5d5a;fill-opacity:1;stroke:#5d5d5a;stroke-width:0.26458332px;stroke-linecap:butt;stroke-linejoin:miter;stroke-opacity:1"
       d="m 60.659206,112.26101 c 0.590382,-0.25621 1.77082,-0.76847 3.006678,-0.77958 1.235858,-0.0111 2.52801,0.47902 4.276284,1.09147 1.748273,0.61245 3.953493,1.34752 5.735298,1.69272 1.781806,0.34519 3.140522,0.30064 3.841961,1.19124 0.701439,0.89059 0.745993,2.7173 0.779405,6.67108 0.03341,3.95379 0.05568,10.03331 0.07792,13.11808 0.02225,3.08476 0.04452,3.17387 -0.42404,3.24082 -0.468564,0.0669 -1.424267,0.1114 -3.406995,-0.24504 -1.982728,-0.35643 -4.988645,-1.11348 -6.792814,-1.74827 -1.804169,-0.6348 -2.405491,-1.14703 -2.995578,-1.33639 -0.590087,-0.18936 -1.169149,-0.0557 -1.988864,0.27196 -0.819716,0.3277 -1.878588,0.8488 -2.277282,0.81966 -0.398694,-0.0291 -0.135948,-0.6086 0.0033,-1.42158 0.139215,-0.81298 0.154979,-1.86124 0.141201,-4.29397 -0.01378,-2.43273 -0.0571,-6.25285 -0.120097,-9.17618 -0.063,-2.92334 -0.145685,-4.95116 -0.228372,-6.26221 -0.08269,-1.31105 -0.165381,-1.90566 -0.201705,-2.21589 -0.03632,-0.31023 -0.02642,-0.33613 -0.02154,-0.3489 0.0049,-0.0128 0.0049,-0.0128 0.595267,-0.26902 z"
       id="path838"
       inkscape:connector-curvature="0"
       inkscape:path-effect="#path-effect840"
       inkscape:original-d="m 60.068824,112.51721 c 1.180706,-0.51254 2.361147,-1.0248 3.541324,-1.5368 1.291717,0.48959 2.583868,0.97972 3.875407,1.46998 2.204993,0.73464 4.41021,1.46972 6.61492,2.20497 1.358789,-0.0448 2.717506,-0.0893 4.075861,-0.13363 0.0448,1.82571 0.08935,3.65242 0.133636,5.47902 0.02254,6.08098 0.04481,12.1605 0.06681,18.24115 0.02254,0.0888 0.04481,0.17791 0.06682,0.26727 -0.959459,0.0444 -1.915165,0.0888 -2.873148,0.13363 -3.007383,-0.75774 -6.013299,-1.51479 -9.020346,-2.27179 -0.601128,-0.51256 -1.202447,-1.0248 -1.80407,-1.5368 -0.578839,0.13338 -1.157901,0.26701 -1.737251,0.40091 -1.060089,0.52157 -2.118963,1.04267 -3.179363,1.56466 0.263185,-0.58011 0.525931,-1.15957 0.788503,-1.73896 0.01601,-1.04662 0.03176,-2.09488 0.04725,-3.14192 -0.04303,-3.81842 -0.08636,-7.63854 -0.129931,-11.45741 -0.08241,-2.02781 -0.1651,-4.05563 -0.248047,-6.08305 -0.08241,-0.59471 -0.1651,-1.18932 -0.248047,-1.78358 0.01016,-0.0261 0.02005,-0.052 0.02967,-0.0776 z"
       sodipodi:nodetypes="cccccccccccccccccccc" />
  </g>
</svg>
