<?xml version="1.0" encoding="UTF-8" standalone="no"?>
<svg
   xmlns:dc="http://purl.org/dc/elements/1.1/"
   xmlns:cc="http://creativecommons.org/ns#"
   xmlns:rdf="http://www.w3.org/1999/02/22-rdf-syntax-ns#"
   xmlns:svg="http://www.w3.org/2000/svg"
   xmlns="http://www.w3.org/2000/svg"
   xmlns:sodipodi="http://sodipodi.sourceforge.net/DTD/sodipodi-0.dtd"
   xmlns:inkscape="http://www.inkscape.org/namespaces/inkscape"
   version="1.1"
   width="24"
   height="24"
   viewBox="0 0 24 24"
   id="svg1372"
   sodipodi:docname="manual-24px.svg"
   inkscape:version="0.92.4 (f8dce91, 2019-08-02)">
  <metadata
     id="metadata1378">
    <rdf:RDF>
      <cc:Work
         rdf:about="">
        <dc:format>image/svg+xml</dc:format>
        <dc:type
           rdf:resource="http://purl.org/dc/dcmitype/StillImage" />
        <dc:title></dc:title>
      </cc:Work>
    </rdf:RDF>
  </metadata>
  <defs
     id="defs1376">
    <inkscape:path-effect
       effect="bspline"
       id="path-effect11958"
       is_visible="true"
       weight="33.333333"
       steps="2"
       helper_size="0"
       apply_no_weight="true"
       apply_with_weight="true"
       only_selected="false" />
    <inkscape:path-effect
       effect="bspline"
       id="path-effect11929"
       is_visible="true"
       weight="33.333333"
       steps="2"
       helper_size="0"
       apply_no_weight="true"
       apply_with_weight="true"
       only_selected="false" />
    <inkscape:path-effect
       effect="bspline"
       id="path-effect11907"
       is_visible="true"
       weight="33.333333"
       steps="2"
       helper_size="0"
       apply_no_weight="true"
       apply_with_weight="true"
       only_selected="false" />
    <inkscape:path-effect
       effect="bspline"
       id="path-effect11903"
       is_visible="true"
       weight="33.333333"
       steps="2"
       helper_size="0"
       apply_no_weight="true"
       apply_with_weight="true"
       only_selected="false" />
    <inkscape:path-effect
       effect="bspline"
       id="path-effect11907-0"
       is_visible="true"
       weight="33.333333"
       steps="2"
       helper_size="0"
       apply_no_weight="true"
       apply_with_weight="true"
       only_selected="false" />
    <inkscape:path-effect
       effect="bspline"
       id="path-effect11929-0"
       is_visible="true"
       weight="33.333333"
       steps="2"
       helper_size="0"
       apply_no_weight="true"
       apply_with_weight="true"
       only_selected="false" />
  </defs>
  <sodipodi:namedview
     pagecolor="#ffffff"
     bordercolor="#666666"
     borderopacity="1"
     objecttolerance="10"
     gridtolerance="10"
     guidetolerance="10"
     inkscape:pageopacity="0"
     inkscape:pageshadow="2"
     inkscape:window-width="1360"
     inkscape:window-height="700"
     id="namedview1374"
     showgrid="false"
     inkscape:zoom="4.9166667"
     inkscape:cx="10.329935"
     inkscape:cy="16.947954"
     inkscape:window-x="0"
     inkscape:window-y="36"
     inkscape:window-maximized="1"
     inkscape:current-layer="svg1372" />
  <g
     id="g11974"
     style="fill:#ff9c59;fill-opacity:1;stroke:#ff9c59;stroke-opacity:1"
     transform="matrix(0.12158,0,0,0.12158,11.568972,11.683293)">
    <path
       id="path11901"
       d="m -63.392578,-48.558594 c -2.280745,0.05604 -3.638157,0.577964 -4.53711,0.9375 -1.198603,0.479382 -1.580847,0.67 -2.683593,1.820313 -1.102746,1.150312 -2.925077,3.259711 -4.076172,8.103515 -1.151095,4.843805 -1.631034,12.415028 -1.535156,27.517578 0.09588,15.1025526 0.767833,37.725757 1.076171,49.761719 0.30834,12.035962 0.254108,13.480513 1.685547,15.390625 1.431439,1.910112 4.343879,4.282355 14.666016,5.46875 10.322137,1.186395 28.051301,1.186425 38.169922,1.050782 10.118621,-0.135645 12.6282175,-0.406678 14.892578,0.560546 2.2643605,0.967225 4.2877055,3.174059 6.06640625,4.277344 1.77870075,1.103285 3.31274845,1.102962 5.08593755,0.863281 1.773189,-0.23968 3.7883723,-0.719904 5.5136722,-1.726562 1.725299,-1.006658 3.164434,-2.540125 14.183593,-3.306641 11.01916,-0.766515 31.645377,-0.767762 42.335938,-1.007812 10.690561,-0.240051 11.458166,-0.719735 12.703125,-2.060547 1.244959,-1.340812 2.972802,-3.549611 4.21875,-6.185547 1.245948,-2.635936 2.013543,-5.705092 2.109375,-21.519531 0.09583,-15.81444 -0.478588,-44.397829 -1.533203,-59.402344 -1.054615,-15.004515 -2.589759,-16.440911 -4.458985,-17.255859 -1.354924,-0.590723 -2.986284,-0.851362 -11.726562,-0.878907 -0.01364,0.726614 -0.04088,1.524471 -0.08398,2.652344 -0.203904,5.335404 -0.541988,15.680623 -0.779297,26.257813 -0.23731,10.577189 -0.373721,21.3565231 -0.339844,28.916015 0.03388,7.559492 0.238124,11.897504 0.339844,16.203125 0.101719,4.305622 0.102052,8.576317 0.140625,10.982422 0.03857,2.406105 0.09688,2.813866 0.130859,3.289063 0.03398,0.475196 0.03363,0.948705 -2.339844,0.576171 -2.373471,-0.372533 -7.119002,-1.592854 -12.304687,-2.40625 -5.185686,-0.813395 -10.814063,-1.220616 -15.423828,-1.322265 -4.609766,-0.101649 -8.203714,0.10142 -12.304688,0.779297 -4.100974,0.677877 -8.712102,1.831445 -11.357422,2.345703 -2.645319,0.514258 -3.456978,0.365775 -3.863281,0.162109 -0.406303,-0.203666 -0.47516,-0.474956 -0.441406,-15.697265 0.03211,-14.482974 0.162185,-43.462625 0.291015,-72.273438 -3.7646012,0.02053 -7.5441344,0.04138 -11.22851525,0.04687 0.12941678,28.939167 0.26071663,58.038779 0.29296875,72.583984 0.0337535,15.222311 -0.0351036,15.495553 -0.44140625,15.699219 -0.40630265,0.203666 -1.21796175,0.350196 -3.86328125,-0.164062 -2.6453195,-0.514258 -7.256448,-1.667826 -11.357422,-2.345703 -4.100974,-0.677877 -7.694922,-0.880946 -12.304687,-0.779297 -4.609766,0.101649 -10.238143,0.50887 -15.423829,1.322265 -5.185684,0.813396 -9.931216,2.033717 -12.304687,2.40625 -2.373471,0.372534 -2.373822,-0.100974 -2.339844,-0.576172 0.03398,-0.475196 0.09229,-0.882957 0.13086,-3.289062 0.03857,-2.406105 0.0389,-6.676801 0.140625,-10.982422 0.101719,-4.305621 0.305966,-8.643633 0.339843,-16.203125 0.03388,-7.5594919 -0.102534,-18.3368734 -0.339843,-28.914062 -0.23731,-10.57719 -0.575394,-20.924362 -0.779297,-26.259766 -0.110106,-2.881073 -0.16768,-4.263101 0.08984,-5.046875 -0.666211,-0.101001 -1.27624,-0.1896 -1.826171,-0.25 -0.982721,-0.107934 -1.845221,-0.139772 -2.605469,-0.121094 z"
       style="fill:#ff9c59;fill-opacity:1;stroke:#ff9c59;stroke-width:1px;stroke-linecap:butt;stroke-linejoin:miter;stroke-opacity:1"
       inkscape:connector-curvature="0" />
    <path
       sodipodi:nodetypes="ccccccccccccccc"
       inkscape:original-d="m 5.4915254,-58.77966 c 7.1196436,-2.102695 14.2382876,-4.20439 21.3559316,-6.305085 6.372815,-0.06879 12.746763,-0.136593 19.118644,-0.20339 9.897736,2.100362 19.79761,4.20239 29.694915,6.305085 1.085664,0.880289 2.170492,1.761712 3.254238,2.644067 -0.06679,4.405321 -0.134594,8.81256 -0.20339,13.220339 0.204437,7.933031 0.40778,15.863407 0.610169,23.79661 -3.321441,0.81266 -6.643067,1.626119 -9.966101,2.440678 -0.202462,-10.648831 -0.40578,-21.289135 -0.61017,-31.932203 -1.96492,-0.611113 -3.931203,-1.221339 -5.898305,-1.830508 -8.340651,-1.018275 -16.676966,-2.034899 -25.016949,-3.050848 -5.558899,0.812644 -11.117644,1.626119 -16.677966,2.440678 -4.543701,2.869717 -9.085104,5.73835 -13.631352,8.610412 -2.5391976,-2.494655 -5.0746369,-4.983638 -7.61813765,-7.478553 1.86611425,-2.890308 3.72664865,-5.772521 5.58847305,-8.657282 z"
       inkscape:path-effect="#path-effect11907"
       inkscape:connector-curvature="0"
       id="path11905"
       d="m 8.1204055,-58.388384 c 4.4909545,-2.493323 11.6095985,-4.595018 18.3547375,-5.679587 6.74514,-1.08457 13.119088,-1.152378 21.253768,-0.13551 8.13468,1.016868 18.034554,3.118896 23.525718,4.610354 5.491164,1.491458 6.575992,2.37288 7.084422,5.016165 0.508429,2.643285 0.440625,7.050524 0.508425,13.22095 0.0678,6.170425 0.271142,14.100801 -1.287784,18.474075 -1.558926,4.373275 -4.880552,5.186734 -6.643896,0.269252 -1.763345,-4.917483 -1.966663,-15.557787 -3.050994,-21.184289 -1.084331,-5.626503 -3.050614,-6.236728 -8.204372,-7.050495 -5.153759,-0.813767 -13.490074,-1.830391 -20.439386,-1.932179 -6.949313,-0.101787 -12.508058,0.711687 -17.560047,2.553539 -5.05199,1.841852 -9.593393,4.710485 -13.1366942,4.899562 -3.5433014,0.189076 -6.0787405,-2.299907 -6.4170635,-4.993104 -0.3383229,-2.693197 1.5222114,-5.57541 6.0131662,-8.068733 z"
       style="fill:#ff9c59;fill-opacity:1;stroke:#ff9c59;stroke-width:1px;stroke-linecap:butt;stroke-linejoin:miter;stroke-opacity:1" />
    <path
       sodipodi:nodetypes="ccccccccccccccc"
       inkscape:original-d="m 4.3409788,-59.498752 c 7.5030982,-1.863479 15.0052572,-3.725476 22.5064782,-5.585993 6.372815,-0.06879 12.746763,-0.136593 19.118644,-0.20339 9.897736,2.100362 19.79761,4.20239 29.694915,6.305085 1.085664,0.880289 2.170492,1.761712 3.254238,2.644067 -0.06679,4.405321 -0.134594,8.81256 -0.20339,13.220339 0.204437,7.933031 0.40778,15.863407 0.610169,23.79661 -3.321441,0.81266 -6.643067,1.626119 -9.966101,2.440678 -0.202462,-10.648831 -0.40578,-21.289135 -0.61017,-31.932203 -1.96492,-0.611113 -3.931203,-1.221339 -5.898305,-1.830508 -8.340651,-1.018275 -16.676966,-2.034899 -25.016949,-3.050848 -5.558899,0.812644 -11.117644,1.626119 -16.677966,2.440678 -4.447672,2.820415 -8.894679,5.642043 -13.3437153,8.466593 -0.095513,-1.535797 -0.1897031,-3.065353 -0.283403,-4.602186 -1.0636897,-4.041901 -2.123689,-8.072571 -3.1844449,-12.108922 z"
       inkscape:path-effect="#path-effect11907-0"
       inkscape:connector-curvature="0"
       id="path11905-3"
       d="m 8.6233965,-58.411819 c 3.2209725,-2.949236 10.7231315,-4.811234 17.6600085,-5.775978 6.936878,-0.964744 13.310826,-1.032552 21.445506,-0.01568 8.13468,1.016868 18.034554,3.118896 23.525718,4.610354 5.491164,1.491458 6.575992,2.37288 7.084422,5.016165 0.508429,2.643285 0.440625,7.050524 0.508425,13.22095 0.0678,6.170425 0.271142,14.100801 -1.287784,18.474075 -1.558926,4.373275 -4.880552,5.186734 -6.643896,0.269252 -1.763345,-4.917483 -1.966663,-15.557787 -3.050994,-21.184289 -1.084331,-5.626503 -3.050614,-6.236728 -8.204372,-7.050495 -5.153759,-0.813767 -13.490074,-1.830391 -20.439386,-1.932179 -6.949313,-0.101787 -12.508058,0.711687 -17.511746,2.529339 -5.003688,1.817653 -9.450696,4.63928 -11.7228725,5.283045 -2.2721769,0.643765 -2.366367,-0.885791 -2.9451846,-3.675219 -0.5788176,-2.789429 -1.6388167,-6.820099 1.5821556,-9.769336 z"
       style="fill:#ff9c59;fill-opacity:1;stroke:#ff9c59;stroke-width:1px;stroke-linecap:butt;stroke-linejoin:miter;stroke-opacity:1"
       transform="matrix(-1,0,0,1,10.800996,-0.21658993)" />
  </g>
</svg>
