<?xml version="1.0" encoding="UTF-8" standalone="no"?>
<svg
   xmlns:dc="http://purl.org/dc/elements/1.1/"
   xmlns:cc="http://creativecommons.org/ns#"
   xmlns:rdf="http://www.w3.org/1999/02/22-rdf-syntax-ns#"
   xmlns:svg="http://www.w3.org/2000/svg"
   xmlns="http://www.w3.org/2000/svg"
   xmlns:sodipodi="http://sodipodi.sourceforge.net/DTD/sodipodi-0.dtd"
   xmlns:inkscape="http://www.inkscape.org/namespaces/inkscape"
   inkscape:version="1.0 (6e3e5246a0, 2020-05-07)"
   sodipodi:docname="push_pin-24px.svg"
   id="svg2184"
   version="1.1"
   width="24"
   viewBox="0 0 24 24"
   height="24"
   enable-background="new 0 0 24 24">
  <metadata
     id="metadata2190">
    <rdf:RDF>
      <cc:Work
         rdf:about="">
        <dc:format>image/svg+xml</dc:format>
        <dc:type
           rdf:resource="http://purl.org/dc/dcmitype/StillImage" />
      </cc:Work>
    </rdf:RDF>
  </metadata>
  <defs
     id="defs2188" />
  <sodipodi:namedview
     inkscape:current-layer="svg2184"
     inkscape:window-maximized="1"
     inkscape:window-y="36"
     inkscape:window-x="0"
     inkscape:cy="12"
     inkscape:cx="12"
     inkscape:zoom="23.333333"
     showgrid="false"
     id="namedview2186"
     inkscape:window-height="700"
     inkscape:window-width="1360"
     inkscape:pageshadow="2"
     inkscape:pageopacity="0"
     guidetolerance="10"
     gridtolerance="10"
     objecttolerance="10"
     borderopacity="1"
     bordercolor="#666666"
     pagecolor="#ffffff" />
  <g
     id="g2178">
    <rect
       id="rect2176"
       width="24"
       height="24"
       fill="none" />
  </g>
  <g
     style="fill:#ff9c59;fill-opacity:1"
     id="g2182">
    <path
       style="fill:#ff9c59;fill-opacity:1"
       id="path2180"
       fill-rule="evenodd"
       d="M16,9V4l1,0c0.55,0,1-0.45,1-1v0c0-0.55-0.45-1-1-1H7C6.45,2,6,2.45,6,3v0 c0,0.55,0.45,1,1,1l1,0v5c0,1.66-1.34,3-3,3h0v2h5.97v7l1,1l1-1v-7H19v-2h0C17.34,12,16,10.66,16,9z" />
  </g>
</svg>
