<?xml version="1.0" encoding="UTF-8" standalone="no"?>
<svg
   xmlns:dc="http://purl.org/dc/elements/1.1/"
   xmlns:cc="http://creativecommons.org/ns#"
   xmlns:rdf="http://www.w3.org/1999/02/22-rdf-syntax-ns#"
   xmlns:svg="http://www.w3.org/2000/svg"
   xmlns="http://www.w3.org/2000/svg"
   xmlns:sodipodi="http://sodipodi.sourceforge.net/DTD/sodipodi-0.dtd"
   xmlns:inkscape="http://www.inkscape.org/namespaces/inkscape"
   viewBox="0 0 24 24"
   fill="black"
   width="18px"
   height="18px"
   version="1.1"
   id="svg9406"
   sodipodi:docname="puzzle-black.svg"
   inkscape:version="0.92.4 (f8dce91, 2019-08-02)">
  <metadata
     id="metadata9412">
    <rdf:RDF>
      <cc:Work
         rdf:about="">
        <dc:format>image/svg+xml</dc:format>
        <dc:type
           rdf:resource="http://purl.org/dc/dcmitype/StillImage" />
        <dc:title></dc:title>
      </cc:Work>
    </rdf:RDF>
  </metadata>
  <defs
     id="defs9410">
    <inkscape:path-effect
       effect="bspline"
       id="path-effect10594"
       is_visible="true"
       weight="33.333333"
       steps="2"
       helper_size="0"
       apply_no_weight="true"
       apply_with_weight="true"
       only_selected="false" />
  </defs>
  <sodipodi:namedview
     pagecolor="#ffffff"
     bordercolor="#666666"
     borderopacity="1"
     objecttolerance="10"
     gridtolerance="10"
     guidetolerance="10"
     inkscape:pageopacity="0"
     inkscape:pageshadow="2"
     inkscape:window-width="1360"
     inkscape:window-height="700"
     id="namedview9408"
     showgrid="false"
     inkscape:zoom="8"
     inkscape:cx="28.978414"
     inkscape:cy="11.034263"
     inkscape:window-x="0"
     inkscape:window-y="36"
     inkscape:window-maximized="1"
     inkscape:current-layer="svg9406" />
  <path
     d="M0 0h24v24H0z"
     fill="none"
     id="path9402" />
  <path
     style="fill:#525252;fill-opacity:1;stroke:#525252;stroke-width:1.33333325px;stroke-linecap:butt;stroke-linejoin:miter;stroke-opacity:1"
     d="m -25.401367,10.84371 c 0.01852,0.0031 0.05447,0.0091 0.310421,0.148697 0.255956,0.139617 0.762111,0.42973 1.471826,0.825013 0.709715,0.395282 1.639351,0.905083 2.616434,0.97067 0.977082,0.06559 2.002299,-0.312123 2.669659,-0.994986 0.667359,-0.682864 0.979454,-1.673165 0.930483,-2.5391969 -0.04897,-0.8660321 -0.459086,-1.6128844 -0.975846,-2.1970523 -0.516759,-0.584168 -1.142146,-1.0080414 -1.832695,-1.1644748 -0.69055,-0.1564333 -1.447138,-0.045375 -2.110878,0.2045974 -0.663741,0.2499719 -1.232059,0.6380915 -1.760699,0.8981275 -0.52864,0.260036 -1.026868,0.3933646 -1.416871,0.3586233 -0.390003,-0.034741 -0.673814,-0.2354857 -0.816306,-1.8626369 -0.142491,-1.6271513 -0.142491,-4.67297719 -0.130889,-6.20331444 0.0116,-1.53033726 0.03325,-1.54283636 1.469648,-1.54862836 1.436395,-0.00579 4.73617,-0.00579 6.407932,-0.1404302 1.671763,-0.134638 1.946883,-0.4097579 1.984463,-0.9088003 0.03758,-0.4990425 -0.159135,-1.2331937 -0.452498,-1.7936289 -0.293364,-0.5604351 -0.685558,-0.9526294 -0.88141,-1.6508627 -0.195853,-0.6982333 -0.195853,-1.7016616 0.215824,-2.4403908 0.411677,-0.7387292 1.235641,-1.2144446 2.224399,-1.2966276 0.988758,-0.08218 2.148507,0.228572 2.726817,0.8122093 0.57831,0.5836377 0.57831,1.4436831 0.44581,2.1035315 -0.1325,0.6598485 -0.397588,1.1189936 -0.530793,1.9266457 -0.133205,0.807652 -0.133205,1.9549558 0.905287,2.5312488 1.038491,0.576293 3.1093391,0.576293 4.5554222,0.576293 1.4460831,0 2.2660545,0 2.8224662,0.2552284 0.5564117,0.2552284 0.8523295,0.767773 1.00017,2.22108673 C -3.40535,1.3879652 -3.40535,3.779837 -3.1754575,5.2073206 -2.945565,6.6348043 -2.4862919,7.0940773 -1.9446643,7.2402784 -1.4030368,7.3864795 -0.78088786,7.2197751 -0.40106651,6.8771239 -0.02124516,6.5344727 0.11810824,6.0143987 0.63496722,5.755808 1.1518262,5.4972174 2.0510845,5.4972174 2.8674789,5.5960355 3.6838733,5.6948535 4.4227526,5.8928352 4.9071895,6.4244794 5.3916264,6.9561235 5.6244468,7.8250212 5.6323867,8.6641266 5.6403265,9.503232 5.4234618,10.312582 4.9385631,10.935636 4.4536645,11.55869 3.7027351,11.99224 2.7179385,12.04703 1.7331419,12.101821 0.52170014,11.777216 -0.13118477,11.444881 -0.78406969,11.112546 -0.87456232,10.774823 -1.273367,10.70105 c -0.3988046,-0.07377 -1.1115052,0.117194 -1.4676868,1.699851 -0.3561815,1.582657 -0.3561815,4.545251 -0.6173866,6.100498 -0.2612052,1.555246 -0.7847224,1.695522 -4.696263,1.765903 -3.9115406,0.07038 -11.1667936,0.07038 -14.8494346,0.04533 -3.682641,-0.02505 -3.769804,-0.07538 -3.813609,-1.709648 -0.0438,-1.634273 -0.0438,-4.819869 0.05606,-6.393001 0.09986,-1.573132 0.298847,-1.519815 0.522003,-1.477055 0.223157,0.04276 0.472615,0.07537 0.596205,0.09153 0.12359,0.01616 0.12359,0.01616 0.142112,0.01925 z"
     id="path10592"
     inkscape:connector-curvature="0"
     inkscape:path-effect="#path-effect10594"
     inkscape:original-d="m -25.419889,10.840623 c 0.03729,0.0047 0.07324,0.01065 0.107867,0.01798 0.477937,0.271842 0.984092,0.561955 1.474137,0.844933 0.929351,0.507579 1.858987,1.017379 2.78648,1.528069 1.025528,-0.378668 2.050745,-0.756379 3.074117,-1.132569 0.312451,-0.988534 0.624546,-1.978835 0.934819,-2.966253 -0.40746,-0.7457793 -0.817575,-1.4926313 -1.228361,-2.2369468 -0.62328,-0.424682 -1.248667,-0.8485556 -1.875,-1.2708333 -0.755968,0.1098306 -1.512556,0.2208889 -2.270833,0.3333333 -0.569238,0.3883245 -1.137556,0.7764444 -1.708334,1.1666666 -0.486084,0.1309654 -0.984777,0.2625556 -1.479166,0.3958333 -0.2843,-0.2033663 -0.568111,-0.404111 -0.854167,-0.6041666 0.0013,-3.0527295 0.0013,-6.09855539 0,-9.1458331 0.02296,-0.013821 0.04461,-0.02632 0.06492,-0.03748 2.852725,-0.00133 6.1525,-0.00133 9.226749,0 0.269276,-0.2692761 0.544396,-0.5443956 0.814593,-0.8145935 -0.19346,-0.7283099 -0.390174,-1.4624614 -0.587262,-2.1916922 -0.389883,-0.3925504 -0.782078,-0.7847439 -1.175116,-1.1751161 0.0013,-1.0047615 0.0013,-2.0081898 0,-3.0102848 0.82311,-0.4757864 1.647074,-0.9515018 2.468612,-1.4252528 1.156645,0.308231 2.316394,0.618985 3.472591,0.930478 0.0013,0.85736 0.0013,1.7174054 0,2.5781081 -0.264577,0.4592386 -0.529665,0.9183835 -0.796498,1.3795752 0.0013,1.1538682 0.0013,2.301172 0,3.453758 2.076983,-0.00133 4.1478311,-0.00133 6.2197465,0 0.8202508,-0.00133 1.6402222,-0.00133 2.4583333,0 0.2962897,0.5095461 0.5922074,1.0220907 0.8863112,1.5351361 0.00133,2.3944928 0.00133,4.7863646 0,7.1815468 0.4611183,0.4584518 0.9203914,0.9177248 1.3785871,1.3785872 0.6234821,-0.1680377 1.24563101,-0.334742 1.86644653,-0.5001129 0.1399819,-0.5187768 0.27933529,-1.0388508 0.41700292,-1.5562761 0.89513965,-0.00133 1.79439795,-0.00133 2.68959695,0 C 3.6842962,5.6932753 4.4231754,5.8912573 5.159624,6.0902788 5.3932037,6.9557009 5.6260241,7.8245986 5.8572243,8.6937586 5.6412372,9.503476 5.4243724,10.312826 5.2059465,11.12436 4.4534206,11.558268 3.702491,11.991817 2.9487631,12.427546 1.7335645,12.100244 0.52212271,11.775639 -0.69319753,11.451685 -0.78249247,11.112123 -0.87298488,10.7744 -0.96487856,10.437758 c -0.70753704,0.188608 -1.42023774,0.379575 -2.13235674,0.571363 0.00133,2.974437 0.00133,5.937031 0,8.907545 -0.5226542,0.139069 -1.0461714,0.279345 -1.5712571,0.421017 -7.2977516,-0.0013 -14.5530046,-0.0013 -21.8315066,0 -0.08587,-0.05168 -0.173035,-0.102 -0.261552,-0.151008 0.0013,-3.217965 0.0013,-6.403561 0,-9.603342 0.20015,0.05194 0.399134,0.105257 0.596702,0.159886 0.248516,0.03098 0.497974,0.0636 0.74496,0.0974 z"
     transform="matrix(0.62427178,0,0,0.62427178,19.366811,7.9682502)" />
</svg>
