<?xml version="1.0" encoding="UTF-8" standalone="no"?>
<svg
   xmlns:dc="http://purl.org/dc/elements/1.1/"
   xmlns:cc="http://creativecommons.org/ns#"
   xmlns:rdf="http://www.w3.org/1999/02/22-rdf-syntax-ns#"
   xmlns:svg="http://www.w3.org/2000/svg"
   xmlns="http://www.w3.org/2000/svg"
   xmlns:sodipodi="http://sodipodi.sourceforge.net/DTD/sodipodi-0.dtd"
   xmlns:inkscape="http://www.inkscape.org/namespaces/inkscape"
   height="22.617664"
   viewBox="0 0 12.813346 22.617664"
   width="12.813346"
   version="1.1"
   id="svg9564"
   sodipodi:docname="sculpture-24px.svg"
   inkscape:version="0.92.4 (f8dce91, 2019-08-02)">
  <metadata
     id="metadata9570">
    <rdf:RDF>
      <cc:Work
         rdf:about="">
        <dc:format>image/svg+xml</dc:format>
        <dc:type
           rdf:resource="http://purl.org/dc/dcmitype/StillImage" />
      </cc:Work>
    </rdf:RDF>
  </metadata>
  <defs
     id="defs9568">
    <inkscape:path-effect
       effect="bspline"
       id="path-effect4257"
       is_visible="true"
       weight="33.333333"
       steps="2"
       helper_size="0"
       apply_no_weight="true"
       apply_with_weight="true"
       only_selected="false" />
    <inkscape:path-effect
       effect="bspline"
       id="path-effect4253"
       is_visible="true"
       weight="33.333333"
       steps="2"
       helper_size="0"
       apply_no_weight="true"
       apply_with_weight="true"
       only_selected="false" />
  </defs>
  <sodipodi:namedview
     pagecolor="#ffffff"
     bordercolor="#666666"
     borderopacity="1"
     objecttolerance="10"
     gridtolerance="10"
     guidetolerance="10"
     inkscape:pageopacity="0"
     inkscape:pageshadow="2"
     inkscape:window-width="1360"
     inkscape:window-height="700"
     id="namedview9566"
     showgrid="false"
     inkscape:zoom="19.666667"
     inkscape:cx="7.7824558"
     inkscape:cy="17.513277"
     inkscape:window-x="0"
     inkscape:window-y="36"
     inkscape:window-maximized="1"
     inkscape:current-layer="svg9564" />
  <g
     id="g4274"
     transform="matrix(0.13198213,0,0,0.13198213,7.5835222,10.358535)">
    <path
       id="path9560"
       d="M 0,0 H 24 V 24 H 0 Z"
       inkscape:connector-curvature="0"
       style="fill:none" />
    <rect
       y="79.369278"
       x="-50.919964"
       height="6.9767485"
       width="84.006462"
       id="rect4249"
       style="opacity:1;fill:#ffcdab;fill-opacity:1;stroke:#ffcdab;stroke-width:13.07748127;stroke-linecap:round;stroke-linejoin:round;stroke-miterlimit:4;stroke-dasharray:none;stroke-dashoffset:0;stroke-opacity:1;paint-order:stroke fill markers" />
    <path
       inkscape:original-d="m -36.457627,56.161017 c -0.04137,-10e-4 -0.08375,-10e-4 -0.127119,0 -0.979227,0.41538 -1.914254,0.812559 -2.872881,1.220339 -0.08385,1.619684 -0.168492,3.236288 -0.254237,4.855932 0.02644,1.474533 0.05185,2.948153 0.07627,4.423729 0.433491,-0.001 0.865407,-0.102695 1.29661,-0.152542 20.01761,-0.001 40.1365932,-0.001 60.20339,0 0.187431,-0.001 0.373881,-0.001 0.559322,0 0.001,-2.630886 0.001,-5.289136 0,-7.932204 -0.67671,-0.67871 -1.354932,-1.356932 -2.033898,-2.033898 -2.01595,-10e-4 -4.032899,-10e-4 -6.050848,0 -16.9395982,-0.128182 -33.863407,-0.255237 -50.79661,-0.381356 z"
       inkscape:path-effect="#path-effect4253"
       inkscape:connector-curvature="0"
       id="path4251"
       d="m -36.478312,56.161017 c -0.02069,0 -0.06306,0 -0.57426,0.207934 -0.511194,0.207933 -1.446221,0.605113 -1.968037,1.618576 -0.521816,1.013463 -0.606454,2.630068 -0.636143,4.17719 -0.02969,1.547122 -0.0043,3.020742 0.222282,3.733363 0.226565,0.712621 0.664385,0.661113 10.888741,0.635754 10.224355,-0.02536 30.3433382,-0.02536 40.470452,-0.02536 10.127114,0 10.313564,0 10.406284,-1.315443 0.09272,-1.315443 0.09272,-3.973693 -0.246134,-5.634082 C 21.746018,57.898561 21.067796,57.220339 19.720838,56.881356 18.37388,56.542373 16.356931,56.542373 6.8781536,56.478786 -2.6006238,56.415199 -19.524433,56.288143 -27.99103,56.22458 c -8.466598,-0.06356 -8.466597,-0.06356 -8.487282,-0.06356 z"
       style="fill:#ffcdab;fill-opacity:1;stroke:#ffcdab;stroke-width:1px;stroke-linecap:butt;stroke-linejoin:miter;stroke-opacity:1" />
    <path
       inkscape:original-d="m -20.847458,49.423729 c 8.20439,-0.001 16.40778,-0.001 24.6101699,0 0.077262,-0.07726 0.1535423,-0.153543 0.2288135,-0.228814 C 4.1848851,43.113676 4.3823559,36.871881 4.5762712,30.711864 5.1195534,26.4065 5.6620169,22.100695 6.2033898,17.79661 6.5432856,16.16891 6.8823559,14.541373 7.220339,12.915254 7.8988225,7.2572665 8.5772712,1.5922203 9.2542373,-4.0677966 c 10e-4,-1.8311516 10e-4,-3.662017 0,-5.4915254 2.2123537,-1.877032 4.4261257,-3.755115 6.6376877,-5.631172 1.486401,-2.229102 2.973246,-4.459369 4.458368,-6.687553 -0.07087,-1.414481 -0.142818,-2.829427 -0.215727,-4.24264 -1.460174,-3.474283 -2.923306,-6.95222 -4.386459,-10.426829 -1.245249,-2.852993 -2.491851,-5.705794 -3.739277,-8.557191 -2.9947182,-1.774465 -5.9914299,-3.548519 -8.9886451,-5.321278 -1.0298019,-0.168805 -2.06039604,-0.336576 -3.09209406,-0.503364 0.72066064,-1.46431 1.43918326,-2.925306 2.15727496,-4.386459 0.7195008,-2.324153 1.4391832,-4.651126 2.1572749,-6.975189 -0.6698073,-3.211292 -1.3413044,-6.424885 -2.0134566,-9.635828 -1.50873607,-1.822269 -3.01918491,-3.644398 -4.5302774,-5.465097 -1.9644077,-0.43243 -3.9300343,-0.86391 -5.8965514,-1.294364 -3.6197993,1.293855 -7.2378563,2.587729 -10.8582843,3.883094 -0.526509,2.252903 -1.053667,4.505308 -1.582001,6.759462 -0.358733,3.020753 -0.718092,6.03937 -1.078638,9.060555 1.295838,2.564697 2.63767,5.12852 3.955004,7.69428 -0.09489,0.21476 -0.238697,0.430455 -0.359545,0.647183 -3.035827,0.963071 -6.03937,1.916577 -9.060555,2.876366 -1.557649,2.708652 -4.674096,8.125736 -4.674096,8.125736 0,0 -4.457368,9.730707 -6.687552,14.59756 0.240757,1.893077 0.480394,3.786216 0.719092,5.680824 3.59809,3.404246 7.191916,6.806401 10.786374,10.2111013 0.04894,0.4783907 0.09688,0.9577889 0.143819,1.4381833 0.241142,5.4502407 0.480394,10.8812535 0.719091,16.3233803 0.912009,2.0128101 1.822699,4.0259131 2.732548,6.0403701 0.360627,7.407316 0.720092,14.812287 1.078638,22.219931 0.408537,3.642865 0.81597,7.285796 1.222456,10.930193 0.144853,0.334657 0.288636,0.670153 0.431455,1.006729 -0.04494,0.204317 -0.09075,0.409044 -0.137619,0.615067 z"
       inkscape:path-effect="#path-effect4257"
       inkscape:connector-curvature="0"
       id="path4255"
       d="m -16.722196,49.320635 c 4.079128,0.103094 12.282518,0.103094 16.42234341,0.06446 C 3.8399728,49.346468 3.9162544,49.270186 4.050086,46.191916 4.1839177,43.113645 4.3813885,36.87185 4.7500407,31.639121 5.1186929,26.406392 5.6611565,22.100587 6.1018417,19.134669 6.5425269,16.168752 6.8815971,14.541215 7.3897759,10.899189 7.8979547,7.2571626 8.5764034,1.5921164 8.9153204,-2.1534159 c 0.3389169,-3.7455323 0.3389169,-5.5763977 1.4451316,-7.4296237 1.106214,-1.8532264 3.319986,-3.7313094 5.168815,-5.7840094 1.848828,-2.052701 3.335673,-4.282968 4.04239,-6.104197 0.706716,-1.821229 0.63477,-3.236175 -0.131851,-5.679695 -0.766621,-2.443521 -2.229753,-5.921458 -3.583954,-9.085249 -1.354201,-3.163792 -2.600803,-6.016593 -4.72162,-8.329198 -2.120818,-2.312605 -5.11753,-4.086659 -7.1307817,-5.057464 -2.0132517,-0.970805 -3.04384584,-1.138576 -3.19947693,-1.954792 -0.15563108,-0.816216 0.56289153,-2.277212 1.28157723,-4.169862 0.7186857,-1.89265 1.438368,-4.219623 1.4622462,-6.987082 0.023878,-2.767459 -0.6476188,-5.981052 -1.7380258,-8.49733 -1.09040698,-2.516277 -2.60085587,-4.338406 -4.3381916,-5.464839 -1.7373357,-1.126432 -3.7029625,-1.557911 -6.4958911,-1.126508 -2.7929283,0.431404 -6.4109853,1.725278 -8.4849193,3.499042 -2.073933,1.773764 -2.601091,4.026169 -3.044696,6.663656 -0.443604,2.637487 -0.802964,5.656104 -0.325999,8.444529 0.476965,2.788426 1.79983,5.361999 2.40232,6.746767 0.602491,1.384769 0.477006,1.610643 -1.101064,2.200947 -1.578069,0.590304 -4.581612,1.543809 -6.871287,3.377628 -2.289675,1.833818 -3.847771,4.542507 -5.405803,7.251086 -2.229184,4.865853 -4.457816,9.730502 -5.45286,13.11064 -0.995044,3.380137 -0.755406,5.273276 1.163056,7.923146 1.918462,2.64987 5.512288,6.052026 7.333928,7.993112 1.82164,1.941087 1.86958,2.4204852 2.013645,5.3857712 0.144065,2.965286 0.383316,8.3962988 0.958587,12.124017 0.575272,3.7277178 1.485961,5.7408218 2.121279,10.4514608 0.635318,4.710639 0.994783,12.11561 1.378299,17.6409 0.383515,5.525291 0.790949,9.168222 1.066563,11.157946 0.275615,1.989724 0.419399,2.32522 0.468572,2.595325 0.04917,0.270106 0.0034,0.474833 4.082495,0.577927 z"
       style="fill:#ffcdab;fill-opacity:1;stroke:#ffcdab;stroke-width:1px;stroke-linecap:butt;stroke-linejoin:miter;stroke-opacity:1" />
  </g>
</svg>
