<?xml version="1.0" encoding="UTF-8" standalone="no"?>
<svg
   xmlns:dc="http://purl.org/dc/elements/1.1/"
   xmlns:cc="http://creativecommons.org/ns#"
   xmlns:rdf="http://www.w3.org/1999/02/22-rdf-syntax-ns#"
   xmlns:svg="http://www.w3.org/2000/svg"
   xmlns="http://www.w3.org/2000/svg"
   xmlns:sodipodi="http://sodipodi.sourceforge.net/DTD/sodipodi-0.dtd"
   xmlns:inkscape="http://www.inkscape.org/namespaces/inkscape"
   viewBox="0 0 37.728813 37.728813"
   width="28.29661"
   height="28.29661"
   version="1.1"
   id="svg1493"
   sodipodi:docname="sentiment_very_satisfied-black-18dp.svg"
   inkscape:version="0.92.4 (f8dce91, 2019-08-02)"
   style="fill:#000000">
  <metadata
     id="metadata1499">
    <rdf:RDF>
      <cc:Work
         rdf:about="">
        <dc:format>image/svg+xml</dc:format>
        <dc:type
           rdf:resource="http://purl.org/dc/dcmitype/StillImage" />
      </cc:Work>
    </rdf:RDF>
  </metadata>
  <defs
     id="defs1497" />
  <sodipodi:namedview
     pagecolor="#ffffff"
     bordercolor="#666666"
     borderopacity="1"
     objecttolerance="10"
     gridtolerance="10"
     guidetolerance="10"
     inkscape:pageopacity="0"
     inkscape:pageshadow="2"
     inkscape:window-width="1360"
     inkscape:window-height="700"
     id="namedview1495"
     showgrid="false"
     inkscape:zoom="13.111111"
     inkscape:cx="6.7455369"
     inkscape:cy="12.472631"
     inkscape:window-x="0"
     inkscape:window-y="36"
     inkscape:window-maximized="1"
     inkscape:current-layer="svg1493" />
  <g
     id="g3298"
     transform="matrix(1.5720339,0,0,1.5720339,-3.1597883,-5.2401129)">
    <path
       style="fill:none"
       inkscape:connector-curvature="0"
       id="path1485"
       d="M 2.0100001,3.3333333 H 26.01 V 27.333333 H 2.0100001 Z" />
    <circle
       style="fill:#ff9c59;fill-opacity:1"
       id="circle1487"
       r="1.5"
       cy="12.833333"
       cx="17.51" />
    <circle
       style="fill:#ff9c59;fill-opacity:1"
       id="circle1489"
       r="1.5"
       cy="12.833333"
       cx="10.51" />
    <path
       inkscape:connector-curvature="0"
       style="fill:#ff9c59;fill-opacity:1"
       id="path1491"
       d="m 14,5.3333333 c -5.5199999,0 -9.9899999,4.48 -9.9899999,9.9999997 0,5.52 4.47,10 9.9899999,10 5.53,0 10.01,-4.48 10.01,-10 C 24.01,9.8133333 19.53,5.3333333 14,5.3333333 Z m 0.01,17.9999997 c -4.4199999,0 -7.9999999,-3.58 -7.9999999,-8 0,-4.42 3.58,-7.9999997 7.9999999,-7.9999997 4.42,0 8,3.5799997 8,7.9999997 0,4.42 -3.58,8 -8,8 z m -4.9999999,-6 c 0.78,2.34 2.7199999,4 4.9999999,4 2.28,0 4.22,-1.66 5,-4 z" />
  </g>
</svg>
