<?xml version="1.0" encoding="UTF-8"?>
<!-- Created with Inkscape (http://www.inkscape.org/) -->
<svg width="100.28mm" height="102.44mm" version="1.1" viewBox="0 0 100.28 102.44" xmlns="http://www.w3.org/2000/svg" xmlns:cc="http://creativecommons.org/ns#" xmlns:dc="http://purl.org/dc/elements/1.1/" xmlns:rdf="http://www.w3.org/1999/02/22-rdf-syntax-ns#">
 <metadata>
  <rdf:RDF>
   <cc:Work rdf:about="">
    <dc:format>image/svg+xml</dc:format>
    <dc:type rdf:resource="http://purl.org/dc/dcmitype/StillImage"/>
    <dc:title/>
   </cc:Work>
  </rdf:RDF>
 </metadata>
 <g transform="translate(-29.807 -42.432)" stroke="#ffcdab">
  <ellipse cx="79.945" cy="93.651" rx="46.423" ry="47.504" fill="none" stroke-linecap="round" stroke-linejoin="bevel" stroke-width="7.4308"/>
  <path d="m65.898 80.313c0 6.6853 0 20.056 0.08069 26.931 0.08069 6.8745 0.24211 7.2525 0.55919 7.6168 0.31708 0.36434 0.78939 0.71464 1.1438 0.89953 0.35445 0.18489 0.59856 0.20491 6.6318-3.1993s17.883-10.246 23.861-13.753c5.9775-3.5068 6.0945-3.6856 6.2169-4.0085 0.12236-0.32285 0.25065-0.79137 0.16438-1.2811-0.0863-0.48971-0.38715-1.0023-0.81302-1.456-0.42587-0.45371-0.9772-0.84911-6.7695-4.2318-5.7923-3.3827-16.824-9.7517-22.438-12.963-5.6139-3.211-5.8169-3.2654-6.1029-3.2906-0.28596-0.02528-0.65791-0.02238-0.94992 0.04862-0.29202 0.071-0.50345 0.2101-0.69571 0.38282s-0.36462 0.37844-0.50952 0.60689-0.26166 0.47867-0.32034 0.6511c-0.05867 0.17243-0.05894 0.26644-0.05907 0.31363-1.33e-4 0.04719-1.96e-4 0.04713-1.96e-4 6.7325z" fill="#ffcdab" stroke-width=".26458px"/>
 </g>
</svg>
